G75*
%MOIN*%
%OFA0B0*%
%FSLAX24Y24*%
%IPPOS*%
%LPD*%
%AMOC8*
5,1,8,0,0,1.08239X$1,22.5*
%
%ADD10R,0.1254X0.0320*%
%ADD11R,0.0485X0.0473*%
%ADD12R,0.0690X0.0572*%
%ADD13R,0.0454X0.0493*%
%ADD14R,0.0178X0.0651*%
%ADD15R,0.0651X0.0178*%
%ADD16R,0.0493X0.0454*%
%ADD17R,0.0572X0.0690*%
%ADD18R,0.0690X0.0310*%
%ADD19R,0.0375X0.0375*%
%ADD20C,0.0532*%
%ADD21R,0.1320X0.0454*%
%ADD22R,0.0560X0.0310*%
%ADD23R,0.0310X0.0690*%
%ADD24C,0.0336*%
%ADD25C,0.0660*%
%ADD26C,0.0397*%
D10*
X020423Y002358D03*
X020423Y002858D03*
X020423Y003358D03*
X020423Y003858D03*
X020423Y004358D03*
X020423Y004858D03*
X020423Y005358D03*
X020423Y005858D03*
X020423Y006358D03*
X020423Y006858D03*
X024777Y006858D03*
X024777Y006358D03*
X024777Y005858D03*
X024777Y005358D03*
X024777Y004858D03*
X024777Y004358D03*
X024777Y003858D03*
X024777Y003358D03*
X024777Y002858D03*
X024777Y002358D03*
D11*
X019450Y002610D03*
X019450Y003299D03*
X019068Y004370D03*
X018545Y004381D03*
X018545Y005070D03*
X019068Y005059D03*
D12*
X018820Y003269D03*
X018820Y002482D03*
X025868Y002797D03*
X026576Y002797D03*
X026576Y002009D03*
X025868Y002009D03*
X025789Y006443D03*
X026498Y006443D03*
X026498Y007230D03*
X025789Y007230D03*
D13*
X025691Y005868D03*
X026360Y005868D03*
X015828Y005297D03*
X015828Y004628D03*
X010907Y004785D03*
X010907Y005454D03*
X015218Y002108D03*
X015887Y002108D03*
D14*
G36*
X013136Y002754D02*
X013262Y002628D01*
X012804Y002170D01*
X012678Y002296D01*
X013136Y002754D01*
G37*
G36*
X012857Y003033D02*
X012983Y002907D01*
X012525Y002449D01*
X012399Y002575D01*
X012857Y003033D01*
G37*
G36*
X012579Y003311D02*
X012705Y003185D01*
X012247Y002727D01*
X012121Y002853D01*
X012579Y003311D01*
G37*
G36*
X012301Y003589D02*
X012427Y003463D01*
X011969Y003005D01*
X011843Y003131D01*
X012301Y003589D01*
G37*
G36*
X012022Y003868D02*
X012148Y003742D01*
X011690Y003284D01*
X011564Y003410D01*
X012022Y003868D01*
G37*
G36*
X011883Y004007D02*
X012009Y003881D01*
X011551Y003423D01*
X011425Y003549D01*
X011883Y004007D01*
G37*
G36*
X011605Y004285D02*
X011731Y004159D01*
X011273Y003701D01*
X011147Y003827D01*
X011605Y004285D01*
G37*
G36*
X011744Y004146D02*
X011870Y004020D01*
X011412Y003562D01*
X011286Y003688D01*
X011744Y004146D01*
G37*
G36*
X012161Y003729D02*
X012287Y003603D01*
X011829Y003145D01*
X011703Y003271D01*
X012161Y003729D01*
G37*
G36*
X012440Y003450D02*
X012566Y003324D01*
X012108Y002866D01*
X011982Y002992D01*
X012440Y003450D01*
G37*
G36*
X012718Y003172D02*
X012844Y003046D01*
X012386Y002588D01*
X012260Y002714D01*
X012718Y003172D01*
G37*
G36*
X012997Y002893D02*
X013123Y002767D01*
X012665Y002309D01*
X012539Y002435D01*
X012997Y002893D01*
G37*
G36*
X015502Y005121D02*
X015628Y004995D01*
X015170Y004537D01*
X015044Y004663D01*
X015502Y005121D01*
G37*
G36*
X015224Y005399D02*
X015350Y005273D01*
X014892Y004815D01*
X014766Y004941D01*
X015224Y005399D01*
G37*
G36*
X014945Y005677D02*
X015071Y005551D01*
X014613Y005093D01*
X014487Y005219D01*
X014945Y005677D01*
G37*
G36*
X014667Y005956D02*
X014793Y005830D01*
X014335Y005372D01*
X014209Y005498D01*
X014667Y005956D01*
G37*
G36*
X014389Y006234D02*
X014515Y006108D01*
X014057Y005650D01*
X013931Y005776D01*
X014389Y006234D01*
G37*
G36*
X014249Y006373D02*
X014375Y006247D01*
X013917Y005789D01*
X013791Y005915D01*
X014249Y006373D01*
G37*
G36*
X013971Y006652D02*
X014097Y006526D01*
X013639Y006068D01*
X013513Y006194D01*
X013971Y006652D01*
G37*
G36*
X014110Y006513D02*
X014236Y006387D01*
X013778Y005929D01*
X013652Y006055D01*
X014110Y006513D01*
G37*
G36*
X014528Y006095D02*
X014654Y005969D01*
X014196Y005511D01*
X014070Y005637D01*
X014528Y006095D01*
G37*
G36*
X014806Y005817D02*
X014932Y005691D01*
X014474Y005233D01*
X014348Y005359D01*
X014806Y005817D01*
G37*
G36*
X015085Y005538D02*
X015211Y005412D01*
X014753Y004954D01*
X014627Y005080D01*
X015085Y005538D01*
G37*
G36*
X015363Y005260D02*
X015489Y005134D01*
X015031Y004676D01*
X014905Y004802D01*
X015363Y005260D01*
G37*
D15*
G36*
X012525Y006373D02*
X012983Y005915D01*
X012857Y005789D01*
X012399Y006247D01*
X012525Y006373D01*
G37*
G36*
X012804Y006652D02*
X013262Y006194D01*
X013136Y006068D01*
X012678Y006526D01*
X012804Y006652D01*
G37*
G36*
X012665Y006513D02*
X013123Y006055D01*
X012997Y005929D01*
X012539Y006387D01*
X012665Y006513D01*
G37*
G36*
X012386Y006234D02*
X012844Y005776D01*
X012718Y005650D01*
X012260Y006108D01*
X012386Y006234D01*
G37*
G36*
X012247Y006095D02*
X012705Y005637D01*
X012579Y005511D01*
X012121Y005969D01*
X012247Y006095D01*
G37*
G36*
X012108Y005956D02*
X012566Y005498D01*
X012440Y005372D01*
X011982Y005830D01*
X012108Y005956D01*
G37*
G36*
X011969Y005817D02*
X012427Y005359D01*
X012301Y005233D01*
X011843Y005691D01*
X011969Y005817D01*
G37*
G36*
X011829Y005677D02*
X012287Y005219D01*
X012161Y005093D01*
X011703Y005551D01*
X011829Y005677D01*
G37*
G36*
X011690Y005538D02*
X012148Y005080D01*
X012022Y004954D01*
X011564Y005412D01*
X011690Y005538D01*
G37*
G36*
X011551Y005399D02*
X012009Y004941D01*
X011883Y004815D01*
X011425Y005273D01*
X011551Y005399D01*
G37*
G36*
X011412Y005260D02*
X011870Y004802D01*
X011744Y004676D01*
X011286Y005134D01*
X011412Y005260D01*
G37*
G36*
X011273Y005121D02*
X011731Y004663D01*
X011605Y004537D01*
X011147Y004995D01*
X011273Y005121D01*
G37*
G36*
X015170Y004285D02*
X015628Y003827D01*
X015502Y003701D01*
X015044Y004159D01*
X015170Y004285D01*
G37*
G36*
X015031Y004146D02*
X015489Y003688D01*
X015363Y003562D01*
X014905Y004020D01*
X015031Y004146D01*
G37*
G36*
X014892Y004007D02*
X015350Y003549D01*
X015224Y003423D01*
X014766Y003881D01*
X014892Y004007D01*
G37*
G36*
X014753Y003868D02*
X015211Y003410D01*
X015085Y003284D01*
X014627Y003742D01*
X014753Y003868D01*
G37*
G36*
X014613Y003729D02*
X015071Y003271D01*
X014945Y003145D01*
X014487Y003603D01*
X014613Y003729D01*
G37*
G36*
X014474Y003589D02*
X014932Y003131D01*
X014806Y003005D01*
X014348Y003463D01*
X014474Y003589D01*
G37*
G36*
X014335Y003450D02*
X014793Y002992D01*
X014667Y002866D01*
X014209Y003324D01*
X014335Y003450D01*
G37*
G36*
X014196Y003311D02*
X014654Y002853D01*
X014528Y002727D01*
X014070Y003185D01*
X014196Y003311D01*
G37*
G36*
X014057Y003172D02*
X014515Y002714D01*
X014389Y002588D01*
X013931Y003046D01*
X014057Y003172D01*
G37*
G36*
X013917Y003033D02*
X014375Y002575D01*
X014249Y002449D01*
X013791Y002907D01*
X013917Y003033D01*
G37*
G36*
X013778Y002893D02*
X014236Y002435D01*
X014110Y002309D01*
X013652Y002767D01*
X013778Y002893D01*
G37*
G36*
X013639Y002754D02*
X014097Y002296D01*
X013971Y002170D01*
X013513Y002628D01*
X013639Y002754D01*
G37*
D16*
X009765Y004667D03*
X009765Y005336D03*
G36*
X012690Y006730D02*
X012343Y006383D01*
X012022Y006704D01*
X012369Y007051D01*
X012690Y006730D01*
G37*
G36*
X013163Y007204D02*
X012816Y006857D01*
X012495Y007178D01*
X012842Y007525D01*
X013163Y007204D01*
G37*
G36*
X014880Y006148D02*
X014533Y006495D01*
X014854Y006816D01*
X015201Y006469D01*
X014880Y006148D01*
G37*
G36*
X015353Y005674D02*
X015006Y006021D01*
X015327Y006342D01*
X015674Y005995D01*
X015353Y005674D01*
G37*
D17*
G36*
X016184Y005537D02*
X015779Y005942D01*
X016266Y006429D01*
X016671Y006024D01*
X016184Y005537D01*
G37*
G36*
X015627Y006094D02*
X015222Y006499D01*
X015709Y006986D01*
X016114Y006581D01*
X015627Y006094D01*
G37*
D18*
X011537Y006537D03*
X008624Y006537D03*
X008624Y002443D03*
X011537Y002443D03*
D19*
X016320Y002521D03*
X016911Y002521D03*
X016911Y002088D03*
X016320Y002088D03*
X017344Y003112D03*
X017935Y003112D03*
X017935Y003545D03*
X017344Y003545D03*
X010356Y004588D03*
X010356Y005179D03*
D20*
X007088Y005356D03*
X007088Y003584D03*
D21*
X007994Y003092D03*
X007994Y004076D03*
X007994Y004864D03*
X007994Y005848D03*
D22*
X007049Y002167D03*
X007069Y006773D03*
D23*
X017443Y007151D03*
X017443Y004237D03*
D24*
X014954Y002844D03*
D25*
X027576Y002529D02*
X028176Y002529D01*
X028176Y003529D02*
X027576Y003529D01*
X027576Y004529D02*
X028176Y004529D01*
X028176Y005529D02*
X027576Y005529D01*
X027576Y006529D02*
X028176Y006529D01*
D26*
X028742Y006604D03*
X028742Y006171D03*
X028742Y005738D03*
X028742Y005305D03*
X028742Y004872D03*
X028742Y004439D03*
X028742Y004006D03*
X028742Y003572D03*
X028742Y003139D03*
X028742Y002706D03*
X028742Y002273D03*
X025946Y002757D03*
X025671Y002246D03*
X025238Y001931D03*
X024805Y001931D03*
X024372Y001931D03*
X020750Y001852D03*
X020317Y001852D03*
X019883Y001852D03*
X019450Y001852D03*
X019017Y001852D03*
X018545Y001852D03*
X019569Y002364D03*
X019529Y002797D03*
X016588Y002880D03*
X015356Y002797D03*
X013860Y003387D03*
X013230Y003348D03*
X012679Y003584D03*
X011498Y003072D03*
X010277Y002600D03*
X009293Y002600D03*
X007954Y002521D03*
X007049Y002876D03*
X006340Y002757D03*
X006340Y003191D03*
X006340Y003624D03*
X006340Y004057D03*
X007049Y004214D03*
X006340Y004490D03*
X007049Y004726D03*
X006340Y004923D03*
X006340Y005356D03*
X006340Y005789D03*
X007049Y006065D03*
X006340Y006222D03*
X009214Y005474D03*
X009214Y005080D03*
X012521Y005041D03*
X013899Y005317D03*
X014450Y004883D03*
X014765Y004529D03*
X016065Y004135D03*
X016813Y003820D03*
X017049Y004175D03*
X017817Y003978D03*
X018269Y003899D03*
X019214Y003860D03*
X019569Y003860D03*
X019569Y004883D03*
X019569Y005435D03*
X019529Y005946D03*
X019096Y005946D03*
X017954Y005946D03*
X017561Y005946D03*
X017167Y005946D03*
X017167Y005474D03*
X017561Y005474D03*
X017954Y005474D03*
X017954Y006419D03*
X017561Y006419D03*
X017167Y006419D03*
X019096Y006419D03*
X019529Y006419D03*
X019529Y006852D03*
X019096Y006852D03*
X019096Y007285D03*
X019529Y007285D03*
X019962Y007285D03*
X020395Y007285D03*
X020828Y007285D03*
X018663Y007285D03*
X018230Y007285D03*
X017797Y007285D03*
X017049Y007285D03*
X016616Y007285D03*
X016183Y007285D03*
X014411Y006891D03*
X013978Y006970D03*
X013348Y007009D03*
X011970Y007246D03*
X011419Y006970D03*
X010356Y007246D03*
X009805Y007246D03*
X009254Y007246D03*
X011694Y006104D03*
X012521Y004647D03*
X012521Y004254D03*
X014450Y004057D03*
X015868Y003742D03*
X014490Y002088D03*
X013584Y002128D03*
X012403Y002088D03*
X011734Y002061D03*
X010277Y001852D03*
X009293Y001852D03*
X008584Y003584D03*
X009254Y003663D03*
X024332Y007317D03*
X024765Y007313D03*
X025198Y007313D03*
X025631Y007088D03*
X027088Y006880D03*
X028702Y007037D03*
X028387Y007313D03*
X027954Y007313D03*
X027521Y007313D03*
X027088Y007313D03*
X025710Y006419D03*
X027049Y005710D03*
X027167Y004990D03*
X025631Y004844D03*
X026498Y004096D03*
X025671Y003769D03*
X025671Y003348D03*
M02*
