G75*
%MOIN*%
%OFA0B0*%
%FSLAX24Y24*%
%IPPOS*%
%LPD*%
%AMOC8*
5,1,8,0,0,1.08239X$1,22.5*
%
%ADD10R,0.0800X0.0260*%
%ADD11R,0.0425X0.0413*%
%ADD12R,0.0630X0.0512*%
%ADD13R,0.0394X0.0433*%
%ADD14R,0.0118X0.0591*%
%ADD15R,0.0591X0.0118*%
%ADD16R,0.0433X0.0394*%
%ADD17R,0.0512X0.0630*%
%ADD18R,0.0630X0.0250*%
%ADD19R,0.0315X0.0315*%
%ADD20R,0.1260X0.0394*%
%ADD21C,0.0004*%
%ADD22R,0.0500X0.0250*%
%ADD23R,0.0250X0.0630*%
%ADD24C,0.0276*%
%ADD25C,0.0600*%
%ADD26C,0.0197*%
%ADD27C,0.0337*%
%ADD28C,0.0118*%
%ADD29C,0.0000*%
%ADD30C,0.0160*%
%ADD31C,0.0315*%
D10*
X020226Y001931D03*
X020226Y002431D03*
X020226Y002931D03*
X020226Y003431D03*
X020226Y003931D03*
X020226Y004431D03*
X020226Y004931D03*
X020226Y005431D03*
X020226Y005931D03*
X020226Y006431D03*
X024186Y006431D03*
X024186Y005931D03*
X024186Y005431D03*
X024186Y004931D03*
X024186Y004431D03*
X024186Y003931D03*
X024186Y003431D03*
X024186Y002931D03*
X024186Y002431D03*
X024186Y001931D03*
D11*
X019450Y002026D03*
X019450Y002715D03*
X019450Y003482D03*
X018781Y003482D03*
X018781Y004171D03*
X019450Y004171D03*
D12*
X018820Y002764D03*
X018820Y001976D03*
X025198Y001583D03*
X025986Y001583D03*
X025986Y002370D03*
X025198Y002370D03*
X025198Y006016D03*
X026025Y006016D03*
X026025Y006803D03*
X025198Y006803D03*
D13*
X025297Y005323D03*
X025966Y005323D03*
X015828Y004870D03*
X015828Y004201D03*
X010907Y004240D03*
X010907Y004909D03*
X015021Y001681D03*
X015691Y001681D03*
D14*
G36*
X013136Y002286D02*
X013220Y002202D01*
X012804Y001786D01*
X012720Y001870D01*
X013136Y002286D01*
G37*
G36*
X012997Y002425D02*
X013081Y002341D01*
X012665Y001925D01*
X012581Y002009D01*
X012997Y002425D01*
G37*
G36*
X012857Y002564D02*
X012941Y002480D01*
X012525Y002064D01*
X012441Y002148D01*
X012857Y002564D01*
G37*
G36*
X012718Y002703D02*
X012802Y002619D01*
X012386Y002203D01*
X012302Y002287D01*
X012718Y002703D01*
G37*
G36*
X012579Y002842D02*
X012663Y002758D01*
X012247Y002342D01*
X012163Y002426D01*
X012579Y002842D01*
G37*
G36*
X012301Y003121D02*
X012385Y003037D01*
X011969Y002621D01*
X011885Y002705D01*
X012301Y003121D01*
G37*
G36*
X012022Y003399D02*
X012106Y003315D01*
X011690Y002899D01*
X011606Y002983D01*
X012022Y003399D01*
G37*
G36*
X011883Y003538D02*
X011967Y003454D01*
X011551Y003038D01*
X011467Y003122D01*
X011883Y003538D01*
G37*
G36*
X011744Y003677D02*
X011828Y003593D01*
X011412Y003177D01*
X011328Y003261D01*
X011744Y003677D01*
G37*
G36*
X011605Y003817D02*
X011689Y003733D01*
X011273Y003317D01*
X011189Y003401D01*
X011605Y003817D01*
G37*
G36*
X012161Y003260D02*
X012245Y003176D01*
X011829Y002760D01*
X011745Y002844D01*
X012161Y003260D01*
G37*
G36*
X012440Y002981D02*
X012524Y002897D01*
X012108Y002481D01*
X012024Y002565D01*
X012440Y002981D01*
G37*
G36*
X015502Y004652D02*
X015586Y004568D01*
X015170Y004152D01*
X015086Y004236D01*
X015502Y004652D01*
G37*
G36*
X015363Y004791D02*
X015447Y004707D01*
X015031Y004291D01*
X014947Y004375D01*
X015363Y004791D01*
G37*
G36*
X015224Y004930D02*
X015308Y004846D01*
X014892Y004430D01*
X014808Y004514D01*
X015224Y004930D01*
G37*
G36*
X015085Y005069D02*
X015169Y004985D01*
X014753Y004569D01*
X014669Y004653D01*
X015085Y005069D01*
G37*
G36*
X014945Y005209D02*
X015029Y005125D01*
X014613Y004709D01*
X014529Y004793D01*
X014945Y005209D01*
G37*
G36*
X014806Y005348D02*
X014890Y005264D01*
X014474Y004848D01*
X014390Y004932D01*
X014806Y005348D01*
G37*
G36*
X014667Y005487D02*
X014751Y005403D01*
X014335Y004987D01*
X014251Y005071D01*
X014667Y005487D01*
G37*
G36*
X014528Y005626D02*
X014612Y005542D01*
X014196Y005126D01*
X014112Y005210D01*
X014528Y005626D01*
G37*
G36*
X014389Y005765D02*
X014473Y005681D01*
X014057Y005265D01*
X013973Y005349D01*
X014389Y005765D01*
G37*
G36*
X014249Y005905D02*
X014333Y005821D01*
X013917Y005405D01*
X013833Y005489D01*
X014249Y005905D01*
G37*
G36*
X014110Y006044D02*
X014194Y005960D01*
X013778Y005544D01*
X013694Y005628D01*
X014110Y006044D01*
G37*
G36*
X013971Y006183D02*
X014055Y006099D01*
X013639Y005683D01*
X013555Y005767D01*
X013971Y006183D01*
G37*
D15*
G36*
X012804Y006183D02*
X013220Y005767D01*
X013136Y005683D01*
X012720Y006099D01*
X012804Y006183D01*
G37*
G36*
X012665Y006044D02*
X013081Y005628D01*
X012997Y005544D01*
X012581Y005960D01*
X012665Y006044D01*
G37*
G36*
X012525Y005905D02*
X012941Y005489D01*
X012857Y005405D01*
X012441Y005821D01*
X012525Y005905D01*
G37*
G36*
X012386Y005765D02*
X012802Y005349D01*
X012718Y005265D01*
X012302Y005681D01*
X012386Y005765D01*
G37*
G36*
X012247Y005626D02*
X012663Y005210D01*
X012579Y005126D01*
X012163Y005542D01*
X012247Y005626D01*
G37*
G36*
X012108Y005487D02*
X012524Y005071D01*
X012440Y004987D01*
X012024Y005403D01*
X012108Y005487D01*
G37*
G36*
X011969Y005348D02*
X012385Y004932D01*
X012301Y004848D01*
X011885Y005264D01*
X011969Y005348D01*
G37*
G36*
X011829Y005209D02*
X012245Y004793D01*
X012161Y004709D01*
X011745Y005125D01*
X011829Y005209D01*
G37*
G36*
X011690Y005069D02*
X012106Y004653D01*
X012022Y004569D01*
X011606Y004985D01*
X011690Y005069D01*
G37*
G36*
X011551Y004930D02*
X011967Y004514D01*
X011883Y004430D01*
X011467Y004846D01*
X011551Y004930D01*
G37*
G36*
X011412Y004791D02*
X011828Y004375D01*
X011744Y004291D01*
X011328Y004707D01*
X011412Y004791D01*
G37*
G36*
X011273Y004652D02*
X011689Y004236D01*
X011605Y004152D01*
X011189Y004568D01*
X011273Y004652D01*
G37*
G36*
X015170Y003817D02*
X015586Y003401D01*
X015502Y003317D01*
X015086Y003733D01*
X015170Y003817D01*
G37*
G36*
X015031Y003677D02*
X015447Y003261D01*
X015363Y003177D01*
X014947Y003593D01*
X015031Y003677D01*
G37*
G36*
X014892Y003538D02*
X015308Y003122D01*
X015224Y003038D01*
X014808Y003454D01*
X014892Y003538D01*
G37*
G36*
X014753Y003399D02*
X015169Y002983D01*
X015085Y002899D01*
X014669Y003315D01*
X014753Y003399D01*
G37*
G36*
X014613Y003260D02*
X015029Y002844D01*
X014945Y002760D01*
X014529Y003176D01*
X014613Y003260D01*
G37*
G36*
X014474Y003121D02*
X014890Y002705D01*
X014806Y002621D01*
X014390Y003037D01*
X014474Y003121D01*
G37*
G36*
X014335Y002981D02*
X014751Y002565D01*
X014667Y002481D01*
X014251Y002897D01*
X014335Y002981D01*
G37*
G36*
X014196Y002842D02*
X014612Y002426D01*
X014528Y002342D01*
X014112Y002758D01*
X014196Y002842D01*
G37*
G36*
X014057Y002703D02*
X014473Y002287D01*
X014389Y002203D01*
X013973Y002619D01*
X014057Y002703D01*
G37*
G36*
X013917Y002564D02*
X014333Y002148D01*
X014249Y002064D01*
X013833Y002480D01*
X013917Y002564D01*
G37*
G36*
X013778Y002425D02*
X014194Y002009D01*
X014110Y001925D01*
X013694Y002341D01*
X013778Y002425D01*
G37*
G36*
X013639Y002286D02*
X014055Y001870D01*
X013971Y001786D01*
X013555Y002202D01*
X013639Y002286D01*
G37*
D16*
X009687Y004240D03*
X009687Y004909D03*
G36*
X012648Y006304D02*
X012343Y005999D01*
X012064Y006278D01*
X012369Y006583D01*
X012648Y006304D01*
G37*
G36*
X013121Y006777D02*
X012816Y006472D01*
X012537Y006751D01*
X012842Y007056D01*
X013121Y006777D01*
G37*
G36*
X014880Y005763D02*
X014575Y006068D01*
X014854Y006347D01*
X015159Y006042D01*
X014880Y005763D01*
G37*
G36*
X015353Y005290D02*
X015048Y005595D01*
X015327Y005874D01*
X015632Y005569D01*
X015353Y005290D01*
G37*
D17*
G36*
X016184Y005153D02*
X015822Y005515D01*
X016266Y005959D01*
X016628Y005597D01*
X016184Y005153D01*
G37*
G36*
X015627Y005710D02*
X015265Y006072D01*
X015709Y006516D01*
X016071Y006154D01*
X015627Y005710D01*
G37*
D18*
X011537Y006110D03*
X008624Y006110D03*
X008624Y002016D03*
X011537Y002016D03*
D19*
X016320Y002094D03*
X016911Y002094D03*
X016911Y001583D03*
X016320Y001583D03*
X017344Y002606D03*
X017935Y002606D03*
X017935Y003118D03*
X017344Y003118D03*
X010317Y004279D03*
X010317Y004870D03*
D20*
X007994Y004437D03*
X007994Y003650D03*
X007994Y002665D03*
X007994Y005421D03*
D21*
X007528Y006101D02*
X007477Y006074D01*
X006621Y006074D01*
X006570Y006101D01*
X006525Y006138D01*
X006488Y006182D01*
X006461Y006233D01*
X006444Y006289D01*
X006439Y006346D01*
X006444Y006404D01*
X006461Y006459D01*
X007637Y006459D01*
X007653Y006404D01*
X007659Y006346D01*
X007653Y006289D01*
X007637Y006233D01*
X007609Y006182D01*
X007573Y006138D01*
X007528Y006101D01*
X007527Y006101D02*
X006570Y006101D01*
X006567Y006103D02*
X007530Y006103D01*
X007533Y006105D02*
X006564Y006105D01*
X006561Y006108D02*
X007536Y006108D01*
X007539Y006110D02*
X006558Y006110D01*
X006555Y006113D02*
X007542Y006113D01*
X007545Y006115D02*
X006552Y006115D01*
X006549Y006118D02*
X007548Y006118D01*
X007551Y006120D02*
X006546Y006120D01*
X006543Y006123D02*
X007554Y006123D01*
X007557Y006125D02*
X006541Y006125D01*
X006538Y006127D02*
X007560Y006127D01*
X007563Y006130D02*
X006535Y006130D01*
X006532Y006132D02*
X007566Y006132D01*
X007569Y006135D02*
X006529Y006135D01*
X006526Y006137D02*
X007572Y006137D01*
X007574Y006140D02*
X006523Y006140D01*
X006521Y006142D02*
X007576Y006142D01*
X007578Y006144D02*
X006519Y006144D01*
X006517Y006147D02*
X007580Y006147D01*
X007582Y006149D02*
X006515Y006149D01*
X006513Y006152D02*
X007584Y006152D01*
X007586Y006154D02*
X006511Y006154D01*
X006509Y006157D02*
X007588Y006157D01*
X007590Y006159D02*
X006507Y006159D01*
X006505Y006162D02*
X007592Y006162D01*
X007594Y006164D02*
X006503Y006164D01*
X006501Y006166D02*
X007596Y006166D01*
X007598Y006169D02*
X006499Y006169D01*
X006497Y006171D02*
X007600Y006171D01*
X007602Y006174D02*
X006495Y006174D01*
X006493Y006176D02*
X007604Y006176D01*
X007606Y006179D02*
X006491Y006179D01*
X006489Y006181D02*
X007608Y006181D01*
X007610Y006183D02*
X006488Y006183D01*
X006486Y006186D02*
X007611Y006186D01*
X007612Y006188D02*
X006485Y006188D01*
X006484Y006191D02*
X007614Y006191D01*
X007615Y006193D02*
X006483Y006193D01*
X006481Y006196D02*
X007616Y006196D01*
X007618Y006198D02*
X006480Y006198D01*
X006479Y006201D02*
X007619Y006201D01*
X007620Y006203D02*
X006477Y006203D01*
X006476Y006205D02*
X007622Y006205D01*
X007623Y006208D02*
X006475Y006208D01*
X006473Y006210D02*
X007624Y006210D01*
X007625Y006213D02*
X006472Y006213D01*
X006471Y006215D02*
X007627Y006215D01*
X007628Y006218D02*
X006470Y006218D01*
X006468Y006220D02*
X007629Y006220D01*
X007631Y006222D02*
X006467Y006222D01*
X006466Y006225D02*
X007632Y006225D01*
X007633Y006227D02*
X006464Y006227D01*
X006463Y006230D02*
X007635Y006230D01*
X007636Y006232D02*
X006462Y006232D01*
X006461Y006235D02*
X007637Y006235D01*
X007638Y006237D02*
X006460Y006237D01*
X006459Y006240D02*
X007638Y006240D01*
X007639Y006242D02*
X006458Y006242D01*
X006458Y006244D02*
X007640Y006244D01*
X007641Y006247D02*
X006457Y006247D01*
X006456Y006249D02*
X007641Y006249D01*
X007642Y006252D02*
X006456Y006252D01*
X006455Y006254D02*
X007643Y006254D01*
X007644Y006257D02*
X006454Y006257D01*
X006453Y006259D02*
X007644Y006259D01*
X007645Y006261D02*
X006453Y006261D01*
X006452Y006264D02*
X007646Y006264D01*
X007647Y006266D02*
X006451Y006266D01*
X006450Y006269D02*
X007647Y006269D01*
X007648Y006271D02*
X006450Y006271D01*
X006449Y006274D02*
X007649Y006274D01*
X007650Y006276D02*
X006448Y006276D01*
X006447Y006279D02*
X007650Y006279D01*
X007651Y006281D02*
X006447Y006281D01*
X006446Y006283D02*
X007652Y006283D01*
X007652Y006286D02*
X006445Y006286D01*
X006444Y006288D02*
X007653Y006288D01*
X007654Y006291D02*
X006444Y006291D01*
X006444Y006293D02*
X007654Y006293D01*
X007654Y006296D02*
X006444Y006296D01*
X006443Y006298D02*
X007654Y006298D01*
X007655Y006300D02*
X006443Y006300D01*
X006443Y006303D02*
X007655Y006303D01*
X007655Y006305D02*
X006443Y006305D01*
X006442Y006308D02*
X007655Y006308D01*
X007655Y006310D02*
X006442Y006310D01*
X006442Y006313D02*
X007656Y006313D01*
X007656Y006315D02*
X006442Y006315D01*
X006441Y006317D02*
X007656Y006317D01*
X007656Y006320D02*
X006441Y006320D01*
X006441Y006322D02*
X007657Y006322D01*
X007657Y006325D02*
X006441Y006325D01*
X006440Y006327D02*
X007657Y006327D01*
X007657Y006330D02*
X006440Y006330D01*
X006440Y006332D02*
X007658Y006332D01*
X007658Y006335D02*
X006440Y006335D01*
X006440Y006337D02*
X007658Y006337D01*
X007658Y006339D02*
X006439Y006339D01*
X006439Y006342D02*
X007659Y006342D01*
X007659Y006344D02*
X006439Y006344D01*
X006439Y006347D02*
X007659Y006347D01*
X007659Y006349D02*
X006439Y006349D01*
X006439Y006352D02*
X007659Y006352D01*
X007658Y006354D02*
X006439Y006354D01*
X006440Y006356D02*
X007658Y006356D01*
X007658Y006359D02*
X006440Y006359D01*
X006440Y006361D02*
X007658Y006361D01*
X007657Y006364D02*
X006440Y006364D01*
X006441Y006366D02*
X007657Y006366D01*
X007657Y006369D02*
X006441Y006369D01*
X006441Y006371D02*
X007657Y006371D01*
X007656Y006374D02*
X006441Y006374D01*
X006441Y006376D02*
X007656Y006376D01*
X007656Y006378D02*
X006442Y006378D01*
X006442Y006381D02*
X007656Y006381D01*
X007655Y006383D02*
X006442Y006383D01*
X006442Y006386D02*
X007655Y006386D01*
X007655Y006388D02*
X006443Y006388D01*
X006443Y006391D02*
X007655Y006391D01*
X007654Y006393D02*
X006443Y006393D01*
X006443Y006395D02*
X007654Y006395D01*
X007654Y006398D02*
X006444Y006398D01*
X006444Y006400D02*
X007654Y006400D01*
X007654Y006403D02*
X006444Y006403D01*
X006445Y006405D02*
X007653Y006405D01*
X007652Y006408D02*
X006445Y006408D01*
X006446Y006410D02*
X007652Y006410D01*
X007651Y006413D02*
X006447Y006413D01*
X006448Y006415D02*
X007650Y006415D01*
X007649Y006417D02*
X006448Y006417D01*
X006449Y006420D02*
X007649Y006420D01*
X007648Y006422D02*
X006450Y006422D01*
X006451Y006425D02*
X007647Y006425D01*
X007646Y006427D02*
X006451Y006427D01*
X006452Y006430D02*
X007646Y006430D01*
X007645Y006432D02*
X006453Y006432D01*
X006453Y006434D02*
X007644Y006434D01*
X007643Y006437D02*
X006454Y006437D01*
X006455Y006439D02*
X007643Y006439D01*
X007642Y006442D02*
X006456Y006442D01*
X006456Y006444D02*
X007641Y006444D01*
X007640Y006447D02*
X006457Y006447D01*
X006458Y006449D02*
X007640Y006449D01*
X007639Y006452D02*
X006459Y006452D01*
X006459Y006454D02*
X007638Y006454D01*
X007637Y006456D02*
X006460Y006456D01*
X006461Y006459D02*
X006488Y006510D01*
X007610Y006510D01*
X007609Y006510D02*
X007637Y006459D01*
X007636Y006461D02*
X006462Y006461D01*
X006463Y006464D02*
X007634Y006464D01*
X007633Y006466D02*
X006465Y006466D01*
X006466Y006469D02*
X007632Y006469D01*
X007630Y006471D02*
X006467Y006471D01*
X006469Y006473D02*
X007629Y006473D01*
X007628Y006476D02*
X006470Y006476D01*
X006471Y006478D02*
X007626Y006478D01*
X007625Y006481D02*
X006472Y006481D01*
X006474Y006483D02*
X007624Y006483D01*
X007623Y006486D02*
X006475Y006486D01*
X006476Y006488D02*
X007621Y006488D01*
X007620Y006491D02*
X006478Y006491D01*
X006479Y006493D02*
X007619Y006493D01*
X007617Y006495D02*
X006480Y006495D01*
X006482Y006498D02*
X007616Y006498D01*
X007615Y006500D02*
X006483Y006500D01*
X006484Y006503D02*
X007613Y006503D01*
X007612Y006505D02*
X006486Y006505D01*
X006487Y006508D02*
X007611Y006508D01*
X007609Y006510D02*
X007573Y006555D01*
X007528Y006592D01*
X007477Y006619D01*
X007421Y006636D01*
X007364Y006642D01*
X006734Y006642D01*
X006676Y006636D01*
X006621Y006619D01*
X006570Y006592D01*
X006525Y006555D01*
X006488Y006510D01*
X006490Y006512D02*
X007608Y006512D01*
X007606Y006515D02*
X006492Y006515D01*
X006494Y006517D02*
X007604Y006517D01*
X007602Y006520D02*
X006496Y006520D01*
X006498Y006522D02*
X007600Y006522D01*
X007598Y006525D02*
X006500Y006525D01*
X006502Y006527D02*
X007596Y006527D01*
X007594Y006530D02*
X006504Y006530D01*
X006506Y006532D02*
X007592Y006532D01*
X007590Y006534D02*
X006508Y006534D01*
X006510Y006537D02*
X007588Y006537D01*
X007586Y006539D02*
X006512Y006539D01*
X006514Y006542D02*
X007584Y006542D01*
X007582Y006544D02*
X006516Y006544D01*
X006518Y006547D02*
X007580Y006547D01*
X007578Y006549D02*
X006520Y006549D01*
X006522Y006551D02*
X007576Y006551D01*
X007574Y006554D02*
X006524Y006554D01*
X006526Y006556D02*
X007571Y006556D01*
X007568Y006559D02*
X006529Y006559D01*
X006532Y006561D02*
X007565Y006561D01*
X007562Y006564D02*
X006535Y006564D01*
X006538Y006566D02*
X007559Y006566D01*
X007556Y006569D02*
X006541Y006569D01*
X006544Y006571D02*
X007553Y006571D01*
X007550Y006573D02*
X006547Y006573D01*
X006550Y006576D02*
X007547Y006576D01*
X007544Y006578D02*
X006553Y006578D01*
X006556Y006581D02*
X007541Y006581D01*
X007539Y006583D02*
X006559Y006583D01*
X006562Y006586D02*
X007536Y006586D01*
X007533Y006588D02*
X006565Y006588D01*
X006568Y006590D02*
X007530Y006590D01*
X007526Y006593D02*
X006572Y006593D01*
X006576Y006595D02*
X007521Y006595D01*
X007517Y006598D02*
X006581Y006598D01*
X006585Y006600D02*
X007512Y006600D01*
X007508Y006603D02*
X006590Y006603D01*
X006594Y006605D02*
X007503Y006605D01*
X007499Y006608D02*
X006599Y006608D01*
X006604Y006610D02*
X007494Y006610D01*
X007490Y006612D02*
X006608Y006612D01*
X006613Y006615D02*
X007485Y006615D01*
X007480Y006617D02*
X006617Y006617D01*
X006622Y006620D02*
X007475Y006620D01*
X007467Y006622D02*
X006631Y006622D01*
X006639Y006625D02*
X007459Y006625D01*
X007451Y006627D02*
X006647Y006627D01*
X006655Y006629D02*
X007443Y006629D01*
X007435Y006632D02*
X006663Y006632D01*
X006671Y006634D02*
X007427Y006634D01*
X007414Y006637D02*
X006684Y006637D01*
X006709Y006639D02*
X007389Y006639D01*
X007364Y006642D02*
X006733Y006642D01*
X006575Y006098D02*
X007523Y006098D01*
X007518Y006096D02*
X006580Y006096D01*
X006584Y006093D02*
X007514Y006093D01*
X007509Y006091D02*
X006589Y006091D01*
X006593Y006088D02*
X007504Y006088D01*
X007500Y006086D02*
X006598Y006086D01*
X006602Y006084D02*
X007495Y006084D01*
X007491Y006081D02*
X006607Y006081D01*
X006611Y006079D02*
X007486Y006079D01*
X007482Y006076D02*
X006616Y006076D01*
X006621Y006074D02*
X006676Y006057D01*
X006734Y006051D01*
X007364Y006051D01*
X007421Y006057D01*
X007477Y006074D01*
X007469Y006071D02*
X006628Y006071D01*
X006636Y006069D02*
X007461Y006069D01*
X007453Y006066D02*
X006644Y006066D01*
X006653Y006064D02*
X007445Y006064D01*
X007437Y006062D02*
X006661Y006062D01*
X006669Y006059D02*
X007429Y006059D01*
X007420Y006057D02*
X006677Y006057D01*
X006702Y006054D02*
X007395Y006054D01*
X007371Y006052D02*
X006727Y006052D01*
X006734Y002035D02*
X007364Y002035D01*
X007421Y002030D01*
X007477Y002013D01*
X007528Y001986D01*
X007573Y001949D01*
X007609Y001904D01*
X007637Y001853D01*
X007653Y001798D01*
X007659Y001740D01*
X007653Y001683D01*
X007637Y001627D01*
X007609Y001576D01*
X007573Y001531D01*
X007528Y001495D01*
X007477Y001467D01*
X006621Y001467D01*
X006570Y001495D01*
X006525Y001531D01*
X006488Y001576D01*
X006461Y001627D01*
X006444Y001683D01*
X006439Y001740D01*
X006444Y001798D01*
X006461Y001853D01*
X006488Y001904D01*
X007610Y001904D01*
X007611Y001901D02*
X006487Y001901D01*
X006485Y001899D02*
X007612Y001899D01*
X007613Y001896D02*
X006484Y001896D01*
X006483Y001894D02*
X007615Y001894D01*
X007616Y001891D02*
X006482Y001891D01*
X006480Y001889D02*
X007617Y001889D01*
X007619Y001887D02*
X006479Y001887D01*
X006478Y001884D02*
X007620Y001884D01*
X007621Y001882D02*
X006476Y001882D01*
X006475Y001879D02*
X007623Y001879D01*
X007624Y001877D02*
X006474Y001877D01*
X006472Y001874D02*
X007625Y001874D01*
X007627Y001872D02*
X006471Y001872D01*
X006470Y001870D02*
X007628Y001870D01*
X007629Y001867D02*
X006469Y001867D01*
X006467Y001865D02*
X007630Y001865D01*
X007632Y001862D02*
X006466Y001862D01*
X006465Y001860D02*
X007633Y001860D01*
X007634Y001857D02*
X006463Y001857D01*
X006462Y001855D02*
X007636Y001855D01*
X007637Y001852D02*
X006461Y001852D01*
X006460Y001850D02*
X007638Y001850D01*
X007638Y001848D02*
X006459Y001848D01*
X006459Y001845D02*
X007639Y001845D01*
X007640Y001843D02*
X006458Y001843D01*
X006457Y001840D02*
X007640Y001840D01*
X007641Y001838D02*
X006456Y001838D01*
X006456Y001835D02*
X007642Y001835D01*
X007643Y001833D02*
X006455Y001833D01*
X006454Y001831D02*
X007643Y001831D01*
X007644Y001828D02*
X006453Y001828D01*
X006453Y001826D02*
X007645Y001826D01*
X007646Y001823D02*
X006452Y001823D01*
X006451Y001821D02*
X007646Y001821D01*
X007647Y001818D02*
X006451Y001818D01*
X006450Y001816D02*
X007648Y001816D01*
X007649Y001813D02*
X006449Y001813D01*
X006448Y001811D02*
X007649Y001811D01*
X007650Y001809D02*
X006448Y001809D01*
X006447Y001806D02*
X007651Y001806D01*
X007652Y001804D02*
X006446Y001804D01*
X006445Y001801D02*
X007652Y001801D01*
X007653Y001799D02*
X006445Y001799D01*
X006444Y001796D02*
X007654Y001796D01*
X007654Y001794D02*
X006444Y001794D01*
X006444Y001792D02*
X007654Y001792D01*
X007654Y001789D02*
X006443Y001789D01*
X006443Y001787D02*
X007654Y001787D01*
X007655Y001784D02*
X006443Y001784D01*
X006443Y001782D02*
X007655Y001782D01*
X007655Y001779D02*
X006442Y001779D01*
X006442Y001777D02*
X007655Y001777D01*
X007656Y001774D02*
X006442Y001774D01*
X006442Y001772D02*
X007656Y001772D01*
X007656Y001770D02*
X006441Y001770D01*
X006441Y001767D02*
X007656Y001767D01*
X007657Y001765D02*
X006441Y001765D01*
X006441Y001762D02*
X007657Y001762D01*
X007657Y001760D02*
X006441Y001760D01*
X006440Y001757D02*
X007657Y001757D01*
X007658Y001755D02*
X006440Y001755D01*
X006440Y001753D02*
X007658Y001753D01*
X007658Y001750D02*
X006440Y001750D01*
X006439Y001748D02*
X007658Y001748D01*
X007659Y001745D02*
X006439Y001745D01*
X006439Y001743D02*
X007659Y001743D01*
X007659Y001740D02*
X006439Y001740D01*
X006439Y001738D02*
X007659Y001738D01*
X007659Y001735D02*
X006439Y001735D01*
X006439Y001733D02*
X007658Y001733D01*
X007658Y001731D02*
X006440Y001731D01*
X006440Y001728D02*
X007658Y001728D01*
X007658Y001726D02*
X006440Y001726D01*
X006440Y001723D02*
X007657Y001723D01*
X007657Y001721D02*
X006440Y001721D01*
X006441Y001718D02*
X007657Y001718D01*
X007657Y001716D02*
X006441Y001716D01*
X006441Y001714D02*
X007656Y001714D01*
X007656Y001711D02*
X006441Y001711D01*
X006442Y001709D02*
X007656Y001709D01*
X007656Y001706D02*
X006442Y001706D01*
X006442Y001704D02*
X007655Y001704D01*
X007655Y001701D02*
X006442Y001701D01*
X006443Y001699D02*
X007655Y001699D01*
X007655Y001696D02*
X006443Y001696D01*
X006443Y001694D02*
X007655Y001694D01*
X007654Y001692D02*
X006443Y001692D01*
X006444Y001689D02*
X007654Y001689D01*
X007654Y001687D02*
X006444Y001687D01*
X006444Y001684D02*
X007654Y001684D01*
X007653Y001682D02*
X006444Y001682D01*
X006445Y001679D02*
X007652Y001679D01*
X007652Y001677D02*
X006446Y001677D01*
X006447Y001675D02*
X007651Y001675D01*
X007650Y001672D02*
X006447Y001672D01*
X006448Y001670D02*
X007649Y001670D01*
X007649Y001667D02*
X006449Y001667D01*
X006450Y001665D02*
X007648Y001665D01*
X007647Y001662D02*
X006450Y001662D01*
X006451Y001660D02*
X007647Y001660D01*
X007646Y001657D02*
X006452Y001657D01*
X006453Y001655D02*
X007645Y001655D01*
X007644Y001653D02*
X006453Y001653D01*
X006454Y001650D02*
X007644Y001650D01*
X007643Y001648D02*
X006455Y001648D01*
X006456Y001645D02*
X007642Y001645D01*
X007641Y001643D02*
X006456Y001643D01*
X006457Y001640D02*
X007641Y001640D01*
X007640Y001638D02*
X006458Y001638D01*
X006459Y001636D02*
X007639Y001636D01*
X007638Y001633D02*
X006459Y001633D01*
X006460Y001631D02*
X007638Y001631D01*
X007637Y001628D02*
X006461Y001628D01*
X006462Y001626D02*
X007636Y001626D01*
X007635Y001623D02*
X006463Y001623D01*
X006464Y001621D02*
X007633Y001621D01*
X007632Y001618D02*
X006466Y001618D01*
X006467Y001616D02*
X007631Y001616D01*
X007629Y001614D02*
X006468Y001614D01*
X006470Y001611D02*
X007628Y001611D01*
X007627Y001609D02*
X006471Y001609D01*
X006472Y001606D02*
X007625Y001606D01*
X007624Y001604D02*
X006474Y001604D01*
X006475Y001601D02*
X007623Y001601D01*
X007622Y001599D02*
X006476Y001599D01*
X006477Y001597D02*
X007620Y001597D01*
X007619Y001594D02*
X006479Y001594D01*
X006480Y001592D02*
X007618Y001592D01*
X007616Y001589D02*
X006481Y001589D01*
X006483Y001587D02*
X007615Y001587D01*
X007614Y001584D02*
X006484Y001584D01*
X006485Y001582D02*
X007612Y001582D01*
X007611Y001579D02*
X006487Y001579D01*
X006488Y001577D02*
X007610Y001577D01*
X007608Y001575D02*
X006490Y001575D01*
X006492Y001572D02*
X007606Y001572D01*
X007604Y001570D02*
X006494Y001570D01*
X006496Y001567D02*
X007602Y001567D01*
X007600Y001565D02*
X006498Y001565D01*
X006500Y001562D02*
X007598Y001562D01*
X007596Y001560D02*
X006502Y001560D01*
X006504Y001558D02*
X007594Y001558D01*
X007592Y001555D02*
X006506Y001555D01*
X006508Y001553D02*
X007590Y001553D01*
X007588Y001550D02*
X006510Y001550D01*
X006512Y001548D02*
X007586Y001548D01*
X007584Y001545D02*
X006514Y001545D01*
X006516Y001543D02*
X007582Y001543D01*
X007580Y001540D02*
X006518Y001540D01*
X006520Y001538D02*
X007578Y001538D01*
X007576Y001536D02*
X006522Y001536D01*
X006524Y001533D02*
X007574Y001533D01*
X007572Y001531D02*
X006526Y001531D01*
X006529Y001528D02*
X007569Y001528D01*
X007566Y001526D02*
X006532Y001526D01*
X006535Y001523D02*
X007563Y001523D01*
X007560Y001521D02*
X006538Y001521D01*
X006541Y001519D02*
X007557Y001519D01*
X007554Y001516D02*
X006544Y001516D01*
X006547Y001514D02*
X007551Y001514D01*
X007548Y001511D02*
X006550Y001511D01*
X006553Y001509D02*
X007545Y001509D01*
X007542Y001506D02*
X006556Y001506D01*
X006558Y001504D02*
X007539Y001504D01*
X007536Y001501D02*
X006561Y001501D01*
X006564Y001499D02*
X007533Y001499D01*
X007530Y001497D02*
X006567Y001497D01*
X006571Y001494D02*
X007527Y001494D01*
X007522Y001492D02*
X006575Y001492D01*
X006580Y001489D02*
X007518Y001489D01*
X007513Y001487D02*
X006584Y001487D01*
X006589Y001484D02*
X007509Y001484D01*
X007504Y001482D02*
X006593Y001482D01*
X006598Y001480D02*
X007500Y001480D01*
X007495Y001477D02*
X006603Y001477D01*
X006607Y001475D02*
X007491Y001475D01*
X007486Y001472D02*
X006612Y001472D01*
X006616Y001470D02*
X007481Y001470D01*
X007477Y001467D02*
X007421Y001451D01*
X007364Y001445D01*
X006734Y001445D01*
X006676Y001451D01*
X006621Y001467D01*
X006629Y001465D02*
X007469Y001465D01*
X007461Y001462D02*
X006637Y001462D01*
X006645Y001460D02*
X007453Y001460D01*
X007445Y001458D02*
X006653Y001458D01*
X006661Y001455D02*
X007437Y001455D01*
X007429Y001453D02*
X006669Y001453D01*
X006679Y001450D02*
X007419Y001450D01*
X007394Y001448D02*
X006703Y001448D01*
X006728Y001445D02*
X007370Y001445D01*
X007608Y001906D02*
X006490Y001906D01*
X006488Y001904D02*
X006525Y001949D01*
X006570Y001986D01*
X006621Y002013D01*
X006676Y002030D01*
X006734Y002035D01*
X006732Y002035D02*
X007365Y002035D01*
X007390Y002033D02*
X006707Y002033D01*
X006683Y002030D02*
X007415Y002030D01*
X007427Y002028D02*
X006670Y002028D01*
X006662Y002025D02*
X007435Y002025D01*
X007443Y002023D02*
X006654Y002023D01*
X006646Y002021D02*
X007451Y002021D01*
X007459Y002018D02*
X006638Y002018D01*
X006630Y002016D02*
X007467Y002016D01*
X007476Y002013D02*
X006622Y002013D01*
X006617Y002011D02*
X007481Y002011D01*
X007485Y002008D02*
X006612Y002008D01*
X006608Y002006D02*
X007490Y002006D01*
X007494Y002004D02*
X006603Y002004D01*
X006599Y002001D02*
X007499Y002001D01*
X007503Y001999D02*
X006594Y001999D01*
X006590Y001996D02*
X007508Y001996D01*
X007513Y001994D02*
X006585Y001994D01*
X006581Y001991D02*
X007517Y001991D01*
X007522Y001989D02*
X006576Y001989D01*
X006571Y001986D02*
X007526Y001986D01*
X007530Y001984D02*
X006568Y001984D01*
X006565Y001982D02*
X007533Y001982D01*
X007536Y001979D02*
X006562Y001979D01*
X006559Y001977D02*
X007539Y001977D01*
X007542Y001974D02*
X006556Y001974D01*
X006553Y001972D02*
X007545Y001972D01*
X007548Y001969D02*
X006550Y001969D01*
X006547Y001967D02*
X007551Y001967D01*
X007554Y001965D02*
X006544Y001965D01*
X006541Y001962D02*
X007556Y001962D01*
X007559Y001960D02*
X006538Y001960D01*
X006535Y001957D02*
X007562Y001957D01*
X007565Y001955D02*
X006532Y001955D01*
X006529Y001952D02*
X007568Y001952D01*
X007571Y001950D02*
X006526Y001950D01*
X006524Y001948D02*
X007574Y001948D01*
X007576Y001945D02*
X006522Y001945D01*
X006520Y001943D02*
X007578Y001943D01*
X007580Y001940D02*
X006518Y001940D01*
X006516Y001938D02*
X007582Y001938D01*
X007584Y001935D02*
X006514Y001935D01*
X006512Y001933D02*
X007586Y001933D01*
X007588Y001930D02*
X006510Y001930D01*
X006508Y001928D02*
X007590Y001928D01*
X007592Y001926D02*
X006506Y001926D01*
X006504Y001923D02*
X007594Y001923D01*
X007596Y001921D02*
X006502Y001921D01*
X006500Y001918D02*
X007598Y001918D01*
X007600Y001916D02*
X006498Y001916D01*
X006496Y001913D02*
X007602Y001913D01*
X007604Y001911D02*
X006494Y001911D01*
X006492Y001909D02*
X007606Y001909D01*
D22*
X007049Y001740D03*
X007069Y006346D03*
D23*
X017443Y006724D03*
X017443Y003810D03*
D24*
X014954Y002417D03*
D25*
X026906Y002102D02*
X027506Y002102D01*
X027506Y003102D02*
X026906Y003102D01*
X026906Y004102D02*
X027506Y004102D01*
X027506Y005102D02*
X026906Y005102D01*
X026906Y006102D02*
X027506Y006102D01*
D26*
X025198Y006016D02*
X025019Y005931D01*
X025041Y005931D01*
X025041Y005992D01*
X025019Y005931D02*
X024186Y005931D01*
X024117Y005441D02*
X025198Y005441D01*
X025198Y005323D01*
X025297Y005323D01*
X025157Y004892D02*
X025927Y004122D01*
X026946Y003102D01*
X027206Y003102D01*
X027120Y002102D02*
X026183Y003039D01*
X026183Y003197D01*
X025769Y003610D01*
X025828Y003669D01*
X025769Y003610D02*
X025448Y003931D01*
X024186Y003931D01*
X025927Y004122D02*
X026380Y004575D01*
X024186Y004931D02*
X024110Y004929D01*
X020226Y004931D02*
X019842Y004931D01*
X019687Y005087D01*
X019529Y005087D01*
X019618Y005431D02*
X019529Y005520D01*
X019578Y005510D01*
X019608Y005510D01*
X019608Y006307D01*
X019608Y006386D01*
X019529Y006425D01*
X019017Y006937D01*
X017403Y006937D01*
X017443Y006898D01*
X017443Y006724D01*
X017403Y006937D02*
X016301Y006937D01*
X012836Y006937D01*
X008624Y006937D01*
X008624Y006110D01*
X008624Y005874D01*
X008801Y005421D02*
X007994Y005421D01*
X008801Y005421D02*
X009175Y005047D01*
X009135Y004693D02*
X009470Y004358D01*
X009214Y003236D02*
X009214Y002685D01*
X009194Y002665D01*
X010454Y002665D01*
X010946Y002173D01*
X010946Y001701D01*
X011376Y001248D01*
X017714Y001248D01*
X018309Y001858D01*
X018309Y002646D01*
X018506Y002842D01*
X018820Y002764D01*
X018781Y002803D01*
X018820Y002764D02*
X018811Y002715D01*
X019450Y002715D01*
X019667Y002931D01*
X020226Y002931D01*
X020226Y003431D02*
X019502Y003431D01*
X019450Y003482D01*
X018594Y004171D02*
X018289Y003866D01*
X018289Y003492D01*
X018269Y003945D02*
X017836Y004378D01*
X016852Y004378D01*
X016675Y004201D01*
X015887Y004201D01*
X015828Y004201D01*
X015887Y004201D02*
X015710Y004024D01*
X014844Y004024D01*
X014765Y004102D01*
X014726Y004063D02*
X014135Y004063D01*
X013860Y003787D01*
X013860Y002961D01*
X011734Y002016D02*
X011537Y002016D01*
X011734Y002016D02*
X011734Y001634D01*
X009194Y002665D02*
X008643Y002665D01*
X007994Y002665D01*
X018594Y004171D02*
X018781Y004171D01*
X019450Y004171D01*
X019691Y003931D01*
X020226Y003931D01*
X020226Y004431D02*
X019870Y004431D01*
X019647Y004654D01*
X019529Y004654D01*
X019618Y005431D02*
X020226Y005431D01*
X019578Y005510D02*
X019480Y005510D01*
X019411Y005520D01*
X019608Y006307D02*
X019732Y006431D01*
X020226Y006431D01*
X020513Y006583D02*
X020553Y006543D01*
X020553Y006740D01*
X020513Y006583D02*
X019726Y006583D01*
X023860Y006583D02*
X023939Y006661D01*
X024726Y006661D01*
X024693Y006431D02*
X024962Y006701D01*
X025080Y006779D01*
X025198Y006803D01*
X026025Y006803D01*
X024693Y006431D02*
X024186Y006431D01*
X023860Y006583D02*
X023860Y006811D01*
X023978Y006890D01*
X024186Y002431D02*
X025059Y002431D01*
X025098Y002470D01*
X025198Y002370D01*
X025238Y002370D01*
X025277Y002331D01*
X024850Y001931D02*
X024186Y001931D01*
X023899Y001740D02*
X023860Y001779D01*
X023860Y001622D01*
X023978Y001504D01*
X024569Y001504D02*
X024608Y001543D01*
X024608Y001779D01*
X024844Y001740D02*
X023899Y001740D01*
X024850Y001931D02*
X025198Y001583D01*
X025986Y001583D01*
X027120Y002102D02*
X027206Y002102D01*
X019500Y001986D02*
X018820Y001976D01*
X019450Y002026D02*
X019500Y001986D01*
D27*
X019450Y001425D03*
X019017Y001425D03*
X018545Y001425D03*
X019883Y001425D03*
X020317Y001425D03*
X023978Y001504D03*
X024411Y001504D03*
X026852Y001335D03*
X027285Y001335D03*
X027718Y001335D03*
X028072Y001846D03*
X028072Y002279D03*
X028072Y002713D03*
X028072Y003146D03*
X028072Y003579D03*
X028072Y004012D03*
X028072Y004445D03*
X028072Y004878D03*
X028072Y005311D03*
X028072Y005744D03*
X028072Y006177D03*
X028033Y006610D03*
X027718Y006886D03*
X027285Y006886D03*
X026852Y006886D03*
X024411Y006886D03*
X023978Y006890D03*
X025041Y005992D03*
X020395Y006858D03*
X019962Y006858D03*
X019529Y006858D03*
X019096Y006858D03*
X018663Y006858D03*
X018230Y006858D03*
X017797Y006858D03*
X017049Y006858D03*
X016616Y006858D03*
X016183Y006858D03*
X014411Y006465D03*
X013978Y006543D03*
X013348Y006583D03*
X011970Y006819D03*
X011419Y006543D03*
X010356Y006819D03*
X009805Y006819D03*
X009254Y006819D03*
X006340Y005795D03*
X007049Y005638D03*
X006340Y005362D03*
X006340Y004929D03*
X006340Y004496D03*
X007049Y004299D03*
X006340Y004063D03*
X007049Y003787D03*
X006340Y003630D03*
X006340Y003197D03*
X006340Y002764D03*
X007049Y002449D03*
X006340Y002331D03*
X007954Y002094D03*
X009293Y002173D03*
X010277Y002173D03*
X011498Y002646D03*
X013230Y002921D03*
X013860Y002961D03*
X012679Y003157D03*
X014450Y003630D03*
X015868Y003315D03*
X016813Y003394D03*
X016065Y003709D03*
X017049Y003748D03*
X017817Y003551D03*
X018269Y003472D03*
X019450Y003472D03*
X016588Y002453D03*
X015356Y002370D03*
X013584Y001701D03*
X014490Y001661D03*
X012403Y001661D03*
X011734Y001634D03*
X010277Y001425D03*
X009293Y001425D03*
X008584Y003157D03*
X009214Y003236D03*
X012521Y003827D03*
X012521Y004220D03*
X012521Y004614D03*
X013899Y004890D03*
X014450Y004457D03*
X014765Y004102D03*
X017167Y005047D03*
X017561Y005047D03*
X017954Y005047D03*
X019529Y005087D03*
X019529Y005520D03*
X019096Y005520D03*
X017954Y005520D03*
X017561Y005520D03*
X017167Y005520D03*
X017167Y005992D03*
X017561Y005992D03*
X017954Y005992D03*
X019096Y005992D03*
X019529Y005992D03*
X019529Y006425D03*
X019096Y006425D03*
X019529Y004654D03*
X024962Y004417D03*
X026380Y004575D03*
X025828Y003669D03*
X025002Y003342D03*
X025002Y002921D03*
X025277Y002331D03*
X011694Y005677D03*
X009175Y005047D03*
X009175Y004654D03*
D28*
X006084Y001689D02*
X006140Y001517D01*
X006246Y001371D01*
X006393Y001264D01*
X006565Y001208D01*
X006655Y001201D01*
X011092Y001201D01*
X010776Y001535D01*
X010708Y001602D01*
X010708Y001606D01*
X010706Y001609D01*
X010708Y001704D01*
X010708Y002075D01*
X010356Y002427D01*
X008763Y002427D01*
X008763Y002411D01*
X008682Y002329D01*
X008156Y002329D01*
X008191Y002293D01*
X008627Y002293D01*
X008640Y002280D01*
X008996Y002280D01*
X009078Y002199D01*
X009078Y001833D01*
X008996Y001751D01*
X008251Y001751D01*
X008169Y001833D01*
X008169Y001873D01*
X008129Y001833D01*
X008016Y001786D01*
X007893Y001786D01*
X007793Y001828D01*
X007793Y001826D01*
X007805Y001785D01*
X007806Y001785D01*
X007806Y001784D01*
X007806Y001783D01*
X007806Y001782D01*
X007801Y001740D01*
X007806Y001698D01*
X007806Y001698D01*
X007806Y001697D01*
X007806Y001696D01*
X007805Y001695D01*
X007793Y001655D01*
X007789Y001613D01*
X007789Y001612D01*
X007789Y001611D01*
X007789Y001610D01*
X007788Y001610D01*
X007768Y001573D01*
X007756Y001533D01*
X007756Y001532D01*
X007755Y001531D01*
X007755Y001530D01*
X007754Y001529D01*
X007728Y001497D01*
X007708Y001460D01*
X007708Y001459D01*
X007707Y001458D01*
X007707Y001457D01*
X007706Y001457D01*
X007673Y001431D01*
X007647Y001398D01*
X007646Y001397D01*
X007646Y001397D01*
X007645Y001396D01*
X007644Y001396D01*
X007607Y001376D01*
X007575Y001350D01*
X007574Y001349D01*
X007573Y001348D01*
X007572Y001348D01*
X007571Y001348D01*
X007531Y001336D01*
X007494Y001316D01*
X007494Y001315D01*
X007493Y001315D01*
X007492Y001315D01*
X007491Y001315D01*
X007449Y001311D01*
X007406Y001298D01*
X007396Y001303D01*
X007371Y001303D01*
X007319Y001298D01*
X007313Y001303D01*
X006785Y001303D01*
X006778Y001298D01*
X006727Y001303D01*
X006701Y001303D01*
X006691Y001298D01*
X006648Y001311D01*
X006607Y001315D01*
X006606Y001315D01*
X006605Y001315D01*
X006604Y001315D01*
X006603Y001316D01*
X006566Y001336D01*
X006526Y001348D01*
X006525Y001348D01*
X006525Y001348D01*
X006524Y001349D01*
X006523Y001350D01*
X006491Y001376D01*
X006454Y001396D01*
X006453Y001396D01*
X006452Y001397D01*
X006451Y001397D01*
X006451Y001398D01*
X006424Y001431D01*
X006392Y001457D01*
X006391Y001457D01*
X006391Y001458D01*
X006390Y001459D01*
X006390Y001460D01*
X006370Y001497D01*
X006343Y001529D01*
X006342Y001530D01*
X006342Y001531D01*
X006342Y001532D01*
X006342Y001533D01*
X006329Y001573D01*
X006310Y001610D01*
X006309Y001610D01*
X006309Y001611D01*
X006308Y001612D01*
X006309Y001613D01*
X006305Y001655D01*
X006292Y001695D01*
X006292Y001696D01*
X006292Y001697D01*
X006292Y001698D01*
X006292Y001698D01*
X006296Y001740D01*
X006292Y001782D01*
X006292Y001783D01*
X006292Y001784D01*
X006292Y001785D01*
X006292Y001785D01*
X006305Y001826D01*
X006309Y001867D01*
X006308Y001868D01*
X006309Y001869D01*
X006309Y001870D01*
X006310Y001871D01*
X006329Y001908D01*
X006342Y001948D01*
X006342Y001949D01*
X006342Y001949D01*
X006342Y001950D01*
X006343Y001951D01*
X006370Y001983D01*
X006390Y002020D01*
X006390Y002021D01*
X006391Y002022D01*
X006391Y002023D01*
X006392Y002023D01*
X006424Y002050D01*
X006451Y002082D01*
X006451Y002083D01*
X006452Y002083D01*
X006453Y002084D01*
X006454Y002084D01*
X006491Y002104D01*
X006523Y002131D01*
X006524Y002132D01*
X006525Y002132D01*
X006525Y002132D01*
X006526Y002132D01*
X006566Y002145D01*
X006603Y002164D01*
X006604Y002165D01*
X006605Y002165D01*
X006606Y002166D01*
X006607Y002165D01*
X006648Y002169D01*
X006691Y002182D01*
X006701Y002177D01*
X006727Y002177D01*
X006778Y002182D01*
X006785Y002177D01*
X007313Y002177D01*
X007319Y002182D01*
X007371Y002177D01*
X007396Y002177D01*
X007406Y002182D01*
X007449Y002169D01*
X007491Y002165D01*
X007492Y002166D01*
X007493Y002165D01*
X007494Y002165D01*
X007494Y002164D01*
X007531Y002145D01*
X007571Y002132D01*
X007572Y002132D01*
X007573Y002132D01*
X007574Y002132D01*
X007575Y002131D01*
X007607Y002104D01*
X007644Y002084D01*
X007645Y002084D01*
X007646Y002083D01*
X007646Y002083D01*
X007646Y002156D01*
X007693Y002269D01*
X007753Y002329D01*
X007306Y002329D01*
X007224Y002411D01*
X007224Y002732D01*
X007177Y002712D01*
X007000Y002712D01*
X006836Y002780D01*
X006711Y002905D01*
X006643Y003069D01*
X006643Y003246D01*
X006711Y003410D01*
X006836Y003535D01*
X007000Y003603D01*
X007177Y003603D01*
X007224Y003583D01*
X007224Y003904D01*
X007306Y003986D01*
X008682Y003986D01*
X008763Y003904D01*
X008763Y003848D01*
X009148Y003848D01*
X008763Y004233D01*
X008763Y004182D01*
X008682Y004100D01*
X007306Y004100D01*
X007224Y004182D01*
X007224Y004503D01*
X007177Y004484D01*
X007000Y004484D01*
X006836Y004552D01*
X006711Y004677D01*
X006643Y004841D01*
X006643Y005018D01*
X006711Y005181D01*
X006836Y005307D01*
X006077Y005307D01*
X006077Y005190D02*
X006719Y005190D01*
X006666Y005073D02*
X006077Y005073D01*
X006077Y004957D02*
X006643Y004957D01*
X006643Y004840D02*
X006077Y004840D01*
X006077Y004724D02*
X006691Y004724D01*
X006781Y004607D02*
X006077Y004607D01*
X006077Y004490D02*
X006984Y004490D01*
X007193Y004490D02*
X007224Y004490D01*
X007224Y004374D02*
X006077Y004374D01*
X006077Y004257D02*
X007224Y004257D01*
X007266Y004141D02*
X006077Y004141D01*
X006077Y004024D02*
X008972Y004024D01*
X008855Y004141D02*
X008722Y004141D01*
X008760Y003907D02*
X009089Y003907D01*
X009647Y003911D02*
X009647Y004201D01*
X009358Y004201D01*
X008923Y004636D01*
X008763Y004636D01*
X008763Y004692D01*
X008682Y004774D01*
X007506Y004774D01*
X007533Y004841D01*
X007533Y005018D01*
X007514Y005065D01*
X007954Y005065D01*
X007954Y005382D01*
X007205Y005382D01*
X007205Y005363D01*
X007177Y005374D01*
X007000Y005374D01*
X006836Y005307D01*
X007205Y005461D02*
X007954Y005461D01*
X007954Y005777D01*
X007343Y005777D01*
X007302Y005766D01*
X007266Y005745D01*
X007237Y005716D01*
X007216Y005679D01*
X007205Y005639D01*
X007205Y005461D01*
X007205Y005540D02*
X006077Y005540D01*
X006077Y005657D02*
X007209Y005657D01*
X007328Y005773D02*
X006077Y005773D01*
X006077Y005890D02*
X008180Y005890D01*
X008181Y005888D02*
X008211Y005858D01*
X008247Y005837D01*
X008288Y005826D01*
X008620Y005826D01*
X008620Y006107D01*
X008150Y006107D01*
X008150Y005964D01*
X008160Y005924D01*
X008181Y005888D01*
X008150Y006006D02*
X007648Y006006D01*
X007647Y006005D02*
X007673Y006037D01*
X007706Y006064D01*
X007707Y006064D01*
X007707Y006065D01*
X007708Y006065D01*
X007708Y006066D01*
X007728Y006103D01*
X007754Y006136D01*
X007755Y006136D01*
X007755Y006137D01*
X007756Y006138D01*
X007756Y006139D01*
X007768Y006179D01*
X007788Y006216D01*
X007789Y006217D01*
X007789Y006218D02*
X007789Y006218D01*
X007789Y006219D01*
X007793Y006261D01*
X007805Y006301D01*
X007806Y006302D01*
X007806Y006303D01*
X007806Y006304D01*
X007806Y006305D01*
X007801Y006346D01*
X007806Y006388D01*
X007806Y006389D01*
X007806Y006390D01*
X007806Y006391D01*
X007805Y006392D01*
X007793Y006432D01*
X007789Y006473D01*
X011115Y006473D01*
X011111Y006482D02*
X011158Y006369D01*
X011158Y006369D01*
X011082Y006293D01*
X011082Y005927D01*
X011164Y005845D01*
X011910Y005845D01*
X011976Y005911D01*
X012136Y005911D01*
X012210Y005905D01*
X012217Y005911D01*
X012226Y005911D01*
X012229Y005914D01*
X012282Y005860D01*
X012162Y005740D01*
X012023Y005601D01*
X011884Y005462D01*
X011744Y005323D01*
X011605Y005184D01*
X011492Y005071D01*
X011366Y004944D01*
X011349Y004940D01*
X011313Y004919D01*
X011263Y004869D01*
X011263Y004870D01*
X010946Y004870D01*
X010946Y004949D01*
X010868Y004949D01*
X010868Y005285D01*
X010689Y005285D01*
X010649Y005274D01*
X010613Y005253D01*
X010583Y005224D01*
X010562Y005187D01*
X010551Y005148D01*
X010532Y005167D01*
X010101Y005167D01*
X010043Y005109D01*
X010043Y005164D01*
X009961Y005246D01*
X009412Y005246D01*
X009330Y005164D01*
X009330Y004655D01*
X009403Y004582D01*
X009372Y004564D01*
X009343Y004535D01*
X009322Y004498D01*
X009311Y004458D01*
X009311Y004279D01*
X009647Y004279D01*
X009647Y004201D01*
X009726Y004201D01*
X009726Y003884D01*
X009924Y003884D01*
X009965Y003895D01*
X010001Y003916D01*
X010030Y003946D01*
X010051Y003982D01*
X010062Y004021D01*
X010101Y003982D01*
X010532Y003982D01*
X010570Y004021D01*
X010570Y003966D01*
X010652Y003884D01*
X011162Y003884D01*
X011244Y003966D01*
X011244Y004159D01*
X011396Y004159D01*
X011598Y003957D01*
X011548Y003957D01*
X011048Y003457D01*
X011048Y003342D01*
X011214Y003176D01*
X011353Y003037D01*
X011436Y002954D01*
X011323Y002907D01*
X011263Y002847D01*
X010753Y003356D01*
X010202Y003356D01*
X009647Y003911D01*
X009651Y003907D02*
X009726Y003907D01*
X009726Y004024D02*
X009647Y004024D01*
X009647Y004141D02*
X009726Y004141D01*
X009687Y004240D02*
X009470Y004358D01*
X009311Y004374D02*
X009185Y004374D01*
X009068Y004490D02*
X009320Y004490D01*
X009378Y004607D02*
X008951Y004607D01*
X009135Y004693D02*
X009096Y005008D01*
X009175Y005047D01*
X009330Y005073D02*
X008675Y005073D01*
X008685Y005076D02*
X008721Y005097D01*
X008751Y005127D01*
X008772Y005163D01*
X008783Y005203D01*
X008783Y005382D01*
X008033Y005382D01*
X008033Y005461D01*
X007954Y005461D01*
X007954Y005382D01*
X008033Y005382D01*
X008033Y005065D01*
X008645Y005065D01*
X008685Y005076D01*
X008779Y005190D02*
X009356Y005190D01*
X008783Y005307D02*
X011728Y005307D01*
X011612Y005190D02*
X011251Y005190D01*
X011252Y005187D02*
X011231Y005224D01*
X011202Y005253D01*
X011165Y005274D01*
X011125Y005285D01*
X010946Y005285D01*
X010946Y004949D01*
X011263Y004949D01*
X011263Y005147D01*
X011252Y005187D01*
X011263Y005073D02*
X011495Y005073D01*
X011492Y005071D02*
X011492Y005071D01*
X011378Y004957D02*
X011263Y004957D01*
X011072Y005047D02*
X011578Y004541D01*
X011898Y004220D01*
X012521Y004220D01*
X012220Y004568D02*
X012081Y004429D01*
X012081Y004429D01*
X011981Y004329D01*
X011977Y004313D01*
X011956Y004276D01*
X011901Y004221D01*
X012411Y003711D01*
X013391Y003711D01*
X013507Y003594D01*
X013622Y003480D01*
X013622Y003886D01*
X013761Y004026D01*
X014037Y004301D01*
X014528Y004301D01*
X014591Y004364D01*
X014704Y004411D01*
X014712Y004411D01*
X014694Y004429D01*
X014694Y004429D01*
X014567Y004555D01*
X014551Y004560D01*
X014515Y004581D01*
X014458Y004637D01*
X014528Y004707D01*
X014528Y004707D01*
X014528Y004707D01*
X014458Y004637D01*
X014429Y004666D01*
X014256Y004492D01*
X014139Y004376D01*
X013659Y004376D01*
X013463Y004573D01*
X013346Y004689D01*
X013346Y005319D01*
X013189Y005477D01*
X013189Y005536D01*
X013056Y005403D01*
X012943Y005290D01*
X012943Y005290D01*
X012777Y005125D01*
X012638Y004986D01*
X012499Y004847D01*
X012360Y004707D01*
X012220Y004568D01*
X012259Y004607D02*
X013428Y004607D01*
X013545Y004490D02*
X012143Y004490D01*
X012026Y004374D02*
X014615Y004374D01*
X014632Y004490D02*
X014254Y004490D01*
X014370Y004607D02*
X014488Y004607D01*
X014490Y004669D02*
X014490Y004496D01*
X014450Y004457D01*
X014490Y004669D02*
X014779Y004959D01*
X015340Y005519D01*
X015340Y005582D01*
X015326Y005540D02*
X015243Y005540D01*
X015284Y005582D02*
X015340Y005526D01*
X015116Y005302D01*
X015256Y005162D01*
X015293Y005141D01*
X015333Y005130D01*
X015375Y005130D01*
X015415Y005141D01*
X015452Y005162D01*
X015578Y005288D01*
X015340Y005526D01*
X015396Y005582D01*
X015633Y005344D01*
X015700Y005411D01*
X015848Y005263D01*
X016141Y005556D01*
X016225Y005473D01*
X016308Y005556D01*
X016560Y005305D01*
X016756Y005500D01*
X016777Y005537D01*
X016788Y005577D01*
X016788Y005619D01*
X016777Y005659D01*
X016756Y005696D01*
X016602Y005850D01*
X016308Y005556D01*
X016225Y005640D01*
X016518Y005933D01*
X016364Y006087D01*
X016328Y006108D01*
X016288Y006119D01*
X016246Y006119D01*
X016211Y006110D01*
X016211Y006213D01*
X015768Y006656D01*
X015652Y006656D01*
X015529Y006533D01*
X015517Y006545D01*
X015076Y006545D01*
X014964Y006434D01*
X014911Y006487D01*
X014795Y006487D01*
X014719Y006411D01*
X014719Y006526D01*
X014672Y006639D01*
X014586Y006726D01*
X014472Y006773D01*
X014350Y006773D01*
X014236Y006726D01*
X014234Y006723D01*
X014153Y006805D01*
X014039Y006851D01*
X013917Y006851D01*
X013803Y006805D01*
X013717Y006718D01*
X013670Y006605D01*
X013670Y006542D01*
X013656Y006556D01*
X013656Y006644D01*
X013609Y006757D01*
X013523Y006844D01*
X013409Y006891D01*
X013287Y006891D01*
X013249Y006875D01*
X013249Y006875D01*
X013122Y007002D01*
X012885Y006764D01*
X012829Y006820D01*
X012773Y006764D01*
X012550Y006988D01*
X012409Y006848D01*
X012389Y006811D01*
X012378Y006771D01*
X012378Y006729D01*
X012379Y006723D01*
X012312Y006723D01*
X011937Y006348D01*
X011910Y006375D01*
X011736Y006375D01*
X011736Y006508D01*
X011727Y006516D01*
X011727Y006605D01*
X011680Y006718D01*
X011593Y006805D01*
X011480Y006851D01*
X011358Y006851D01*
X011244Y006805D01*
X011158Y006718D01*
X011111Y006605D01*
X011111Y006482D01*
X011111Y006589D02*
X007728Y006589D01*
X007728Y006590D02*
X007708Y006627D01*
X007708Y006628D01*
X007707Y006628D01*
X007707Y006629D01*
X007706Y006629D01*
X007673Y006656D01*
X007647Y006688D01*
X007646Y006689D01*
X007646Y006690D01*
X007645Y006691D01*
X007644Y006691D01*
X007607Y006710D01*
X007575Y006737D01*
X007574Y006738D01*
X007573Y006738D01*
X007572Y006739D01*
X007571Y006739D01*
X007531Y006751D01*
X007494Y006771D01*
X007493Y006771D01*
X007492Y006772D01*
X007491Y006772D01*
X007449Y006776D01*
X007406Y006789D01*
X007396Y006783D01*
X007371Y006783D01*
X007319Y006789D01*
X007313Y006783D01*
X006785Y006783D01*
X006778Y006789D01*
X006727Y006783D01*
X006701Y006783D01*
X006691Y006789D01*
X006648Y006776D01*
X006607Y006772D01*
X006606Y006772D01*
X006605Y006771D01*
X006604Y006771D01*
X006603Y006771D01*
X006566Y006751D01*
X006526Y006739D01*
X006525Y006739D01*
X006525Y006738D01*
X006524Y006738D01*
X006523Y006737D01*
X006491Y006710D01*
X006454Y006691D01*
X006453Y006691D01*
X006452Y006690D01*
X006451Y006689D01*
X006451Y006688D01*
X006424Y006656D01*
X006392Y006629D01*
X006391Y006629D01*
X006391Y006628D01*
X006390Y006628D01*
X006390Y006627D01*
X006370Y006590D01*
X006343Y006557D01*
X006342Y006557D01*
X006342Y006556D01*
X006342Y006555D01*
X006342Y006554D01*
X006329Y006514D01*
X006310Y006477D01*
X006309Y006476D01*
X006309Y006475D01*
X006308Y006474D01*
X006309Y006473D01*
X006081Y006473D01*
X006084Y006516D02*
X006077Y006425D01*
X006077Y001779D01*
X006084Y001689D01*
X006084Y001692D02*
X006293Y001692D01*
X006299Y001808D02*
X006077Y001808D01*
X006077Y001925D02*
X006335Y001925D01*
X006415Y002042D02*
X006077Y002042D01*
X006077Y002158D02*
X006592Y002158D01*
X006077Y002275D02*
X007699Y002275D01*
X007647Y002158D02*
X007506Y002158D01*
X007243Y002391D02*
X006077Y002391D01*
X006077Y002508D02*
X007224Y002508D01*
X007224Y002625D02*
X006077Y002625D01*
X006077Y002741D02*
X006929Y002741D01*
X006758Y002858D02*
X006077Y002858D01*
X006077Y002974D02*
X006682Y002974D01*
X006643Y003091D02*
X006077Y003091D01*
X006077Y003208D02*
X006643Y003208D01*
X006675Y003324D02*
X006077Y003324D01*
X006077Y003441D02*
X006742Y003441D01*
X006890Y003558D02*
X006077Y003558D01*
X006077Y003674D02*
X007224Y003674D01*
X007224Y003791D02*
X006077Y003791D01*
X006077Y003907D02*
X007227Y003907D01*
X007994Y003650D02*
X009273Y003650D01*
X010002Y002921D01*
X010553Y002921D01*
X011143Y002331D01*
X012151Y002331D01*
X012413Y002592D01*
X012552Y002453D02*
X012836Y002737D01*
X012836Y003000D01*
X012679Y003157D01*
X012987Y003130D02*
X013035Y003082D01*
X013035Y002655D01*
X013000Y002620D01*
X013043Y002578D01*
X013059Y002573D01*
X013095Y002553D01*
X013150Y002497D01*
X013552Y002899D01*
X013552Y002899D01*
X013552Y002988D01*
X013226Y003313D01*
X012948Y003313D01*
X012987Y003219D01*
X012987Y003130D01*
X013026Y003091D02*
X013448Y003091D01*
X013552Y002974D02*
X013035Y002974D01*
X013035Y002858D02*
X013511Y002858D01*
X013230Y002921D02*
X013112Y002803D01*
X013112Y002456D01*
X012831Y002175D01*
X012691Y002314D02*
X012443Y002065D01*
X012443Y001819D01*
X012403Y001661D01*
X012970Y002036D02*
X013860Y002926D01*
X013860Y002961D01*
X013309Y003512D01*
X012329Y003512D01*
X011439Y004402D01*
X011439Y004398D01*
X011773Y004063D01*
X011981Y004141D02*
X013876Y004141D01*
X013993Y004257D02*
X011937Y004257D01*
X012098Y004024D02*
X013760Y004024D01*
X013643Y003907D02*
X012214Y003907D01*
X012331Y003791D02*
X013622Y003791D01*
X013622Y003674D02*
X013427Y003674D01*
X013544Y003558D02*
X013622Y003558D01*
X014098Y003558D02*
X014712Y003558D01*
X014694Y003539D02*
X014694Y003539D01*
X014794Y003640D01*
X014798Y003656D01*
X014819Y003692D01*
X014876Y003749D01*
X014946Y003679D01*
X014946Y003679D01*
X014946Y003679D01*
X014876Y003749D01*
X014876Y003749D01*
X014840Y003785D01*
X014745Y003785D01*
X014737Y003794D01*
X014704Y003794D01*
X014630Y003825D01*
X014234Y003825D01*
X014098Y003689D01*
X014098Y003158D01*
X014121Y003135D01*
X014168Y003022D01*
X014168Y003014D01*
X014276Y003122D01*
X014415Y003261D01*
X014415Y003261D01*
X014554Y003400D01*
X014554Y003400D01*
X014694Y003539D01*
X014595Y003441D02*
X014098Y003441D01*
X014098Y003324D02*
X014479Y003324D01*
X014362Y003208D02*
X014098Y003208D01*
X014139Y003091D02*
X014245Y003091D01*
X014779Y003010D02*
X015419Y002370D01*
X015356Y002370D01*
X014954Y002417D02*
X014823Y002409D01*
X014501Y002731D01*
X014362Y002592D02*
X014899Y002055D01*
X015513Y002055D01*
X015946Y002488D01*
X016104Y002488D01*
X016458Y002842D01*
X016458Y003827D01*
X016576Y003945D01*
X016773Y003945D01*
X016931Y004102D01*
X017364Y004102D01*
X017443Y004024D01*
X017443Y003810D01*
X017702Y003551D01*
X017817Y003551D01*
X018269Y003472D02*
X018289Y003492D01*
X018269Y003472D02*
X018309Y003354D01*
X018072Y003118D01*
X017935Y003118D01*
X017935Y002606D01*
X017994Y002665D01*
X017994Y002567D01*
X017521Y002094D01*
X016911Y002094D01*
X016911Y001583D01*
X016320Y001583D02*
X016301Y001681D01*
X015691Y001681D01*
X015021Y001681D02*
X014923Y001701D01*
X014608Y002016D01*
X014382Y002016D01*
X014083Y002314D01*
X013278Y002625D02*
X013005Y002625D01*
X013035Y002741D02*
X013394Y002741D01*
X013161Y002508D02*
X013140Y002508D01*
X012701Y002314D02*
X012691Y002314D01*
X011498Y002646D02*
X011183Y002646D01*
X010671Y003157D01*
X010120Y003157D01*
X008840Y004437D01*
X007994Y004437D01*
X008731Y004724D02*
X009330Y004724D01*
X009330Y004840D02*
X007533Y004840D01*
X007533Y004957D02*
X009330Y004957D01*
X009687Y004909D02*
X010198Y004909D01*
X010317Y004870D01*
X010868Y004957D02*
X010946Y004957D01*
X010946Y005073D02*
X010868Y005073D01*
X010868Y005190D02*
X010946Y005190D01*
X010564Y005190D02*
X010017Y005190D01*
X008783Y005461D02*
X008783Y005639D01*
X008772Y005679D01*
X008751Y005716D01*
X008721Y005745D01*
X008685Y005766D01*
X008645Y005777D01*
X008033Y005777D01*
X008033Y005461D01*
X008783Y005461D01*
X008783Y005540D02*
X011962Y005540D01*
X012078Y005657D02*
X008778Y005657D01*
X008660Y005773D02*
X012195Y005773D01*
X012253Y005890D02*
X011954Y005890D01*
X012144Y006110D02*
X011537Y006110D01*
X011537Y006425D01*
X011419Y006543D01*
X011727Y006589D02*
X012179Y006589D01*
X012295Y006706D02*
X011685Y006706D01*
X011550Y006823D02*
X012395Y006823D01*
X012715Y006823D02*
X012826Y006823D01*
X012829Y006820D02*
X012645Y007004D01*
X006655Y007004D01*
X006565Y006996D01*
X006393Y006940D01*
X006246Y006834D01*
X006140Y006688D01*
X006084Y006516D01*
X006108Y006589D02*
X006370Y006589D01*
X006483Y006706D02*
X006153Y006706D01*
X006238Y006823D02*
X011288Y006823D01*
X011153Y006706D02*
X007615Y006706D01*
X007494Y006771D02*
X007494Y006771D01*
X007728Y006590D02*
X007754Y006557D01*
X007755Y006557D01*
X007755Y006556D01*
X007756Y006555D01*
X007756Y006554D01*
X007768Y006514D01*
X007788Y006477D01*
X007789Y006476D01*
X007789Y006475D01*
X007789Y006474D01*
X007789Y006473D01*
X007802Y006356D02*
X008205Y006356D01*
X008211Y006362D02*
X008181Y006333D01*
X008160Y006297D01*
X008150Y006256D01*
X008150Y006114D01*
X008620Y006114D01*
X008620Y006394D01*
X008288Y006394D01*
X008247Y006383D01*
X008211Y006362D01*
X008150Y006240D02*
X007791Y006240D01*
X007789Y006218D02*
X007789Y006217D01*
X007744Y006123D02*
X008150Y006123D01*
X007647Y006005D02*
X007646Y006004D01*
X007646Y006003D01*
X007645Y006002D01*
X007644Y006002D01*
X007607Y005982D01*
X007575Y005956D01*
X007574Y005955D01*
X007573Y005955D01*
X007572Y005954D01*
X007571Y005954D01*
X007531Y005942D01*
X007494Y005922D01*
X007494Y005922D01*
X007493Y005921D01*
X007492Y005921D01*
X007491Y005921D01*
X007449Y005917D01*
X007406Y005904D01*
X007396Y005909D01*
X007371Y005909D01*
X007319Y005904D01*
X007313Y005909D01*
X006785Y005909D01*
X006778Y005904D01*
X006727Y005909D01*
X006701Y005909D01*
X006691Y005904D01*
X006648Y005917D01*
X006607Y005921D01*
X006606Y005921D01*
X006605Y005921D01*
X006604Y005922D01*
X006603Y005922D01*
X006566Y005942D01*
X006526Y005954D01*
X006525Y005954D01*
X006525Y005955D01*
X006524Y005955D01*
X006523Y005956D01*
X006491Y005982D01*
X006454Y006002D01*
X006453Y006002D01*
X006452Y006003D01*
X006451Y006004D01*
X006451Y006005D01*
X006424Y006037D01*
X006392Y006064D01*
X006391Y006064D01*
X006391Y006065D01*
X006390Y006065D01*
X006390Y006066D01*
X006370Y006103D01*
X006343Y006136D01*
X006342Y006136D01*
X006342Y006137D01*
X006342Y006138D01*
X006342Y006139D01*
X006329Y006179D01*
X006310Y006216D01*
X006309Y006217D01*
X006309Y006218D01*
X006308Y006218D01*
X006309Y006219D01*
X006305Y006261D01*
X006292Y006301D01*
X006292Y006302D01*
X006292Y006303D01*
X006292Y006304D01*
X006292Y006305D01*
X006296Y006346D01*
X006292Y006388D01*
X006292Y006389D01*
X006292Y006390D01*
X006292Y006391D01*
X006292Y006392D01*
X006305Y006432D01*
X006309Y006473D01*
X006295Y006356D02*
X006077Y006356D01*
X006077Y006240D02*
X006307Y006240D01*
X006354Y006123D02*
X006077Y006123D01*
X006077Y006006D02*
X006449Y006006D01*
X007954Y005773D02*
X008033Y005773D01*
X008033Y005657D02*
X007954Y005657D01*
X007954Y005540D02*
X008033Y005540D01*
X008033Y005423D02*
X011845Y005423D01*
X012842Y005190D02*
X013346Y005190D01*
X013346Y005073D02*
X012726Y005073D01*
X012609Y004957D02*
X013346Y004957D01*
X013346Y004840D02*
X012492Y004840D01*
X012376Y004724D02*
X013346Y004724D01*
X013545Y004772D02*
X013545Y005402D01*
X013387Y005559D01*
X013387Y005992D01*
X013037Y006331D01*
X012384Y006331D01*
X012356Y006291D01*
X012144Y006110D01*
X011945Y006356D02*
X011929Y006356D01*
X012062Y006473D02*
X011736Y006473D01*
X011145Y006356D02*
X009043Y006356D01*
X009036Y006362D02*
X009000Y006383D01*
X008960Y006394D01*
X008627Y006394D01*
X008627Y006114D01*
X008620Y006114D01*
X008620Y006107D01*
X008627Y006107D01*
X008627Y006114D01*
X009098Y006114D01*
X009098Y006256D01*
X009087Y006297D01*
X009066Y006333D01*
X009036Y006362D01*
X009098Y006240D02*
X011082Y006240D01*
X011082Y006123D02*
X009098Y006123D01*
X009098Y006107D02*
X008627Y006107D01*
X008627Y005826D01*
X008960Y005826D01*
X009000Y005837D01*
X009036Y005858D01*
X009066Y005888D01*
X009087Y005924D01*
X009098Y005964D01*
X009098Y006107D01*
X009098Y006006D02*
X011082Y006006D01*
X011120Y005890D02*
X009067Y005890D01*
X008627Y005890D02*
X008620Y005890D01*
X008620Y006006D02*
X008627Y006006D01*
X008620Y006123D02*
X008627Y006123D01*
X008620Y006240D02*
X008627Y006240D01*
X008620Y006356D02*
X008627Y006356D01*
X006391Y006939D02*
X012501Y006939D01*
X012598Y006939D02*
X012709Y006939D01*
X012829Y006820D02*
X013013Y007004D01*
X017158Y007004D01*
X017158Y006727D01*
X017439Y006727D01*
X017439Y006720D01*
X017446Y006720D01*
X017446Y006250D01*
X017588Y006250D01*
X017629Y006261D01*
X017665Y006282D01*
X017695Y006311D01*
X017716Y006347D01*
X017727Y006388D01*
X017727Y006720D01*
X017446Y006720D01*
X017446Y006727D01*
X017727Y006727D01*
X017727Y007004D01*
X020592Y007004D01*
X020592Y006720D01*
X020232Y006720D01*
X020232Y006437D01*
X020220Y006437D01*
X020220Y006425D01*
X019667Y006425D01*
X019667Y006280D01*
X019678Y006240D01*
X019699Y006203D01*
X019729Y006174D01*
X019737Y006169D01*
X019687Y006119D01*
X019687Y005743D01*
X019737Y005693D01*
X019729Y005688D01*
X019699Y005659D01*
X019678Y005622D01*
X019667Y005582D01*
X019667Y005437D01*
X020220Y005437D01*
X020220Y005425D01*
X019667Y005425D01*
X019667Y005363D01*
X019590Y005395D01*
X019468Y005395D01*
X019355Y005348D01*
X019268Y005261D01*
X019221Y005148D01*
X019221Y005025D01*
X019268Y004912D01*
X019310Y004870D01*
X019268Y004828D01*
X019221Y004715D01*
X019221Y004592D01*
X019252Y004518D01*
X019180Y004518D01*
X019116Y004454D01*
X019052Y004518D01*
X018511Y004518D01*
X018429Y004436D01*
X018429Y004343D01*
X018319Y004232D01*
X017935Y004616D01*
X016753Y004616D01*
X016614Y004477D01*
X016576Y004439D01*
X016165Y004439D01*
X016165Y004475D01*
X016117Y004523D01*
X016123Y004526D01*
X016152Y004556D01*
X016173Y004592D01*
X016184Y004633D01*
X016184Y004831D01*
X015868Y004831D01*
X015868Y004909D01*
X016184Y004909D01*
X016184Y004994D01*
X016204Y004994D01*
X016244Y005004D01*
X016281Y005025D01*
X016477Y005221D01*
X016225Y005473D01*
X015998Y005246D01*
X015868Y005246D01*
X015868Y004909D01*
X015789Y004909D01*
X015789Y004831D01*
X015522Y004831D01*
X015448Y004905D01*
X015283Y005071D01*
X015182Y005171D01*
X015178Y005187D01*
X015157Y005223D01*
X015101Y005280D01*
X015030Y005210D01*
X015101Y005280D01*
X015044Y005336D01*
X015008Y005357D01*
X014991Y005362D01*
X014891Y005462D01*
X014765Y005588D01*
X014761Y005605D01*
X014740Y005641D01*
X014684Y005696D01*
X014717Y005729D01*
X014823Y005623D01*
X014890Y005623D01*
X014889Y005617D01*
X014889Y005575D01*
X014899Y005534D01*
X014920Y005498D01*
X015061Y005358D01*
X015284Y005582D01*
X015354Y005540D02*
X015437Y005540D01*
X015443Y005423D02*
X015554Y005423D01*
X015237Y005423D02*
X015126Y005423D01*
X014995Y005423D02*
X014930Y005423D01*
X014898Y005540D02*
X014813Y005540D01*
X014789Y005657D02*
X014724Y005657D01*
X014765Y005677D02*
X014663Y005677D01*
X014362Y005376D01*
X014501Y005237D02*
X014232Y004968D01*
X014232Y004751D01*
X014057Y004575D01*
X013742Y004575D01*
X013545Y004772D01*
X013899Y004890D02*
X013923Y004913D01*
X013923Y005217D01*
X014222Y005515D01*
X014223Y005515D01*
X014762Y006055D01*
X014867Y006055D01*
X015158Y006346D01*
X015435Y006346D01*
X015589Y006192D01*
X015668Y006113D01*
X016185Y006240D02*
X019678Y006240D01*
X019667Y006356D02*
X017718Y006356D01*
X017727Y006473D02*
X019667Y006473D01*
X019667Y006437D02*
X020220Y006437D01*
X020220Y006720D01*
X019805Y006720D01*
X019765Y006709D01*
X019729Y006688D01*
X019699Y006659D01*
X019678Y006622D01*
X019667Y006582D01*
X019667Y006437D01*
X020220Y006473D02*
X020232Y006473D01*
X020220Y006589D02*
X020232Y006589D01*
X020220Y006706D02*
X020232Y006706D01*
X020592Y006823D02*
X017727Y006823D01*
X017727Y006706D02*
X019759Y006706D01*
X019669Y006589D02*
X017727Y006589D01*
X017446Y006589D02*
X017439Y006589D01*
X017439Y006706D02*
X017446Y006706D01*
X017439Y006720D02*
X017439Y006250D01*
X017297Y006250D01*
X017256Y006261D01*
X017220Y006282D01*
X017190Y006311D01*
X017169Y006347D01*
X017158Y006388D01*
X017158Y006720D01*
X017439Y006720D01*
X017439Y006727D02*
X017439Y007004D01*
X017446Y007004D01*
X017446Y006727D01*
X017439Y006727D01*
X017439Y006823D02*
X017446Y006823D01*
X017158Y006823D02*
X014109Y006823D01*
X013847Y006823D02*
X013544Y006823D01*
X013631Y006706D02*
X013712Y006706D01*
X013670Y006589D02*
X013656Y006589D01*
X013348Y006583D02*
X013805Y006126D01*
X013805Y005933D01*
X013944Y005801D02*
X013944Y005794D01*
X014214Y006064D01*
X014214Y006189D01*
X013978Y006425D01*
X013978Y006543D01*
X014411Y006465D02*
X014411Y005982D01*
X014083Y005655D01*
X013242Y005423D02*
X013075Y005423D01*
X012959Y005307D02*
X013346Y005307D01*
X015030Y005210D02*
X015030Y005210D01*
X015030Y005210D01*
X015074Y005307D02*
X015121Y005307D01*
X015176Y005190D02*
X015228Y005190D01*
X015280Y005073D02*
X015472Y005073D01*
X015472Y005108D02*
X015472Y004909D01*
X015789Y004909D01*
X015789Y005246D01*
X015611Y005246D01*
X015570Y005235D01*
X015534Y005214D01*
X015504Y005184D01*
X015483Y005148D01*
X015472Y005108D01*
X015480Y005190D02*
X015510Y005190D01*
X015559Y005307D02*
X015804Y005307D01*
X015892Y005307D02*
X016059Y005307D01*
X015868Y005190D02*
X015789Y005190D01*
X015828Y005160D02*
X015828Y004870D01*
X015789Y004840D02*
X015513Y004840D01*
X015472Y004957D02*
X015396Y004957D01*
X015789Y004957D02*
X015868Y004957D01*
X015868Y004840D02*
X019280Y004840D01*
X019249Y004957D02*
X016184Y004957D01*
X016329Y005073D02*
X019221Y005073D01*
X019238Y005190D02*
X016446Y005190D01*
X016391Y005307D02*
X016558Y005307D01*
X016562Y005307D02*
X019313Y005307D01*
X019667Y005423D02*
X016679Y005423D01*
X016778Y005540D02*
X019667Y005540D01*
X019698Y005657D02*
X016777Y005657D01*
X016409Y005657D02*
X016242Y005657D01*
X016292Y005540D02*
X016325Y005540D01*
X016274Y005423D02*
X016441Y005423D01*
X016175Y005423D02*
X016008Y005423D01*
X016125Y005540D02*
X016158Y005540D01*
X016358Y005773D02*
X016525Y005773D01*
X016475Y005890D02*
X019687Y005890D01*
X019687Y006006D02*
X016445Y006006D01*
X016211Y006123D02*
X019691Y006123D01*
X019687Y005773D02*
X016678Y005773D01*
X017167Y006356D02*
X016068Y006356D01*
X015951Y006473D02*
X017158Y006473D01*
X017439Y006473D02*
X017446Y006473D01*
X017439Y006356D02*
X017446Y006356D01*
X017158Y006589D02*
X015835Y006589D01*
X015585Y006589D02*
X014693Y006589D01*
X014605Y006706D02*
X017158Y006706D01*
X017158Y006939D02*
X013185Y006939D01*
X013060Y006939D02*
X012949Y006939D01*
X012943Y006823D02*
X012832Y006823D01*
X014719Y006473D02*
X014781Y006473D01*
X014925Y006473D02*
X015003Y006473D01*
X016301Y006937D02*
X016322Y006916D01*
X017439Y006939D02*
X017446Y006939D01*
X017727Y006939D02*
X020592Y006939D01*
X023820Y006939D02*
X027904Y006939D01*
X027902Y006940D02*
X028048Y006834D01*
X028155Y006688D01*
X028211Y006516D01*
X028218Y006425D01*
X028218Y001779D01*
X028211Y001689D01*
X028155Y001517D01*
X028048Y001371D01*
X027902Y001264D01*
X027730Y001208D01*
X027639Y001201D01*
X023820Y001201D01*
X023820Y002142D01*
X024652Y002142D01*
X024684Y002174D01*
X024724Y002174D01*
X024724Y002048D01*
X024818Y001955D01*
X025579Y001955D01*
X025592Y001968D01*
X025605Y001955D01*
X026367Y001955D01*
X026447Y002036D01*
X026447Y002011D01*
X026517Y001842D01*
X026646Y001713D01*
X026815Y001643D01*
X027598Y001643D01*
X027766Y001713D01*
X027895Y001842D01*
X027965Y002011D01*
X027965Y002194D01*
X027895Y002362D01*
X027766Y002492D01*
X027598Y002561D01*
X027025Y002561D01*
X026943Y002643D01*
X027598Y002643D01*
X027766Y002713D01*
X027895Y002842D01*
X027965Y003011D01*
X027965Y003194D01*
X027895Y003362D01*
X027766Y003492D01*
X027598Y003561D01*
X026852Y003561D01*
X026291Y004122D01*
X026416Y004247D01*
X026445Y004247D01*
X026565Y004297D01*
X026657Y004389D01*
X026707Y004510D01*
X026707Y004640D01*
X026683Y004698D01*
X026815Y004643D01*
X027598Y004643D01*
X027766Y004713D01*
X027895Y004842D01*
X027965Y005011D01*
X027965Y005194D01*
X027895Y005362D01*
X027766Y005492D01*
X027598Y005561D01*
X026815Y005561D01*
X026646Y005492D01*
X026517Y005362D01*
X026447Y005194D01*
X026447Y005011D01*
X026502Y004878D01*
X026445Y004902D01*
X026314Y004902D01*
X026194Y004852D01*
X026102Y004760D01*
X026052Y004640D01*
X026052Y004611D01*
X025927Y004486D01*
X025466Y004947D01*
X025560Y004947D01*
X025653Y005040D01*
X025653Y005601D01*
X026406Y005601D01*
X026499Y005694D01*
X026499Y005886D01*
X026517Y005842D01*
X026646Y005713D01*
X026815Y005643D01*
X027598Y005643D01*
X027766Y005713D01*
X027895Y005842D01*
X027965Y006011D01*
X027965Y006194D01*
X027895Y006362D01*
X027766Y006492D01*
X027598Y006561D01*
X026815Y006561D01*
X026646Y006492D01*
X026517Y006362D01*
X026499Y006319D01*
X026499Y006338D01*
X026406Y006431D01*
X025644Y006431D01*
X025612Y006398D01*
X025579Y006431D01*
X024818Y006431D01*
X024724Y006338D01*
X024724Y006189D01*
X024684Y006189D01*
X024652Y006220D01*
X023820Y006220D01*
X023820Y007004D01*
X027639Y007004D01*
X027730Y006996D01*
X027902Y006940D01*
X028057Y006823D02*
X023820Y006823D01*
X023820Y006706D02*
X028141Y006706D01*
X028187Y006589D02*
X023820Y006589D01*
X023820Y006473D02*
X026628Y006473D01*
X026515Y006356D02*
X026481Y006356D01*
X027785Y006473D02*
X028214Y006473D01*
X028218Y006356D02*
X027898Y006356D01*
X027946Y006240D02*
X028218Y006240D01*
X028218Y006123D02*
X027965Y006123D01*
X027963Y006006D02*
X028218Y006006D01*
X028218Y005890D02*
X027915Y005890D01*
X027826Y005773D02*
X028218Y005773D01*
X028218Y005657D02*
X027630Y005657D01*
X027649Y005540D02*
X028218Y005540D01*
X028218Y005423D02*
X027835Y005423D01*
X027919Y005307D02*
X028218Y005307D01*
X028218Y005190D02*
X027965Y005190D01*
X027965Y005073D02*
X028218Y005073D01*
X028218Y004957D02*
X027943Y004957D01*
X027893Y004840D02*
X028218Y004840D01*
X028218Y004724D02*
X027777Y004724D01*
X028218Y004607D02*
X026707Y004607D01*
X026699Y004490D02*
X028218Y004490D01*
X028218Y004374D02*
X026642Y004374D01*
X026469Y004257D02*
X028218Y004257D01*
X028218Y004141D02*
X026309Y004141D01*
X026389Y004024D02*
X028218Y004024D01*
X028218Y003907D02*
X026506Y003907D01*
X026622Y003791D02*
X028218Y003791D01*
X028218Y003674D02*
X026739Y003674D01*
X027607Y003558D02*
X028218Y003558D01*
X028218Y003441D02*
X027817Y003441D01*
X027911Y003324D02*
X028218Y003324D01*
X028218Y003208D02*
X027960Y003208D01*
X027965Y003091D02*
X028218Y003091D01*
X028218Y002974D02*
X027950Y002974D01*
X027902Y002858D02*
X028218Y002858D01*
X028218Y002741D02*
X027794Y002741D01*
X027726Y002508D02*
X028218Y002508D01*
X028218Y002625D02*
X026962Y002625D01*
X026073Y002785D02*
X025964Y002893D01*
X025925Y002988D01*
X025925Y003090D01*
X025623Y003392D01*
X025342Y003674D01*
X024699Y003674D01*
X024745Y003627D01*
X024745Y003235D01*
X024652Y003142D01*
X023820Y003142D01*
X023820Y002720D01*
X024652Y002720D01*
X024684Y002689D01*
X024724Y002689D01*
X024724Y002692D01*
X024818Y002785D01*
X025579Y002785D01*
X025592Y002772D01*
X025605Y002785D01*
X026073Y002785D01*
X026000Y002858D02*
X023820Y002858D01*
X023820Y002974D02*
X025931Y002974D01*
X025924Y003091D02*
X023820Y003091D01*
X024718Y003208D02*
X025808Y003208D01*
X025691Y003324D02*
X024745Y003324D01*
X024745Y003441D02*
X025574Y003441D01*
X025458Y003558D02*
X024745Y003558D01*
X024684Y004189D02*
X024652Y004220D01*
X023820Y004220D01*
X023820Y004642D01*
X024652Y004642D01*
X024663Y004653D01*
X025032Y004653D01*
X025496Y004189D01*
X025397Y004189D01*
X024684Y004189D01*
X025311Y004374D02*
X023820Y004374D01*
X023820Y004490D02*
X025194Y004490D01*
X025078Y004607D02*
X023820Y004607D01*
X023820Y004257D02*
X025427Y004257D01*
X025923Y004490D02*
X025931Y004490D01*
X026048Y004607D02*
X025806Y004607D01*
X025689Y004724D02*
X026087Y004724D01*
X026182Y004840D02*
X025573Y004840D01*
X025569Y004957D02*
X026470Y004957D01*
X026447Y005073D02*
X025653Y005073D01*
X025653Y005190D02*
X026447Y005190D01*
X026494Y005307D02*
X025653Y005307D01*
X025653Y005423D02*
X026578Y005423D01*
X026763Y005540D02*
X025653Y005540D01*
X026462Y005657D02*
X026783Y005657D01*
X026586Y005773D02*
X026499Y005773D01*
X024724Y006240D02*
X023820Y006240D01*
X023820Y006356D02*
X024743Y006356D01*
X024186Y005431D02*
X024117Y005441D01*
X019225Y004724D02*
X016184Y004724D01*
X016177Y004607D02*
X016744Y004607D01*
X016628Y004490D02*
X016150Y004490D01*
X015336Y004402D02*
X015336Y004398D01*
X015041Y004102D01*
X014805Y004102D01*
X015336Y003571D01*
X015336Y003567D01*
X014809Y003674D02*
X014098Y003674D01*
X014200Y003791D02*
X014740Y003791D01*
X014837Y003748D02*
X014569Y003748D01*
X014450Y003630D01*
X014837Y003748D02*
X015197Y003427D01*
X015058Y003288D02*
X015058Y003286D01*
X015419Y002929D01*
X015679Y002929D01*
X015907Y003157D01*
X015907Y003276D01*
X015868Y003315D01*
X016222Y003551D02*
X016065Y003709D01*
X016222Y003551D02*
X016222Y002961D01*
X015970Y002709D01*
X015360Y002709D01*
X014919Y003149D01*
X014919Y003149D01*
X014779Y003010D02*
X014779Y003010D01*
X013332Y003208D02*
X012987Y003208D01*
X011416Y002974D02*
X011135Y002974D01*
X011252Y002858D02*
X011274Y002858D01*
X011299Y003091D02*
X011018Y003091D01*
X010902Y003208D02*
X011182Y003208D01*
X011066Y003324D02*
X010785Y003324D01*
X011048Y003441D02*
X010117Y003441D01*
X010001Y003558D02*
X011148Y003558D01*
X011265Y003674D02*
X009884Y003674D01*
X009768Y003791D02*
X011382Y003791D01*
X011498Y003907D02*
X011185Y003907D01*
X011244Y004024D02*
X011531Y004024D01*
X011414Y004141D02*
X011244Y004141D01*
X011006Y004358D02*
X010907Y004260D01*
X010907Y004240D01*
X010868Y004279D01*
X010317Y004279D01*
X009647Y004257D02*
X009301Y004257D01*
X009986Y003907D02*
X010629Y003907D01*
X011006Y004358D02*
X011395Y004358D01*
X011439Y004402D01*
X008033Y005073D02*
X007954Y005073D01*
X007954Y005190D02*
X008033Y005190D01*
X008033Y005307D02*
X007954Y005307D01*
X007954Y005423D02*
X006077Y005423D01*
X008763Y003451D02*
X008993Y003451D01*
X008953Y003411D01*
X008906Y003297D01*
X008906Y003175D01*
X008953Y003062D01*
X008976Y003039D01*
X008976Y002904D01*
X008763Y002904D01*
X008763Y002920D01*
X008682Y003002D01*
X007506Y003002D01*
X007533Y003069D01*
X007533Y003246D01*
X007506Y003313D01*
X008682Y003313D01*
X008763Y003395D01*
X008763Y003451D01*
X008763Y003441D02*
X008983Y003441D01*
X008917Y003324D02*
X008693Y003324D01*
X008906Y003208D02*
X007533Y003208D01*
X007533Y003091D02*
X008941Y003091D01*
X008976Y002974D02*
X008709Y002974D01*
X008744Y002391D02*
X010391Y002391D01*
X010508Y002275D02*
X009002Y002275D01*
X009078Y002158D02*
X010625Y002158D01*
X010708Y002042D02*
X009078Y002042D01*
X009078Y001925D02*
X010708Y001925D01*
X010708Y001808D02*
X009054Y001808D01*
X008624Y002016D02*
X008545Y002094D01*
X007954Y002094D01*
X007840Y001808D02*
X007798Y001808D01*
X007804Y001692D02*
X010708Y001692D01*
X010735Y001575D02*
X007770Y001575D01*
X007707Y001459D02*
X010848Y001459D01*
X010958Y001342D02*
X007552Y001342D01*
X006546Y001342D02*
X006286Y001342D01*
X006182Y001459D02*
X006390Y001459D01*
X006328Y001575D02*
X006121Y001575D01*
X006512Y001225D02*
X011069Y001225D01*
X013584Y001701D02*
X013648Y001882D01*
X013805Y002036D01*
X014195Y001811D02*
X014250Y001866D01*
X014299Y001817D01*
X014526Y001817D01*
X014685Y001658D01*
X014685Y001486D01*
X013806Y001486D01*
X013846Y001526D01*
X013892Y001639D01*
X013892Y001667D01*
X013914Y001645D01*
X014030Y001645D01*
X014195Y001811D01*
X014193Y001808D02*
X014534Y001808D01*
X014651Y001692D02*
X014076Y001692D01*
X013866Y001575D02*
X014685Y001575D01*
X016320Y002094D02*
X016320Y002311D01*
X016458Y002449D01*
X016584Y002449D01*
X016588Y002453D01*
X017167Y002685D02*
X017344Y002606D01*
X017167Y002685D02*
X016773Y003079D01*
X016773Y003354D01*
X016813Y003394D01*
X017128Y003433D02*
X017246Y003315D01*
X017246Y003236D01*
X017344Y003118D01*
X017364Y003236D01*
X017128Y003433D02*
X017128Y003748D01*
X017049Y003748D01*
X018289Y003866D02*
X018289Y003897D01*
X018289Y003898D02*
X018280Y003908D01*
X018274Y003919D01*
X018270Y003932D01*
X018269Y003945D01*
X018294Y004257D02*
X018343Y004257D01*
X018429Y004374D02*
X018177Y004374D01*
X018061Y004490D02*
X018483Y004490D01*
X017944Y004607D02*
X019221Y004607D01*
X019153Y004490D02*
X019079Y004490D01*
X015868Y005073D02*
X015789Y005073D01*
X015283Y005071D02*
X015283Y005071D01*
X014805Y004102D02*
X014765Y004102D01*
X014726Y004063D01*
X018825Y003527D02*
X018825Y003438D01*
X019406Y003438D01*
X019406Y003527D01*
X019153Y003527D01*
X018825Y003527D01*
X018825Y003441D02*
X019406Y003441D01*
X019495Y003441D02*
X019667Y003441D01*
X019667Y003438D02*
X019495Y003438D01*
X019495Y003527D01*
X019667Y003527D01*
X019667Y003438D01*
X019790Y002437D02*
X020220Y002437D01*
X020220Y002425D01*
X019778Y002425D01*
X019790Y002437D01*
X020220Y002425D02*
X020232Y002425D01*
X020232Y001937D01*
X020220Y001937D01*
X020220Y002220D01*
X020220Y002425D01*
X020220Y002391D02*
X020232Y002391D01*
X020220Y002275D02*
X020232Y002275D01*
X020220Y002158D02*
X020232Y002158D01*
X019667Y002070D02*
X019495Y002070D01*
X019495Y001981D01*
X019667Y001981D01*
X019667Y002070D01*
X019667Y002042D02*
X019495Y002042D01*
X019495Y001981D02*
X019495Y001660D01*
X019684Y001660D01*
X019724Y001671D01*
X019729Y001673D01*
X019765Y001653D01*
X019805Y001642D01*
X020220Y001642D01*
X020220Y001925D01*
X020232Y001925D01*
X020232Y001642D01*
X020592Y001642D01*
X020592Y001201D01*
X018001Y001201D01*
X018395Y001606D01*
X018408Y001593D01*
X018444Y001572D01*
X018485Y001561D01*
X018761Y001561D01*
X018761Y001917D01*
X018880Y001917D01*
X019079Y001917D01*
X019079Y001981D01*
X019406Y001981D01*
X019495Y001981D01*
X019495Y001925D02*
X019406Y001925D01*
X019406Y001981D02*
X019406Y001660D01*
X019284Y001660D01*
X019284Y001659D01*
X019263Y001623D01*
X019233Y001593D01*
X019197Y001572D01*
X019156Y001561D01*
X018880Y001561D01*
X018880Y001917D01*
X018880Y002035D01*
X019294Y002035D01*
X019294Y002070D01*
X019406Y002070D01*
X019406Y001981D01*
X019406Y002042D02*
X019294Y002042D01*
X019079Y001925D02*
X018880Y001925D01*
X018880Y001808D02*
X018761Y001808D01*
X018761Y001692D02*
X018880Y001692D01*
X018880Y001575D02*
X018761Y001575D01*
X018439Y001575D02*
X018365Y001575D01*
X018252Y001459D02*
X020592Y001459D01*
X020592Y001575D02*
X019202Y001575D01*
X019406Y001692D02*
X019495Y001692D01*
X019495Y001808D02*
X019406Y001808D01*
X020220Y001808D02*
X020232Y001808D01*
X020220Y001692D02*
X020232Y001692D01*
X020220Y001925D02*
X020232Y001925D01*
X020220Y002042D02*
X020232Y002042D01*
X020592Y001342D02*
X018138Y001342D01*
X018025Y001225D02*
X020592Y001225D01*
X023820Y001225D02*
X027782Y001225D01*
X028009Y001342D02*
X023820Y001342D01*
X023820Y001459D02*
X028112Y001459D01*
X028174Y001575D02*
X023820Y001575D01*
X023820Y001692D02*
X026698Y001692D01*
X026551Y001808D02*
X023820Y001808D01*
X023820Y001925D02*
X026483Y001925D01*
X027715Y001692D02*
X028211Y001692D01*
X028218Y001808D02*
X027862Y001808D01*
X027930Y001925D02*
X028218Y001925D01*
X028218Y002042D02*
X027965Y002042D01*
X027965Y002158D02*
X028218Y002158D01*
X028218Y002275D02*
X027932Y002275D01*
X027866Y002391D02*
X028218Y002391D01*
X024774Y002741D02*
X023820Y002741D01*
X024668Y002158D02*
X024724Y002158D01*
X024731Y002042D02*
X023820Y002042D01*
X008193Y001808D02*
X008069Y001808D01*
D29*
X012829Y006764D02*
X012829Y006930D01*
X012836Y006937D01*
D30*
X024108Y004892D02*
X024186Y004931D01*
X024108Y004892D02*
X025157Y004892D01*
X020226Y002431D02*
X019856Y002431D01*
X019450Y002026D01*
D31*
X025198Y002370D02*
X025986Y002370D01*
X026025Y006016D02*
X025198Y006016D01*
M02*
