G75*
%MOIN*%
%OFA0B0*%
%FSLAX24Y24*%
%IPPOS*%
%LPD*%
%AMOC8*
5,1,8,0,0,1.08239X$1,22.5*
%
%ADD10R,0.1181X0.0669*%
%ADD11R,0.0787X0.0591*%
%ADD12R,0.0787X0.1496*%
%ADD13R,0.0425X0.0413*%
%ADD14R,0.0512X0.0630*%
%ADD15R,0.0591X0.0512*%
%ADD16R,0.0413X0.0425*%
%ADD17R,0.0433X0.0394*%
%ADD18C,0.1000*%
%ADD19R,0.0394X0.0433*%
%ADD20C,0.0600*%
%ADD21C,0.0337*%
%ADD22C,0.0197*%
%ADD23C,0.0118*%
%ADD24C,0.0157*%
%ADD25C,0.0315*%
D10*
X007049Y001720D03*
X007049Y006405D03*
D11*
X010376Y005047D03*
X010376Y004142D03*
X010376Y003236D03*
D12*
X007895Y004142D03*
D13*
X011183Y004447D03*
X011183Y003758D03*
D14*
X013151Y004063D03*
X013939Y004063D03*
X013939Y004850D03*
X013151Y004850D03*
X009569Y005874D03*
X008781Y005874D03*
D15*
X025828Y004437D03*
X025828Y003689D03*
X025868Y005264D03*
X025868Y006012D03*
D16*
X025189Y005244D03*
X024500Y005244D03*
D17*
X013880Y003426D03*
X013210Y003426D03*
X011931Y003453D03*
X011931Y004122D03*
X010868Y005815D03*
X010868Y006484D03*
D18*
X012482Y001701D03*
X013584Y001701D03*
X014687Y001701D03*
D19*
X011065Y001524D03*
X011065Y002193D03*
X017541Y004063D03*
X018210Y004063D03*
X015612Y005047D03*
X014943Y005047D03*
X014943Y005756D03*
X015612Y005756D03*
X015612Y006465D03*
X014943Y006465D03*
D20*
X026906Y006102D02*
X027506Y006102D01*
X027506Y005102D02*
X026906Y005102D01*
X026906Y004102D02*
X027506Y004102D01*
X027506Y003102D02*
X026906Y003102D01*
X026906Y002102D02*
X027506Y002102D01*
D21*
X028072Y002279D03*
X028072Y001846D03*
X027718Y001335D03*
X027285Y001335D03*
X026852Y001335D03*
X024411Y001504D03*
X023978Y001504D03*
X025277Y002331D03*
X025002Y002921D03*
X025002Y003342D03*
X025828Y003669D03*
X028072Y003579D03*
X028072Y004012D03*
X028072Y004445D03*
X028072Y004878D03*
X028072Y005311D03*
X028072Y005744D03*
X028072Y006177D03*
X028033Y006610D03*
X027718Y006886D03*
X027285Y006886D03*
X026852Y006886D03*
X024411Y006886D03*
X023978Y006890D03*
X025041Y005992D03*
X020395Y006858D03*
X019962Y006858D03*
X019529Y006858D03*
X019096Y006858D03*
X018663Y006858D03*
X018230Y006858D03*
X017797Y006858D03*
X017049Y006858D03*
X016616Y006858D03*
X016183Y006858D03*
X014411Y006465D03*
X013978Y006543D03*
X013348Y006583D03*
X011970Y006819D03*
X011419Y006543D03*
X010356Y006819D03*
X009805Y006819D03*
X009254Y006819D03*
X006340Y005795D03*
X007049Y005638D03*
X006340Y005362D03*
X006340Y004929D03*
X006340Y004496D03*
X007049Y004299D03*
X006340Y004063D03*
X007049Y003787D03*
X006340Y003630D03*
X006340Y003197D03*
X006340Y002764D03*
X007049Y002449D03*
X006340Y002331D03*
X007954Y002094D03*
X009293Y002173D03*
X010277Y002173D03*
X011498Y002646D03*
X013230Y002921D03*
X013860Y002961D03*
X012679Y003157D03*
X014450Y003630D03*
X015868Y003315D03*
X016813Y003394D03*
X016065Y003709D03*
X017049Y003748D03*
X017817Y003551D03*
X018269Y003472D03*
X019450Y003472D03*
X016588Y002453D03*
X015356Y002370D03*
X013584Y001701D03*
X014490Y001661D03*
X012403Y001661D03*
X011734Y001634D03*
X010277Y001425D03*
X009293Y001425D03*
X008584Y003157D03*
X009214Y003236D03*
X012521Y003827D03*
X012521Y004220D03*
X012521Y004614D03*
X013899Y004890D03*
X014450Y004457D03*
X014765Y004102D03*
X017167Y005047D03*
X017561Y005047D03*
X017954Y005047D03*
X019529Y005087D03*
X019529Y005520D03*
X019096Y005520D03*
X017954Y005520D03*
X017561Y005520D03*
X017167Y005520D03*
X017167Y005992D03*
X017561Y005992D03*
X017954Y005992D03*
X019096Y005992D03*
X019529Y005992D03*
X019529Y006425D03*
X019096Y006425D03*
X019529Y004654D03*
X024962Y004417D03*
X026380Y004575D03*
X028072Y003146D03*
X028072Y002713D03*
X020317Y001425D03*
X019883Y001425D03*
X019450Y001425D03*
X019017Y001425D03*
X018545Y001425D03*
X009175Y004654D03*
X009175Y005047D03*
X011694Y005677D03*
D22*
X011498Y005244D02*
X011143Y005598D01*
X011104Y005598D01*
X010356Y005598D01*
X010080Y005874D01*
X010080Y006268D01*
X009923Y006425D01*
X008978Y006425D01*
X008781Y006228D01*
X008781Y005874D01*
X008781Y004142D01*
X010308Y004142D01*
X010321Y004143D01*
X010334Y004147D01*
X010345Y004153D01*
X010355Y004162D01*
X011183Y004447D02*
X011183Y004575D01*
X011891Y004575D01*
X011891Y004850D01*
X013151Y004850D01*
X013151Y004063D01*
X012718Y004024D01*
X012521Y004220D01*
X013151Y004063D02*
X013210Y003965D01*
X013210Y003426D01*
X013230Y003407D01*
X013230Y002921D01*
X013860Y002961D02*
X013880Y002941D01*
X013880Y003426D01*
X013880Y003965D01*
X013939Y004063D01*
X014017Y004102D01*
X014765Y004102D01*
X013939Y004063D02*
X013899Y004890D01*
X013939Y004850D01*
X013939Y005283D01*
X013781Y005441D01*
X012443Y005441D01*
X012246Y005244D01*
X011498Y005244D01*
X011183Y004811D02*
X010946Y005047D01*
X010376Y005047D01*
X009175Y005047D01*
X011183Y004811D02*
X011183Y004575D01*
X008781Y004142D02*
X007895Y004142D01*
X009214Y003236D02*
X010376Y003236D01*
X010986Y003236D01*
X011143Y003394D01*
X011143Y003718D01*
X011183Y003758D01*
X011143Y002291D02*
X011078Y002226D01*
X011078Y002227D02*
X011070Y002217D01*
X011066Y002205D01*
X011064Y002193D01*
X024096Y004535D02*
X024490Y004142D01*
X024490Y002606D01*
X024765Y002331D01*
X025277Y002331D01*
X025828Y003669D02*
X025828Y003689D01*
X025848Y003827D01*
X025828Y004437D02*
X025828Y005224D01*
X025248Y005224D01*
X025189Y005244D01*
X025828Y005224D02*
X025868Y005264D01*
X026380Y005598D02*
X026104Y005874D01*
X025848Y005874D01*
X025868Y006012D01*
X025887Y005894D01*
X026380Y005598D02*
X026380Y004575D01*
X024096Y004535D02*
X024096Y005795D01*
X024293Y005992D01*
X025041Y005992D01*
X009569Y005874D02*
X009569Y005854D01*
D23*
X006084Y001689D02*
X006140Y001517D01*
X006246Y001371D01*
X006355Y001292D01*
X006319Y001328D01*
X006319Y002113D01*
X006400Y002195D01*
X007662Y002195D01*
X007693Y002269D01*
X007696Y002272D01*
X007696Y003254D01*
X007530Y003254D01*
X007533Y003246D01*
X007533Y003069D01*
X007466Y002905D01*
X007340Y002780D01*
X007177Y002712D01*
X007000Y002712D01*
X006836Y002780D01*
X006711Y002905D01*
X006643Y003069D01*
X006643Y003246D01*
X006711Y003410D01*
X006836Y003535D01*
X007000Y003603D01*
X007177Y003603D01*
X007340Y003535D01*
X007362Y003514D01*
X007362Y004573D01*
X007340Y004552D01*
X007177Y004484D01*
X007000Y004484D01*
X006836Y004552D01*
X006711Y004677D01*
X006643Y004841D01*
X006643Y005018D01*
X006711Y005181D01*
X006836Y005307D01*
X006077Y005307D01*
X006077Y005190D02*
X006719Y005190D01*
X006666Y005073D02*
X006077Y005073D01*
X006077Y004957D02*
X006643Y004957D01*
X006643Y004840D02*
X006077Y004840D01*
X006077Y004724D02*
X006691Y004724D01*
X006781Y004607D02*
X006077Y004607D01*
X006077Y004490D02*
X006984Y004490D01*
X007193Y004490D02*
X007362Y004490D01*
X007362Y004374D02*
X006077Y004374D01*
X006077Y004257D02*
X007362Y004257D01*
X007362Y004141D02*
X006077Y004141D01*
X006077Y004024D02*
X007362Y004024D01*
X007362Y003907D02*
X006077Y003907D01*
X006077Y003791D02*
X007362Y003791D01*
X007362Y003674D02*
X006077Y003674D01*
X006077Y003558D02*
X006890Y003558D01*
X007286Y003558D02*
X007362Y003558D01*
X006742Y003441D02*
X006077Y003441D01*
X006077Y003324D02*
X006675Y003324D01*
X006643Y003208D02*
X006077Y003208D01*
X006077Y003091D02*
X006643Y003091D01*
X006682Y002974D02*
X006077Y002974D01*
X006077Y002858D02*
X006758Y002858D01*
X006929Y002741D02*
X006077Y002741D01*
X006077Y002625D02*
X007696Y002625D01*
X007696Y002741D02*
X007247Y002741D01*
X007418Y002858D02*
X007696Y002858D01*
X007696Y002974D02*
X007494Y002974D01*
X007533Y003091D02*
X007696Y003091D01*
X008094Y003091D02*
X008941Y003091D01*
X008953Y003062D02*
X009040Y002975D01*
X009153Y002928D01*
X009275Y002928D01*
X009389Y002975D01*
X009412Y002998D01*
X009842Y002998D01*
X009842Y002883D01*
X009924Y002801D01*
X010827Y002801D01*
X010905Y002879D01*
X010905Y002549D01*
X010810Y002549D01*
X010728Y002467D01*
X010728Y001918D01*
X010776Y001871D01*
X010770Y001867D01*
X010740Y001838D01*
X010720Y001802D01*
X010709Y001761D01*
X010709Y001563D01*
X011025Y001563D01*
X011025Y001484D01*
X010709Y001484D01*
X010709Y001286D01*
X010720Y001246D01*
X010740Y001209D01*
X010749Y001201D01*
X006655Y001201D01*
X006565Y001208D01*
X006448Y001246D01*
X007697Y001246D01*
X007779Y001328D01*
X007779Y001834D01*
X007780Y001833D01*
X007893Y001786D01*
X008016Y001786D01*
X008129Y001833D01*
X008216Y001920D01*
X008263Y002033D01*
X008263Y002156D01*
X008216Y002269D01*
X008129Y002356D01*
X008094Y002370D01*
X008094Y003254D01*
X008347Y003254D01*
X008429Y003336D01*
X008429Y003904D01*
X009842Y003904D01*
X009842Y003789D01*
X009923Y003708D01*
X009923Y003670D01*
X009842Y003589D01*
X009842Y003474D01*
X009412Y003474D01*
X009389Y003497D01*
X009275Y003544D01*
X009153Y003544D01*
X009040Y003497D01*
X008953Y003411D01*
X008906Y003297D01*
X008906Y003175D01*
X008953Y003062D01*
X009041Y002974D02*
X008094Y002974D01*
X008094Y002858D02*
X009867Y002858D01*
X009842Y002974D02*
X009388Y002974D01*
X008906Y003208D02*
X008094Y003208D01*
X008417Y003324D02*
X008917Y003324D01*
X008983Y003441D02*
X008429Y003441D01*
X008429Y003558D02*
X009842Y003558D01*
X009923Y003674D02*
X008429Y003674D01*
X008429Y003791D02*
X009842Y003791D01*
X011104Y002803D02*
X011754Y003453D01*
X011931Y003453D01*
X012287Y003441D02*
X012558Y003441D01*
X012504Y003419D02*
X012417Y003332D01*
X012371Y003219D01*
X012371Y003117D01*
X012119Y002844D01*
X011735Y002844D01*
X011672Y002907D01*
X011559Y002954D01*
X011536Y002954D01*
X011698Y003116D01*
X012205Y003116D01*
X012287Y003198D01*
X012287Y003707D01*
X012214Y003780D01*
X012245Y003798D01*
X012275Y003828D01*
X012295Y003864D01*
X012306Y003904D01*
X012306Y004083D01*
X011970Y004083D01*
X011970Y004161D01*
X012306Y004161D01*
X012306Y004340D01*
X012295Y004380D01*
X012275Y004417D01*
X012245Y004446D01*
X012209Y004467D01*
X012168Y004478D01*
X011970Y004478D01*
X011970Y004161D01*
X011891Y004161D01*
X011891Y004083D01*
X011555Y004083D01*
X011555Y003904D01*
X011566Y003864D01*
X011587Y003828D01*
X011617Y003798D01*
X011647Y003780D01*
X011574Y003707D01*
X011574Y003555D01*
X011535Y003515D01*
X011535Y004022D01*
X011462Y004095D01*
X011493Y004113D01*
X011523Y004142D01*
X011543Y004179D01*
X011554Y004219D01*
X011554Y004403D01*
X011227Y004403D01*
X011227Y004491D01*
X011554Y004491D01*
X011554Y004674D01*
X011543Y004715D01*
X011523Y004751D01*
X011493Y004781D01*
X011457Y004802D01*
X011416Y004813D01*
X011227Y004813D01*
X011227Y004491D01*
X011138Y004491D01*
X011138Y004813D01*
X010949Y004813D01*
X010928Y004807D01*
X010928Y004988D01*
X010435Y004988D01*
X010435Y005106D01*
X010928Y005106D01*
X010928Y005360D01*
X011045Y005360D01*
X011259Y005145D01*
X011399Y005006D01*
X012344Y005006D01*
X012541Y005203D01*
X012741Y005203D01*
X012736Y005186D01*
X012736Y004909D01*
X013092Y004909D01*
X013092Y004791D01*
X013210Y004791D01*
X013210Y004376D01*
X013210Y004122D01*
X013092Y004122D01*
X013092Y004004D01*
X012736Y004004D01*
X012736Y003727D01*
X012747Y003687D01*
X012768Y003650D01*
X012798Y003621D01*
X012834Y003600D01*
X012835Y003600D01*
X012835Y003466D01*
X013171Y003466D01*
X013171Y003782D01*
X013092Y003782D01*
X013092Y004004D01*
X013210Y004004D01*
X013210Y003589D01*
X013250Y003589D01*
X013250Y003466D01*
X013171Y003466D01*
X013171Y003387D01*
X013250Y003387D01*
X013250Y003070D01*
X013448Y003070D01*
X013488Y003081D01*
X013524Y003102D01*
X013554Y003132D01*
X013557Y003137D01*
X013587Y003108D01*
X013552Y003022D01*
X013552Y002899D01*
X013599Y002786D01*
X013685Y002699D01*
X013799Y002652D01*
X013921Y002652D01*
X014034Y002699D01*
X014121Y002786D01*
X014168Y002899D01*
X014168Y003022D01*
X014140Y003090D01*
X014154Y003090D01*
X014236Y003172D01*
X014236Y003608D01*
X014252Y003608D01*
X014334Y003690D01*
X014334Y003864D01*
X014568Y003864D01*
X014591Y003841D01*
X014704Y003794D01*
X014827Y003794D01*
X014940Y003841D01*
X015027Y003928D01*
X015074Y004041D01*
X015074Y004164D01*
X015027Y004277D01*
X014940Y004364D01*
X014827Y004411D01*
X014704Y004411D01*
X014591Y004364D01*
X014568Y004341D01*
X014334Y004341D01*
X014334Y004436D01*
X014313Y004457D01*
X014334Y004478D01*
X014334Y005223D01*
X014252Y005305D01*
X014177Y005305D01*
X014177Y005382D01*
X014037Y005522D01*
X013880Y005679D01*
X012344Y005679D01*
X012204Y005540D01*
X012147Y005482D01*
X011596Y005482D01*
X011381Y005697D01*
X011242Y005837D01*
X011224Y005837D01*
X011224Y006070D01*
X011144Y006150D01*
X011224Y006229D01*
X011224Y006302D01*
X011244Y006282D01*
X011358Y006235D01*
X011480Y006235D01*
X011593Y006282D01*
X011680Y006369D01*
X011727Y006482D01*
X011727Y006605D01*
X011680Y006718D01*
X011593Y006805D01*
X011480Y006851D01*
X011358Y006851D01*
X011244Y006805D01*
X011201Y006762D01*
X011142Y006821D01*
X010593Y006821D01*
X010511Y006739D01*
X010511Y006229D01*
X010591Y006150D01*
X010511Y006070D01*
X010511Y005837D01*
X010455Y005837D01*
X010319Y005973D01*
X010319Y006366D01*
X010179Y006506D01*
X010021Y006663D01*
X008879Y006663D01*
X008740Y006524D01*
X008545Y006329D01*
X008467Y006329D01*
X008385Y006247D01*
X008385Y005501D01*
X008467Y005419D01*
X008543Y005419D01*
X008543Y004380D01*
X008429Y004380D01*
X008429Y004948D01*
X008347Y005029D01*
X007529Y005029D01*
X007466Y005181D01*
X007340Y005307D01*
X008543Y005307D01*
X008543Y005190D02*
X007457Y005190D01*
X007510Y005073D02*
X008543Y005073D01*
X009019Y005073D02*
X010317Y005073D01*
X010317Y005106D02*
X010317Y004988D01*
X009823Y004988D01*
X009823Y004731D01*
X009834Y004691D01*
X009855Y004654D01*
X009884Y004625D01*
X009920Y004604D01*
X009923Y004603D01*
X009923Y004576D01*
X009842Y004495D01*
X009842Y004380D01*
X009019Y004380D01*
X009019Y005419D01*
X009095Y005419D01*
X009168Y005492D01*
X009185Y005461D01*
X009215Y005432D01*
X009251Y005411D01*
X009292Y005400D01*
X009509Y005400D01*
X009509Y005815D01*
X009628Y005815D01*
X009628Y005400D01*
X009833Y005400D01*
X009823Y005363D01*
X009823Y005106D01*
X010317Y005106D01*
X010435Y005073D02*
X011331Y005073D01*
X011259Y005145D02*
X011259Y005145D01*
X011215Y005190D02*
X010928Y005190D01*
X010928Y005307D02*
X011098Y005307D01*
X011539Y005540D02*
X012205Y005540D01*
X012321Y005657D02*
X011422Y005657D01*
X011381Y005697D02*
X011381Y005697D01*
X011305Y005773D02*
X013798Y005773D01*
X013681Y005890D02*
X011224Y005890D01*
X011224Y006006D02*
X013564Y006006D01*
X013448Y006123D02*
X011171Y006123D01*
X011224Y006240D02*
X011347Y006240D01*
X011491Y006240D02*
X013331Y006240D01*
X013296Y006274D02*
X014448Y005122D01*
X014565Y005006D01*
X014606Y005006D01*
X014606Y004773D01*
X014688Y004691D01*
X015197Y004691D01*
X015277Y004771D01*
X015354Y004694D01*
X015354Y002878D01*
X015470Y002762D01*
X015862Y002370D01*
X015978Y002254D01*
X016351Y002254D01*
X016414Y002191D01*
X016527Y002145D01*
X016649Y002145D01*
X016763Y002191D01*
X016849Y002278D01*
X016875Y002341D01*
X016889Y002327D01*
X017006Y002211D01*
X018588Y002211D01*
X018982Y002604D01*
X019098Y002721D01*
X019098Y003709D01*
X019593Y004240D01*
X019611Y004258D01*
X019611Y004258D01*
X019728Y004374D01*
X019728Y004416D01*
X019790Y004479D01*
X019837Y004592D01*
X019837Y004715D01*
X019790Y004828D01*
X019748Y004870D01*
X019790Y004912D01*
X019837Y005025D01*
X019837Y005148D01*
X019790Y005261D01*
X019704Y005348D01*
X019590Y005395D01*
X019468Y005395D01*
X019355Y005348D01*
X019292Y005285D01*
X019289Y005285D01*
X019173Y005169D01*
X018976Y004972D01*
X018976Y004578D01*
X018547Y004149D01*
X018547Y004337D01*
X018465Y004419D01*
X017955Y004419D01*
X017876Y004339D01*
X017796Y004419D01*
X017286Y004419D01*
X017204Y004337D01*
X017204Y004189D01*
X016972Y004421D01*
X016972Y005716D01*
X016974Y005719D01*
X016972Y005798D01*
X016972Y005878D01*
X016970Y005880D01*
X016970Y005883D01*
X016912Y005938D01*
X016856Y005994D01*
X016852Y005994D01*
X016203Y006607D01*
X016147Y006663D01*
X016144Y006663D01*
X016141Y006666D01*
X016062Y006663D01*
X015948Y006663D01*
X015948Y006739D01*
X015867Y006821D01*
X015357Y006821D01*
X015277Y006741D01*
X015197Y006821D01*
X014688Y006821D01*
X014606Y006739D01*
X014606Y006705D01*
X014586Y006726D01*
X014472Y006773D01*
X014350Y006773D01*
X014236Y006726D01*
X014234Y006723D01*
X014153Y006805D01*
X014039Y006851D01*
X013917Y006851D01*
X013803Y006805D01*
X013717Y006718D01*
X013670Y006605D01*
X013670Y006482D01*
X013683Y006450D01*
X013643Y006490D01*
X013656Y006521D01*
X013656Y006644D01*
X013609Y006757D01*
X013523Y006844D01*
X013409Y006891D01*
X013287Y006891D01*
X013173Y006844D01*
X013087Y006757D01*
X013040Y006644D01*
X013040Y006521D01*
X013087Y006408D01*
X013173Y006321D01*
X013287Y006274D01*
X013296Y006274D01*
X013139Y006356D02*
X011668Y006356D01*
X011723Y006473D02*
X013060Y006473D01*
X013348Y006504D02*
X014647Y005205D01*
X014844Y005205D01*
X014943Y005047D01*
X014606Y004957D02*
X014334Y004957D01*
X014334Y004840D02*
X014606Y004840D01*
X014655Y004724D02*
X014334Y004724D01*
X014334Y004607D02*
X015354Y004607D01*
X015354Y004490D02*
X014334Y004490D01*
X014334Y004374D02*
X014615Y004374D01*
X014915Y004374D02*
X015354Y004374D01*
X015354Y004257D02*
X015035Y004257D01*
X015074Y004141D02*
X015354Y004141D01*
X015354Y004024D02*
X015066Y004024D01*
X015006Y003907D02*
X015354Y003907D01*
X015354Y003791D02*
X014334Y003791D01*
X014318Y003674D02*
X015354Y003674D01*
X015354Y003558D02*
X014236Y003558D01*
X013939Y003485D02*
X013880Y003426D01*
X014236Y003441D02*
X015354Y003441D01*
X015354Y003324D02*
X014236Y003324D01*
X014236Y003208D02*
X015354Y003208D01*
X015354Y003091D02*
X014155Y003091D01*
X014168Y002974D02*
X015354Y002974D01*
X015317Y002882D02*
X015671Y002528D01*
X015671Y002016D01*
X015356Y001701D01*
X015159Y001701D01*
X014490Y001661D01*
X014628Y001642D02*
X014224Y001642D01*
X014224Y001760D01*
X014628Y001760D01*
X014628Y001642D01*
X014628Y001692D02*
X014224Y001692D01*
X014746Y001692D02*
X020592Y001692D01*
X020592Y001808D02*
X015337Y001808D01*
X015334Y001830D02*
X015312Y001913D01*
X015279Y001993D01*
X015236Y002068D01*
X015215Y002095D01*
X015295Y002062D01*
X015417Y002062D01*
X015530Y002109D01*
X015617Y002195D01*
X015664Y002309D01*
X015664Y002431D01*
X015617Y002545D01*
X015530Y002631D01*
X015417Y002678D01*
X015295Y002678D01*
X015181Y002631D01*
X015119Y002569D01*
X012406Y002569D01*
X012665Y002849D01*
X012740Y002849D01*
X012853Y002896D01*
X012940Y002983D01*
X012976Y003070D01*
X013171Y003070D01*
X013171Y003387D01*
X012885Y003387D01*
X012853Y003419D01*
X012740Y003466D01*
X012617Y003466D01*
X012504Y003419D01*
X012414Y003324D02*
X012287Y003324D01*
X012287Y003208D02*
X012371Y003208D01*
X012679Y003157D02*
X012206Y002646D01*
X011498Y002646D01*
X011104Y002803D02*
X011104Y002331D01*
X011143Y002291D01*
X011143Y002094D01*
X011734Y002094D01*
X011734Y001634D01*
X011426Y001692D02*
X011420Y001692D01*
X011426Y001695D02*
X011426Y001573D01*
X011473Y001459D01*
X011559Y001373D01*
X011673Y001326D01*
X011795Y001326D01*
X011908Y001373D01*
X011920Y001385D01*
X011940Y001338D01*
X012077Y001201D01*
X011380Y001201D01*
X011389Y001209D01*
X011410Y001246D01*
X011420Y001286D01*
X011420Y001484D01*
X011104Y001484D01*
X011104Y001563D01*
X011420Y001563D01*
X011420Y001761D01*
X011410Y001802D01*
X011389Y001838D01*
X011359Y001867D01*
X011353Y001871D01*
X011378Y001896D01*
X011535Y001896D01*
X011535Y001871D01*
X011473Y001808D01*
X011406Y001808D01*
X011473Y001808D02*
X011426Y001695D01*
X011420Y001575D02*
X011426Y001575D01*
X011420Y001459D02*
X011473Y001459D01*
X011420Y001342D02*
X011633Y001342D01*
X011834Y001342D02*
X011938Y001342D01*
X012053Y001225D02*
X011398Y001225D01*
X010731Y001225D02*
X006512Y001225D01*
X006319Y001342D02*
X006286Y001342D01*
X006319Y001459D02*
X006182Y001459D01*
X006121Y001575D02*
X006319Y001575D01*
X006319Y001692D02*
X006084Y001692D01*
X006084Y001689D02*
X006077Y001779D01*
X006077Y006425D01*
X006084Y006516D01*
X006140Y006688D01*
X006246Y006834D01*
X006393Y006940D01*
X006565Y006996D01*
X006655Y007004D01*
X020592Y007004D01*
X020592Y001201D01*
X015118Y001201D01*
X015122Y001204D01*
X015183Y001265D01*
X015236Y001334D01*
X015279Y001409D01*
X015312Y001488D01*
X015334Y001572D01*
X015344Y001642D01*
X014746Y001642D01*
X014746Y001760D01*
X015344Y001760D01*
X015334Y001830D01*
X015307Y001925D02*
X020592Y001925D01*
X020592Y002042D02*
X015251Y002042D01*
X015580Y002158D02*
X016494Y002158D01*
X016682Y002158D02*
X020592Y002158D01*
X020592Y002275D02*
X018652Y002275D01*
X018769Y002391D02*
X020592Y002391D01*
X020592Y002508D02*
X018885Y002508D01*
X019002Y002625D02*
X020592Y002625D01*
X020592Y002741D02*
X019098Y002741D01*
X018899Y002803D02*
X018899Y003787D01*
X019450Y004378D01*
X019529Y004457D01*
X019529Y004654D01*
X019837Y004607D02*
X020592Y004607D01*
X020592Y004490D02*
X019795Y004490D01*
X019727Y004374D02*
X020592Y004374D01*
X020592Y004257D02*
X019611Y004257D01*
X019501Y004141D02*
X020592Y004141D01*
X020592Y004024D02*
X019392Y004024D01*
X019283Y003907D02*
X020592Y003907D01*
X020592Y003791D02*
X019174Y003791D01*
X019098Y003674D02*
X020592Y003674D01*
X020592Y003558D02*
X019098Y003558D01*
X019098Y003441D02*
X020592Y003441D01*
X020592Y003324D02*
X019098Y003324D01*
X019098Y003208D02*
X020592Y003208D01*
X020592Y003091D02*
X019098Y003091D01*
X019098Y002974D02*
X020592Y002974D01*
X020592Y002858D02*
X019098Y002858D01*
X018899Y002803D02*
X018506Y002409D01*
X017088Y002409D01*
X016655Y002842D01*
X016340Y002842D01*
X015868Y003315D01*
X016143Y003512D02*
X016576Y003079D01*
X016734Y003079D01*
X017128Y002685D01*
X018309Y002685D01*
X018584Y002961D01*
X018584Y003905D01*
X019175Y004496D01*
X019175Y004890D01*
X019372Y005087D01*
X019529Y005087D01*
X019820Y005190D02*
X020592Y005190D01*
X020592Y005073D02*
X019837Y005073D01*
X019809Y004957D02*
X020592Y004957D01*
X020592Y004840D02*
X019778Y004840D01*
X019834Y004724D02*
X020592Y004724D01*
X019077Y005073D02*
X016972Y005073D01*
X016972Y005190D02*
X019194Y005190D01*
X019313Y005307D02*
X016972Y005307D01*
X016537Y005323D02*
X016065Y005795D01*
X015651Y005795D01*
X015612Y005756D01*
X014943Y005756D02*
X014490Y005756D01*
X013978Y006268D01*
X013978Y006543D01*
X014057Y006543D01*
X013674Y006473D02*
X013660Y006473D01*
X013348Y006504D02*
X013348Y006583D01*
X013066Y006706D02*
X011685Y006706D01*
X011727Y006589D02*
X013040Y006589D01*
X013152Y006823D02*
X011550Y006823D01*
X011288Y006823D02*
X007755Y006823D01*
X007779Y006798D02*
X007697Y006880D01*
X006400Y006880D01*
X006319Y006798D01*
X006319Y006013D01*
X006400Y005931D01*
X007697Y005931D01*
X007779Y006013D01*
X007779Y006798D01*
X007779Y006706D02*
X010511Y006706D01*
X010511Y006589D02*
X010095Y006589D01*
X010212Y006473D02*
X010511Y006473D01*
X010511Y006356D02*
X010319Y006356D01*
X010319Y006240D02*
X010511Y006240D01*
X010565Y006123D02*
X010319Y006123D01*
X010319Y006006D02*
X010511Y006006D01*
X010511Y005890D02*
X010401Y005890D01*
X010868Y005815D02*
X010887Y005815D01*
X011104Y005598D01*
X009823Y005307D02*
X009019Y005307D01*
X009019Y005190D02*
X009823Y005190D01*
X009823Y004957D02*
X009019Y004957D01*
X009019Y004840D02*
X009823Y004840D01*
X009825Y004724D02*
X009019Y004724D01*
X008543Y004724D02*
X008429Y004724D01*
X008429Y004840D02*
X008543Y004840D01*
X008543Y004957D02*
X008420Y004957D01*
X008429Y004607D02*
X008543Y004607D01*
X008543Y004490D02*
X008429Y004490D01*
X009019Y004490D02*
X009842Y004490D01*
X009915Y004607D02*
X009019Y004607D01*
X007895Y004142D02*
X007895Y002154D01*
X007954Y002094D01*
X008263Y002042D02*
X010728Y002042D01*
X010728Y001925D02*
X008218Y001925D01*
X008069Y001808D02*
X010723Y001808D01*
X010709Y001692D02*
X007779Y001692D01*
X007779Y001808D02*
X007840Y001808D01*
X007779Y001575D02*
X010709Y001575D01*
X010709Y001459D02*
X007779Y001459D01*
X007779Y001342D02*
X010709Y001342D01*
X012403Y001661D02*
X012482Y001701D01*
X013584Y001701D02*
X013663Y001779D01*
X015240Y001342D02*
X020592Y001342D01*
X020592Y001459D02*
X015300Y001459D01*
X015335Y001575D02*
X020592Y001575D01*
X020592Y001225D02*
X015143Y001225D01*
X012009Y002370D02*
X011734Y002094D01*
X012009Y002370D02*
X015356Y002370D01*
X015664Y002391D02*
X015841Y002391D01*
X015862Y002370D02*
X015862Y002370D01*
X015957Y002275D02*
X015650Y002275D01*
X016061Y002453D02*
X016588Y002453D01*
X016061Y002453D02*
X015553Y002961D01*
X015553Y004890D01*
X015592Y004929D01*
X015592Y005028D01*
X015612Y005047D01*
X015324Y004724D02*
X015230Y004724D01*
X014497Y005073D02*
X014334Y005073D01*
X014334Y005190D02*
X014381Y005190D01*
X014264Y005307D02*
X014177Y005307D01*
X014147Y005423D02*
X014136Y005423D01*
X014037Y005522D02*
X014037Y005522D01*
X014031Y005540D02*
X014019Y005540D01*
X013914Y005657D02*
X013902Y005657D01*
X012737Y005190D02*
X012529Y005190D01*
X012412Y005073D02*
X012736Y005073D01*
X012736Y004957D02*
X010928Y004957D01*
X010928Y004840D02*
X013092Y004840D01*
X013092Y004791D02*
X012736Y004791D01*
X012736Y004514D01*
X012747Y004474D01*
X012757Y004457D01*
X012747Y004439D01*
X012736Y004399D01*
X012736Y004122D01*
X013092Y004122D01*
X013092Y004791D01*
X013092Y004724D02*
X013210Y004724D01*
X013210Y004607D02*
X013092Y004607D01*
X013092Y004490D02*
X013210Y004490D01*
X013210Y004374D02*
X013092Y004374D01*
X013092Y004257D02*
X013210Y004257D01*
X013210Y004141D02*
X013092Y004141D01*
X013092Y004024D02*
X012306Y004024D01*
X012306Y003907D02*
X012736Y003907D01*
X012736Y003791D02*
X012233Y003791D01*
X012287Y003674D02*
X012754Y003674D01*
X012835Y003558D02*
X012287Y003558D01*
X012800Y003441D02*
X013171Y003441D01*
X013210Y003426D02*
X013151Y003485D01*
X013171Y003558D02*
X013250Y003558D01*
X013210Y003674D02*
X013171Y003674D01*
X013210Y003791D02*
X013092Y003791D01*
X013092Y003907D02*
X013210Y003907D01*
X012736Y004141D02*
X011970Y004141D01*
X011931Y004122D02*
X011931Y004535D01*
X011891Y004575D01*
X011891Y004478D02*
X011693Y004478D01*
X011653Y004467D01*
X011617Y004446D01*
X011587Y004417D01*
X011566Y004380D01*
X011555Y004340D01*
X011555Y004161D01*
X011891Y004161D01*
X011891Y004478D01*
X011891Y004374D02*
X011970Y004374D01*
X012297Y004374D02*
X012736Y004374D01*
X012743Y004490D02*
X011227Y004490D01*
X011227Y004607D02*
X011138Y004607D01*
X011554Y004607D02*
X012736Y004607D01*
X012736Y004724D02*
X011538Y004724D01*
X011227Y004724D02*
X011138Y004724D01*
X011554Y004374D02*
X011564Y004374D01*
X011554Y004257D02*
X011555Y004257D01*
X011521Y004141D02*
X011891Y004141D01*
X011891Y004257D02*
X011970Y004257D01*
X012306Y004257D02*
X012736Y004257D01*
X011555Y004024D02*
X011533Y004024D01*
X011535Y003907D02*
X011555Y003907D01*
X011535Y003791D02*
X011629Y003791D01*
X011574Y003674D02*
X011535Y003674D01*
X011535Y003558D02*
X011574Y003558D01*
X013171Y003324D02*
X013250Y003324D01*
X013250Y003208D02*
X013171Y003208D01*
X013171Y003091D02*
X013250Y003091D01*
X013505Y003091D02*
X013580Y003091D01*
X013552Y002974D02*
X012932Y002974D01*
X012761Y002858D02*
X013569Y002858D01*
X013643Y002741D02*
X012565Y002741D01*
X012457Y002625D02*
X015175Y002625D01*
X015491Y002741D02*
X014076Y002741D01*
X014151Y002858D02*
X015374Y002858D01*
X015317Y002882D02*
X014450Y002882D01*
X014411Y002921D01*
X015537Y002625D02*
X015608Y002625D01*
X015632Y002508D02*
X015724Y002508D01*
X016846Y002275D02*
X016942Y002275D01*
X016813Y003394D02*
X016773Y003394D01*
X016537Y003630D01*
X016537Y005323D01*
X016972Y005423D02*
X020592Y005423D01*
X020592Y005540D02*
X016972Y005540D01*
X016972Y005657D02*
X020592Y005657D01*
X020592Y005773D02*
X016973Y005773D01*
X016963Y005890D02*
X020592Y005890D01*
X020592Y006006D02*
X016839Y006006D01*
X016716Y006123D02*
X020592Y006123D01*
X020592Y006240D02*
X016592Y006240D01*
X016469Y006356D02*
X020592Y006356D01*
X020592Y006473D02*
X016345Y006473D01*
X016065Y006465D02*
X015612Y006465D01*
X016065Y006465D02*
X016773Y005795D01*
X016773Y004339D01*
X017049Y004063D01*
X017049Y003748D01*
X017541Y004063D02*
X017817Y003787D01*
X017817Y003551D01*
X018210Y003531D02*
X018210Y004063D01*
X018547Y004257D02*
X018655Y004257D01*
X018771Y004374D02*
X018510Y004374D01*
X018888Y004490D02*
X016972Y004490D01*
X016972Y004607D02*
X018976Y004607D01*
X018976Y004724D02*
X016972Y004724D01*
X016972Y004840D02*
X018976Y004840D01*
X018976Y004957D02*
X016972Y004957D01*
X017019Y004374D02*
X017241Y004374D01*
X017204Y004257D02*
X017136Y004257D01*
X017841Y004374D02*
X017910Y004374D01*
X016143Y003709D02*
X016143Y003512D01*
X016143Y003709D02*
X016065Y003709D01*
X018210Y003531D02*
X018269Y003472D01*
X023820Y003441D02*
X024252Y003441D01*
X024252Y003324D02*
X023820Y003324D01*
X023820Y003208D02*
X024252Y003208D01*
X024728Y003208D02*
X026474Y003208D01*
X026467Y003190D02*
X026467Y003015D01*
X026533Y002853D01*
X026657Y002730D01*
X026819Y002663D01*
X027594Y002663D01*
X027755Y002730D01*
X027879Y002853D01*
X027946Y003015D01*
X027946Y003190D01*
X027879Y003351D01*
X027755Y003475D01*
X027594Y003542D01*
X026819Y003542D01*
X026657Y003475D01*
X026533Y003351D01*
X026467Y003190D01*
X026467Y003091D02*
X024728Y003091D01*
X024728Y002974D02*
X026483Y002974D01*
X026532Y002858D02*
X024728Y002858D01*
X024252Y002858D02*
X023820Y002858D01*
X023820Y002974D02*
X024252Y002974D01*
X024252Y003091D02*
X023820Y003091D01*
X024728Y003324D02*
X025444Y003324D01*
X025475Y003293D02*
X026182Y003293D01*
X026263Y003375D01*
X026263Y004003D01*
X026203Y004063D01*
X026263Y004123D01*
X026263Y004289D01*
X026318Y004267D01*
X026441Y004267D01*
X026484Y004284D01*
X026481Y004279D01*
X026459Y004210D01*
X026448Y004143D01*
X027165Y004143D01*
X027165Y004061D01*
X027247Y004061D01*
X027247Y003643D01*
X027542Y003643D01*
X027614Y003655D01*
X027683Y003677D01*
X027747Y003710D01*
X027805Y003752D01*
X027856Y003803D01*
X027899Y003862D01*
X027932Y003926D01*
X027954Y003995D01*
X027965Y004061D01*
X027247Y004061D01*
X027247Y004143D01*
X027165Y004143D01*
X027165Y004561D01*
X026870Y004561D01*
X026799Y004550D01*
X026730Y004528D01*
X026684Y004504D01*
X026688Y004513D01*
X026688Y004636D01*
X026643Y004743D01*
X026657Y004730D01*
X026819Y004663D01*
X027594Y004663D01*
X027755Y004730D01*
X027879Y004853D01*
X027946Y005015D01*
X027946Y005190D01*
X028218Y005190D01*
X028218Y005073D02*
X027946Y005073D01*
X027946Y005190D02*
X027879Y005351D01*
X027755Y005475D01*
X027594Y005542D01*
X026819Y005542D01*
X026657Y005475D01*
X026618Y005436D01*
X026618Y005697D01*
X026342Y005973D01*
X026303Y006012D01*
X026303Y006326D01*
X026221Y006407D01*
X025515Y006407D01*
X025433Y006326D01*
X025433Y005698D01*
X025493Y005638D01*
X025452Y005596D01*
X024924Y005596D01*
X024851Y005524D01*
X024834Y005554D01*
X024804Y005584D01*
X024768Y005605D01*
X024727Y005616D01*
X024544Y005616D01*
X024544Y005288D01*
X024455Y005288D01*
X024455Y005616D01*
X024334Y005616D01*
X024334Y005697D01*
X024392Y005754D01*
X024843Y005754D01*
X024866Y005731D01*
X024980Y005684D01*
X025102Y005684D01*
X025216Y005731D01*
X025302Y005818D01*
X025349Y005931D01*
X025349Y006053D01*
X025302Y006167D01*
X025216Y006253D01*
X025102Y006300D01*
X024980Y006300D01*
X024866Y006253D01*
X024843Y006230D01*
X024194Y006230D01*
X023997Y006033D01*
X023858Y005894D01*
X023858Y004437D01*
X024252Y004043D01*
X024252Y002508D01*
X023820Y002508D01*
X023820Y002625D02*
X024252Y002625D01*
X024252Y002741D02*
X023820Y002741D01*
X024252Y002508D02*
X024667Y002092D01*
X025080Y002092D01*
X025103Y002069D01*
X025216Y002022D01*
X025338Y002022D01*
X025452Y002069D01*
X025538Y002156D01*
X025585Y002269D01*
X025585Y002392D01*
X025538Y002505D01*
X025452Y002592D01*
X025338Y002639D01*
X025216Y002639D01*
X025103Y002592D01*
X025080Y002569D01*
X024864Y002569D01*
X024728Y002705D01*
X024728Y004240D01*
X024588Y004380D01*
X024334Y004634D01*
X024334Y004872D01*
X024455Y004872D01*
X024455Y005200D01*
X024544Y005200D01*
X024544Y004872D01*
X024727Y004872D01*
X024768Y004883D01*
X024804Y004904D01*
X024834Y004934D01*
X024851Y004964D01*
X024924Y004892D01*
X025453Y004892D01*
X025472Y004911D01*
X025515Y004868D01*
X025590Y004868D01*
X025590Y004833D01*
X025475Y004833D01*
X025393Y004751D01*
X025393Y004123D01*
X025454Y004063D01*
X025393Y004003D01*
X025393Y003375D01*
X025475Y003293D01*
X025393Y003441D02*
X024728Y003441D01*
X024728Y003558D02*
X025393Y003558D01*
X025393Y003674D02*
X024728Y003674D01*
X024728Y003791D02*
X025393Y003791D01*
X025393Y003907D02*
X024728Y003907D01*
X024728Y004024D02*
X025415Y004024D01*
X025393Y004141D02*
X024728Y004141D01*
X024711Y004257D02*
X025393Y004257D01*
X025393Y004374D02*
X024595Y004374D01*
X024478Y004490D02*
X025393Y004490D01*
X025393Y004607D02*
X024361Y004607D01*
X024334Y004724D02*
X025393Y004724D01*
X025590Y004840D02*
X024334Y004840D01*
X024455Y004957D02*
X024544Y004957D01*
X024847Y004957D02*
X024859Y004957D01*
X024544Y005073D02*
X024455Y005073D01*
X024455Y005190D02*
X024544Y005190D01*
X024544Y005307D02*
X024455Y005307D01*
X024455Y005423D02*
X024544Y005423D01*
X024544Y005540D02*
X024455Y005540D01*
X024334Y005657D02*
X025474Y005657D01*
X024867Y005540D02*
X024842Y005540D01*
X025258Y005773D02*
X025433Y005773D01*
X025433Y005890D02*
X025332Y005890D01*
X025349Y006006D02*
X025433Y006006D01*
X025433Y006123D02*
X025320Y006123D01*
X025229Y006240D02*
X025433Y006240D01*
X025463Y006356D02*
X023820Y006356D01*
X023820Y006240D02*
X024853Y006240D01*
X024087Y006123D02*
X023820Y006123D01*
X023820Y006006D02*
X023970Y006006D01*
X023858Y005890D02*
X023820Y005890D01*
X023820Y005773D02*
X023858Y005773D01*
X023858Y005657D02*
X023820Y005657D01*
X023820Y005540D02*
X023858Y005540D01*
X023858Y005423D02*
X023820Y005423D01*
X023820Y005307D02*
X023858Y005307D01*
X023858Y005190D02*
X023820Y005190D01*
X023820Y005073D02*
X023858Y005073D01*
X023858Y004957D02*
X023820Y004957D01*
X023820Y004840D02*
X023858Y004840D01*
X023858Y004724D02*
X023820Y004724D01*
X023820Y004607D02*
X023858Y004607D01*
X023858Y004490D02*
X023820Y004490D01*
X023820Y004374D02*
X023921Y004374D01*
X023820Y004257D02*
X024037Y004257D01*
X024154Y004141D02*
X023820Y004141D01*
X023820Y004024D02*
X024252Y004024D01*
X024252Y003907D02*
X023820Y003907D01*
X023820Y003791D02*
X024252Y003791D01*
X024252Y003674D02*
X023820Y003674D01*
X023820Y003558D02*
X024252Y003558D01*
X026213Y003324D02*
X026522Y003324D01*
X026623Y003441D02*
X026263Y003441D01*
X026263Y003558D02*
X028218Y003558D01*
X028218Y003674D02*
X027674Y003674D01*
X027844Y003791D02*
X028218Y003791D01*
X028218Y003907D02*
X027922Y003907D01*
X027959Y004024D02*
X028218Y004024D01*
X028218Y004141D02*
X027247Y004141D01*
X027247Y004143D02*
X027965Y004143D01*
X027954Y004210D01*
X027932Y004279D01*
X027899Y004343D01*
X027856Y004401D01*
X027805Y004452D01*
X027747Y004495D01*
X027683Y004528D01*
X027614Y004550D01*
X027542Y004561D01*
X027247Y004561D01*
X027247Y004143D01*
X027165Y004141D02*
X026263Y004141D01*
X026263Y004257D02*
X026474Y004257D01*
X026448Y004061D02*
X026459Y003995D01*
X026481Y003926D01*
X026514Y003862D01*
X026556Y003803D01*
X026607Y003752D01*
X026666Y003710D01*
X026730Y003677D01*
X026799Y003655D01*
X026870Y003643D01*
X027165Y003643D01*
X027165Y004061D01*
X026448Y004061D01*
X026454Y004024D02*
X026242Y004024D01*
X026263Y003907D02*
X026490Y003907D01*
X026569Y003791D02*
X026263Y003791D01*
X026263Y003674D02*
X026739Y003674D01*
X027165Y003674D02*
X027247Y003674D01*
X027247Y003791D02*
X027165Y003791D01*
X027165Y003907D02*
X027247Y003907D01*
X027247Y004024D02*
X027165Y004024D01*
X027165Y004257D02*
X027247Y004257D01*
X027247Y004374D02*
X027165Y004374D01*
X027165Y004490D02*
X027247Y004490D01*
X027753Y004490D02*
X028218Y004490D01*
X028218Y004374D02*
X027876Y004374D01*
X027939Y004257D02*
X028218Y004257D01*
X028218Y004607D02*
X026688Y004607D01*
X026671Y004724D02*
X026651Y004724D01*
X027741Y004724D02*
X028218Y004724D01*
X028218Y004840D02*
X027866Y004840D01*
X027922Y004957D02*
X028218Y004957D01*
X028218Y005307D02*
X027898Y005307D01*
X027807Y005423D02*
X028218Y005423D01*
X028218Y005540D02*
X027599Y005540D01*
X027594Y005663D02*
X027755Y005730D01*
X027879Y005853D01*
X027946Y006015D01*
X027946Y006190D01*
X027879Y006351D01*
X027755Y006475D01*
X027594Y006542D01*
X026819Y006542D01*
X026657Y006475D01*
X026533Y006351D01*
X026467Y006190D01*
X026467Y006015D01*
X026533Y005853D01*
X026657Y005730D01*
X026819Y005663D01*
X027594Y005663D01*
X027799Y005773D02*
X028218Y005773D01*
X028218Y005890D02*
X027894Y005890D01*
X027943Y006006D02*
X028218Y006006D01*
X028218Y006123D02*
X027946Y006123D01*
X027925Y006240D02*
X028218Y006240D01*
X028218Y006356D02*
X027874Y006356D01*
X027758Y006473D02*
X028214Y006473D01*
X028211Y006516D02*
X028218Y006425D01*
X028218Y001779D01*
X028211Y001689D01*
X028155Y001517D01*
X028048Y001371D01*
X027902Y001264D01*
X027730Y001208D01*
X027639Y001201D01*
X023820Y001201D01*
X023820Y007004D01*
X027639Y007004D01*
X027730Y006996D01*
X027902Y006940D01*
X028048Y006834D01*
X028155Y006688D01*
X028211Y006516D01*
X028187Y006589D02*
X023820Y006589D01*
X023820Y006706D02*
X028141Y006706D01*
X028057Y006823D02*
X023820Y006823D01*
X023820Y006939D02*
X027904Y006939D01*
X026655Y006473D02*
X023820Y006473D01*
X026272Y006356D02*
X026538Y006356D01*
X026487Y006240D02*
X026303Y006240D01*
X026303Y006123D02*
X026467Y006123D01*
X026470Y006006D02*
X026308Y006006D01*
X026425Y005890D02*
X026518Y005890D01*
X026542Y005773D02*
X026614Y005773D01*
X026618Y005657D02*
X028218Y005657D01*
X026814Y005540D02*
X026618Y005540D01*
X020592Y005307D02*
X019745Y005307D01*
X020592Y006589D02*
X016222Y006589D01*
X015948Y006706D02*
X020592Y006706D01*
X020592Y006823D02*
X014109Y006823D01*
X013847Y006823D02*
X013544Y006823D01*
X013631Y006706D02*
X013712Y006706D01*
X013670Y006589D02*
X013656Y006589D01*
X014411Y006465D02*
X014943Y006465D01*
X014606Y006706D02*
X014605Y006706D01*
X011419Y006543D02*
X010927Y006543D01*
X010868Y006484D01*
X008805Y006589D02*
X007779Y006589D01*
X007779Y006473D02*
X008689Y006473D01*
X008572Y006356D02*
X007779Y006356D01*
X007779Y006240D02*
X008385Y006240D01*
X008385Y006123D02*
X007779Y006123D01*
X007773Y006006D02*
X008385Y006006D01*
X008385Y005890D02*
X006077Y005890D01*
X006077Y006006D02*
X006325Y006006D01*
X006319Y006123D02*
X006077Y006123D01*
X006077Y006240D02*
X006319Y006240D01*
X006319Y006356D02*
X006077Y006356D01*
X006081Y006473D02*
X006319Y006473D01*
X006319Y006589D02*
X006108Y006589D01*
X006153Y006706D02*
X006319Y006706D01*
X006343Y006823D02*
X006238Y006823D01*
X006391Y006939D02*
X020592Y006939D01*
X009628Y005773D02*
X009509Y005773D01*
X009509Y005657D02*
X009628Y005657D01*
X009628Y005540D02*
X009509Y005540D01*
X009509Y005423D02*
X009628Y005423D01*
X009230Y005423D02*
X009099Y005423D01*
X008463Y005423D02*
X006077Y005423D01*
X006077Y005540D02*
X008385Y005540D01*
X008385Y005657D02*
X006077Y005657D01*
X006077Y005773D02*
X008385Y005773D01*
X007340Y005307D02*
X007177Y005374D01*
X007000Y005374D01*
X006836Y005307D01*
X007533Y003208D02*
X007696Y003208D01*
X008094Y002741D02*
X010905Y002741D01*
X010905Y002625D02*
X008094Y002625D01*
X008094Y002508D02*
X010769Y002508D01*
X010728Y002391D02*
X008094Y002391D01*
X008210Y002275D02*
X010728Y002275D01*
X010728Y002158D02*
X008262Y002158D01*
X007696Y002275D02*
X006077Y002275D01*
X006077Y002391D02*
X007696Y002391D01*
X007696Y002508D02*
X006077Y002508D01*
X006077Y002158D02*
X006364Y002158D01*
X006319Y002042D02*
X006077Y002042D01*
X006077Y001925D02*
X006319Y001925D01*
X006319Y001808D02*
X006077Y001808D01*
X010884Y002858D02*
X010905Y002858D01*
X011556Y002974D02*
X012239Y002974D01*
X012132Y002858D02*
X011721Y002858D01*
X011673Y003091D02*
X012347Y003091D01*
X023820Y002391D02*
X024368Y002391D01*
X024484Y002275D02*
X023820Y002275D01*
X023820Y002158D02*
X024601Y002158D01*
X025170Y002042D02*
X023820Y002042D01*
X023820Y001925D02*
X026504Y001925D01*
X026533Y001853D02*
X026467Y002015D01*
X026467Y002190D01*
X026533Y002351D01*
X026657Y002475D01*
X026819Y002542D01*
X027594Y002542D01*
X027755Y002475D01*
X027879Y002351D01*
X027946Y002190D01*
X027946Y002015D01*
X027879Y001853D01*
X027755Y001730D01*
X027594Y001663D01*
X026819Y001663D01*
X026657Y001730D01*
X026533Y001853D01*
X026578Y001808D02*
X023820Y001808D01*
X023820Y001692D02*
X026748Y001692D01*
X026467Y002042D02*
X025385Y002042D01*
X025539Y002158D02*
X026467Y002158D01*
X026502Y002275D02*
X025585Y002275D01*
X025585Y002391D02*
X026573Y002391D01*
X026737Y002508D02*
X025536Y002508D01*
X025373Y002625D02*
X028218Y002625D01*
X028218Y002741D02*
X027767Y002741D01*
X027881Y002858D02*
X028218Y002858D01*
X028218Y002974D02*
X027929Y002974D01*
X027946Y003091D02*
X028218Y003091D01*
X028218Y003208D02*
X027939Y003208D01*
X027890Y003324D02*
X028218Y003324D01*
X028218Y003441D02*
X027790Y003441D01*
X026645Y002741D02*
X024728Y002741D01*
X024808Y002625D02*
X025182Y002625D01*
X027676Y002508D02*
X028218Y002508D01*
X028218Y002391D02*
X027839Y002391D01*
X027911Y002275D02*
X028218Y002275D01*
X028218Y002158D02*
X027946Y002158D01*
X027946Y002042D02*
X028218Y002042D01*
X028218Y001925D02*
X027909Y001925D01*
X027834Y001808D02*
X028218Y001808D01*
X028211Y001692D02*
X027664Y001692D01*
X028174Y001575D02*
X023820Y001575D01*
X023820Y001459D02*
X028112Y001459D01*
X028009Y001342D02*
X023820Y001342D01*
X023820Y001225D02*
X027782Y001225D01*
D24*
X015120Y003866D02*
X014883Y003630D01*
X014450Y003630D01*
X014411Y003591D01*
X014411Y002921D01*
X014411Y002842D01*
X014175Y002606D01*
X013506Y002606D01*
X013230Y002882D01*
X013230Y002921D01*
X015120Y003866D02*
X015120Y004299D01*
X014962Y004457D01*
X014450Y004457D01*
D25*
X024500Y004762D02*
X024962Y004417D01*
X024500Y004762D02*
X024500Y005244D01*
M02*
