G75*
%MOIN*%
%OFA0B0*%
%FSLAX24Y24*%
%IPPOS*%
%LPD*%
%AMOC8*
5,1,8,0,0,1.08239X$1,22.5*
%
%ADD10C,0.0060*%
%ADD11C,0.0040*%
%ADD12C,0.0079*%
%ADD13C,0.0100*%
D10*
X012247Y002377D02*
X012247Y002600D01*
X012303Y002655D01*
X012414Y002655D01*
X012469Y002600D01*
X012469Y002377D01*
X012414Y002321D01*
X012303Y002321D01*
X012247Y002377D01*
X012600Y002321D02*
X012711Y002321D01*
X012656Y002321D02*
X012656Y002655D01*
X012711Y002655D02*
X012600Y002655D01*
X013141Y002655D02*
X013364Y002433D01*
X013308Y002488D02*
X013141Y002321D01*
X013364Y002321D02*
X013364Y002655D01*
X013727Y002655D02*
X013727Y002321D01*
X013504Y002321D01*
X013866Y002377D02*
X013922Y002321D01*
X014033Y002321D01*
X014089Y002377D01*
X014089Y002600D01*
X014033Y002655D01*
X013922Y002655D01*
X013866Y002600D01*
X014191Y002896D02*
X014247Y002840D01*
X014414Y002840D01*
X014414Y003174D01*
X014247Y003174D01*
X014191Y003118D01*
X014191Y002896D01*
X014553Y002840D02*
X014553Y003174D01*
X014776Y003174D02*
X014776Y002840D01*
X014665Y002951D01*
X014553Y002840D01*
X014916Y002896D02*
X014972Y002840D01*
X015083Y002840D01*
X015139Y002896D01*
X015083Y003007D02*
X014972Y003007D01*
X014916Y002951D01*
X014916Y002896D01*
X015083Y003007D02*
X015139Y003063D01*
X015139Y003118D01*
X015083Y003174D01*
X014972Y003174D01*
X014916Y003118D01*
X015362Y001868D02*
X015529Y001868D01*
X015529Y001534D01*
X015362Y001534D01*
X015307Y001590D01*
X015307Y001812D01*
X015362Y001868D01*
X015669Y001868D02*
X015669Y001534D01*
X015892Y001868D01*
X015892Y001534D01*
X016032Y001590D02*
X016032Y001701D01*
X016143Y001701D01*
X016032Y001812D02*
X016087Y001868D01*
X016199Y001868D01*
X016254Y001812D01*
X016254Y001590D01*
X016199Y001534D01*
X016087Y001534D01*
X016032Y001590D01*
X021196Y002833D02*
X021363Y002833D01*
X021419Y002889D01*
X021363Y002944D01*
X021196Y002944D01*
X021196Y003000D02*
X021196Y002833D01*
X021558Y002833D02*
X021558Y003000D01*
X021614Y003056D01*
X021725Y003056D01*
X021781Y003000D01*
X021921Y003056D02*
X022088Y003056D01*
X022144Y003000D01*
X022144Y002889D01*
X022088Y002833D01*
X021921Y002833D01*
X021781Y002833D02*
X021781Y003167D01*
X021363Y003056D02*
X021252Y003056D01*
X021196Y003000D01*
X022283Y003056D02*
X022450Y003056D01*
X022506Y003000D01*
X022450Y002944D01*
X022339Y002944D01*
X022283Y002889D01*
X022339Y002833D01*
X022506Y002833D01*
X022646Y002833D02*
X022813Y002833D01*
X022869Y002889D01*
X022813Y002944D01*
X022646Y002944D01*
X022646Y003000D02*
X022646Y002833D01*
X023008Y002889D02*
X023064Y002833D01*
X023175Y002833D01*
X023231Y002889D01*
X023175Y003000D02*
X023064Y003000D01*
X023008Y002944D01*
X023008Y002889D01*
X023175Y003000D02*
X023231Y003056D01*
X023231Y003111D01*
X023175Y003167D01*
X023064Y003167D01*
X023008Y003111D01*
X022813Y003056D02*
X022702Y003056D01*
X022646Y003000D01*
X022687Y003424D02*
X022520Y003424D01*
X022465Y003479D01*
X022465Y003702D01*
X022520Y003758D01*
X022687Y003758D01*
X022687Y003424D01*
X022813Y003424D02*
X022869Y003424D01*
X022869Y003479D01*
X022813Y003479D01*
X022813Y003424D01*
X023008Y003424D02*
X023120Y003535D01*
X023231Y003424D01*
X023231Y003758D01*
X023371Y003758D02*
X023371Y003424D01*
X023594Y003424D02*
X023594Y003758D01*
X023594Y003591D02*
X023371Y003591D01*
X023008Y003424D02*
X023008Y003758D01*
X022869Y003646D02*
X022869Y003591D01*
X022813Y003591D01*
X022813Y003646D01*
X022869Y003646D01*
X022269Y003646D02*
X022158Y003646D01*
X022102Y003591D01*
X022102Y003424D01*
X022269Y003424D01*
X022325Y003479D01*
X022269Y003535D01*
X022102Y003535D01*
X021962Y003424D02*
X021962Y003646D01*
X021795Y003646D01*
X021740Y003591D01*
X021740Y003424D01*
X021600Y003424D02*
X021488Y003424D01*
X021544Y003424D02*
X021544Y003646D01*
X021600Y003646D01*
X021544Y003758D02*
X021544Y003813D01*
X021358Y003591D02*
X021302Y003646D01*
X021191Y003646D01*
X021135Y003591D01*
X021135Y003535D01*
X021358Y003535D01*
X021358Y003479D02*
X021358Y003591D01*
X021358Y003479D02*
X021302Y003424D01*
X021191Y003424D01*
X020996Y003424D02*
X020884Y003424D01*
X020940Y003424D02*
X020940Y003758D01*
X020996Y003758D01*
X021535Y004227D02*
X021591Y004172D01*
X021702Y004172D01*
X021758Y004227D01*
X021702Y004339D02*
X021535Y004339D01*
X021535Y004450D02*
X021535Y004227D01*
X021702Y004339D02*
X021758Y004394D01*
X021758Y004450D01*
X021702Y004506D01*
X021591Y004506D01*
X021535Y004450D01*
X022009Y004506D02*
X022121Y004394D01*
X022260Y004450D02*
X022483Y004227D01*
X022427Y004172D01*
X022316Y004172D01*
X022260Y004227D01*
X022260Y004450D01*
X022316Y004506D01*
X022427Y004506D01*
X022483Y004450D01*
X022483Y004227D01*
X022623Y004172D02*
X022846Y004172D01*
X022623Y004394D01*
X022623Y004450D01*
X022679Y004506D01*
X022790Y004506D01*
X022846Y004450D01*
X022009Y004506D02*
X022009Y004172D01*
X021898Y004172D02*
X022121Y004172D01*
X022027Y004795D02*
X022183Y004952D01*
X022183Y005014D01*
X022152Y005045D01*
X022183Y005202D01*
X022214Y005233D02*
X022214Y005233D01*
X022214Y005139D01*
X022277Y005077D01*
X022246Y005077D01*
X022246Y005077D01*
X022214Y004983D01*
X022183Y004952D01*
X022183Y005014D02*
X022371Y005045D01*
X022371Y005077D02*
X022277Y005077D01*
X022246Y005045D02*
X022183Y005108D01*
X022183Y005045D01*
X022152Y005045D02*
X022089Y005045D01*
X022120Y005076D02*
X022133Y005088D01*
X022142Y005103D01*
X022149Y005119D01*
X022153Y005135D01*
X022154Y005153D01*
X022152Y005170D01*
X022214Y005170D02*
X021871Y004827D01*
X021871Y004795D01*
X021871Y004827D02*
X021871Y005545D01*
X022621Y005545D01*
X022621Y004795D01*
X022308Y005014D02*
X022291Y005016D01*
X022273Y005015D01*
X022257Y005011D01*
X022241Y005004D01*
X022226Y004995D01*
X022214Y004982D01*
X022371Y005077D02*
X022464Y005170D01*
X022464Y005171D02*
X022465Y005148D01*
X022462Y005125D01*
X022455Y005103D01*
X022445Y005082D01*
X022431Y005064D01*
X022415Y005048D01*
X022397Y005034D01*
X022376Y005024D01*
X022354Y005017D01*
X022331Y005014D01*
X022308Y005015D01*
X022153Y005170D02*
X022152Y005193D01*
X022155Y005216D01*
X022162Y005238D01*
X022172Y005259D01*
X022186Y005277D01*
X022202Y005293D01*
X022220Y005307D01*
X022241Y005317D01*
X022263Y005324D01*
X022286Y005327D01*
X022309Y005326D01*
X022308Y005326D02*
X022214Y005233D01*
X021683Y005295D02*
X021496Y005295D01*
X021496Y005170D01*
X021308Y005045D01*
X021121Y005045D01*
X021308Y005045D02*
X021496Y004920D01*
X021496Y004795D01*
X021496Y004920D02*
X021683Y005045D01*
X021496Y005170D01*
X021496Y005295D02*
X021308Y005295D01*
X021308Y005420D01*
X021683Y005420D01*
X021683Y005295D01*
X021871Y005545D02*
X021121Y005545D01*
X021121Y005670D02*
X023371Y005670D01*
X023371Y005545D02*
X022621Y005545D01*
X022902Y005358D02*
X022933Y005358D01*
X022933Y005264D01*
X022933Y005139D01*
X023089Y005139D01*
X023214Y005139D01*
X023339Y005139D01*
X023339Y005170D02*
X023214Y005170D01*
X023214Y005139D01*
X023214Y005108D01*
X023371Y005108D01*
X023152Y005045D02*
X023027Y005045D01*
X023089Y005045D02*
X023089Y005139D01*
X022933Y005139D02*
X022933Y005045D01*
X022902Y005045D01*
X023027Y004951D02*
X023089Y004951D01*
X023089Y004795D01*
X023089Y004951D02*
X023152Y004951D01*
X022902Y005045D02*
X022880Y005047D01*
X022858Y005051D01*
X022837Y005059D01*
X022818Y005070D01*
X022800Y005083D01*
X022784Y005099D01*
X022771Y005117D01*
X022760Y005136D01*
X022752Y005157D01*
X022748Y005179D01*
X022746Y005201D01*
X022621Y005201D01*
X022746Y005201D02*
X022748Y005225D01*
X022754Y005249D01*
X022763Y005272D01*
X022776Y005293D01*
X022792Y005311D01*
X022810Y005327D01*
X022831Y005340D01*
X022854Y005349D01*
X022878Y005355D01*
X022902Y005357D01*
X022933Y005264D02*
X023371Y005264D01*
X023152Y005795D02*
X022964Y005795D01*
X022964Y006108D01*
X022965Y006108D02*
X022963Y006122D01*
X022959Y006135D01*
X022951Y006147D01*
X022941Y006157D01*
X022929Y006165D01*
X022916Y006169D01*
X022902Y006171D01*
X022888Y006169D01*
X022875Y006165D01*
X022863Y006157D01*
X022853Y006147D01*
X022845Y006135D01*
X022841Y006122D01*
X022839Y006108D01*
X022839Y005795D01*
X022652Y005795D01*
X022652Y006108D01*
X022656Y006123D01*
X022664Y006137D01*
X022673Y006149D01*
X022686Y006159D01*
X022699Y006166D01*
X022714Y006170D01*
X022730Y006172D01*
X022746Y006170D01*
X022745Y006171D02*
X022727Y006175D01*
X022709Y006183D01*
X022693Y006193D01*
X022679Y006207D01*
X022668Y006222D01*
X022659Y006239D01*
X022653Y006257D01*
X022651Y006276D01*
X022652Y006296D01*
X022652Y006295D02*
X022652Y006483D01*
X022654Y006497D01*
X022658Y006510D01*
X022666Y006522D01*
X022675Y006531D01*
X022687Y006539D01*
X022700Y006543D01*
X022714Y006545D01*
X023152Y006545D01*
X023152Y005795D01*
X022496Y005858D02*
X022496Y006483D01*
X022495Y006483D02*
X022493Y006497D01*
X022489Y006510D01*
X022481Y006522D01*
X022472Y006531D01*
X022460Y006539D01*
X022447Y006543D01*
X022433Y006545D01*
X022058Y006545D01*
X022044Y006543D01*
X022031Y006539D01*
X022019Y006531D01*
X022010Y006522D01*
X022002Y006510D01*
X021998Y006497D01*
X021996Y006483D01*
X021996Y006233D01*
X022183Y006233D01*
X022183Y006358D01*
X022185Y006372D01*
X022189Y006385D01*
X022197Y006397D01*
X022207Y006407D01*
X022219Y006415D01*
X022232Y006419D01*
X022246Y006421D01*
X022260Y006419D01*
X022273Y006415D01*
X022285Y006407D01*
X022295Y006397D01*
X022303Y006385D01*
X022307Y006372D01*
X022309Y006358D01*
X022308Y006358D02*
X022308Y005952D01*
X022309Y005952D02*
X022307Y005938D01*
X022303Y005925D01*
X022295Y005913D01*
X022285Y005903D01*
X022273Y005895D01*
X022260Y005891D01*
X022246Y005889D01*
X022232Y005891D01*
X022219Y005895D01*
X022207Y005903D01*
X022197Y005913D01*
X022189Y005925D01*
X022185Y005938D01*
X022183Y005952D01*
X022183Y006045D01*
X021996Y006045D01*
X021996Y005858D01*
X021998Y005844D01*
X022002Y005831D01*
X022010Y005819D01*
X022019Y005810D01*
X022031Y005802D01*
X022044Y005798D01*
X022058Y005796D01*
X022058Y005795D02*
X022433Y005795D01*
X022433Y005796D02*
X022447Y005798D01*
X022460Y005802D01*
X022472Y005810D01*
X022481Y005819D01*
X022489Y005831D01*
X022493Y005844D01*
X022495Y005858D01*
X021871Y005795D02*
X021683Y005795D01*
X021652Y005983D01*
X021527Y005983D01*
X021496Y005795D01*
X021308Y005795D01*
X021433Y006545D01*
X021746Y006545D01*
X021871Y005795D01*
X021652Y006077D02*
X021527Y006077D01*
X021589Y006358D01*
X021652Y006077D01*
X022839Y006295D02*
X022839Y006358D01*
X022841Y006372D01*
X022845Y006385D01*
X022853Y006397D01*
X022863Y006407D01*
X022875Y006415D01*
X022888Y006419D01*
X022902Y006421D01*
X022916Y006419D01*
X022929Y006415D01*
X022941Y006407D01*
X022951Y006397D01*
X022959Y006385D01*
X022963Y006372D01*
X022965Y006358D01*
X022964Y006358D02*
X022964Y006295D01*
X022965Y006295D02*
X022963Y006281D01*
X022959Y006268D01*
X022951Y006256D01*
X022941Y006246D01*
X022929Y006238D01*
X022916Y006234D01*
X022902Y006232D01*
X022888Y006234D01*
X022875Y006238D01*
X022863Y006246D01*
X022853Y006256D01*
X022845Y006268D01*
X022841Y006281D01*
X022839Y006295D01*
X022954Y001829D02*
X022899Y001773D01*
X022899Y001662D01*
X022954Y001606D01*
X023121Y001606D01*
X023010Y001606D02*
X022899Y001495D01*
X022759Y001550D02*
X022759Y001662D01*
X022703Y001717D01*
X022592Y001717D01*
X022536Y001662D01*
X022536Y001606D01*
X022759Y001606D01*
X022759Y001550D02*
X022703Y001495D01*
X022592Y001495D01*
X022396Y001717D02*
X022285Y001495D01*
X022173Y001717D01*
X022034Y001550D02*
X021978Y001550D01*
X021978Y001495D01*
X022034Y001495D01*
X022034Y001550D01*
X021490Y001662D02*
X021267Y001662D01*
X021323Y001829D02*
X021490Y001662D01*
X021323Y001495D02*
X021323Y001829D01*
X022954Y001829D02*
X023121Y001829D01*
X023121Y001495D01*
D11*
X022816Y002154D02*
X022816Y002285D01*
X022783Y002285D01*
X022751Y002252D01*
X022718Y002285D01*
X022685Y002252D01*
X022685Y002154D01*
X022751Y002154D02*
X022751Y002252D01*
X022599Y002252D02*
X022599Y002187D01*
X022566Y002154D01*
X022501Y002154D01*
X022468Y002187D01*
X022468Y002252D01*
X022501Y002285D01*
X022566Y002285D01*
X022599Y002252D01*
X022381Y002252D02*
X022381Y002187D01*
X022348Y002154D01*
X022250Y002154D01*
X022250Y002350D01*
X022250Y002285D02*
X022348Y002285D01*
X022381Y002252D01*
X022164Y002285D02*
X022164Y002154D01*
X022098Y002154D02*
X022098Y002252D01*
X022066Y002285D01*
X022033Y002252D01*
X022033Y002154D01*
X021946Y002154D02*
X021913Y002154D01*
X021913Y002187D01*
X021946Y002187D01*
X021946Y002154D01*
X021837Y002154D02*
X021772Y002154D01*
X021805Y002154D02*
X021805Y002285D01*
X021837Y002285D01*
X021805Y002350D02*
X021805Y002383D01*
X021692Y002252D02*
X021692Y002187D01*
X021660Y002154D01*
X021594Y002154D01*
X021562Y002187D01*
X021562Y002252D01*
X021594Y002285D01*
X021660Y002285D01*
X021692Y002252D01*
X022098Y002252D02*
X022131Y002285D01*
X022164Y002285D01*
D12*
X010868Y001898D02*
X010868Y001819D01*
X011261Y001819D01*
X011261Y001898D01*
X010868Y001898D01*
X010868Y001842D02*
X011261Y001842D01*
X013506Y003236D02*
X013584Y003236D01*
X013584Y003630D01*
X013506Y003630D01*
X013506Y003236D01*
X013506Y003309D02*
X013584Y003309D01*
X013584Y003387D02*
X013506Y003387D01*
X013506Y003464D02*
X013584Y003464D01*
X013584Y003541D02*
X013506Y003541D01*
X013506Y003618D02*
X013584Y003618D01*
X011380Y004063D02*
X010986Y004063D01*
X010986Y004142D01*
X011380Y004142D01*
X011380Y004063D01*
X011380Y004082D02*
X010986Y004082D01*
D13*
X021121Y004983D02*
X021121Y005045D01*
X021121Y005545D01*
X021121Y005670D01*
X021121Y006545D01*
X021123Y006569D01*
X021127Y006593D01*
X021135Y006617D01*
X021146Y006638D01*
X021160Y006659D01*
X021176Y006677D01*
X021194Y006693D01*
X021215Y006707D01*
X021236Y006718D01*
X021260Y006726D01*
X021284Y006730D01*
X021308Y006732D01*
X021308Y006733D02*
X023183Y006733D01*
X023183Y006732D02*
X023207Y006730D01*
X023231Y006726D01*
X023255Y006718D01*
X023277Y006707D01*
X023297Y006693D01*
X023315Y006677D01*
X023331Y006659D01*
X023345Y006638D01*
X023356Y006617D01*
X023364Y006593D01*
X023368Y006569D01*
X023370Y006545D01*
X023371Y006545D02*
X023371Y005670D01*
X023371Y005545D01*
X023371Y005108D01*
X023371Y004983D01*
X023370Y004983D02*
X023368Y004956D01*
X023362Y004930D01*
X023353Y004905D01*
X023340Y004882D01*
X023324Y004861D01*
X023305Y004842D01*
X023284Y004826D01*
X023261Y004813D01*
X023236Y004804D01*
X023210Y004798D01*
X023183Y004796D01*
X023183Y004795D02*
X022621Y004795D01*
X022027Y004795D01*
X021871Y004795D01*
X021371Y004795D01*
X021308Y004795D01*
X021308Y004796D02*
X021281Y004798D01*
X021255Y004804D01*
X021230Y004813D01*
X021207Y004826D01*
X021186Y004842D01*
X021167Y004861D01*
X021151Y004882D01*
X021138Y004905D01*
X021129Y004930D01*
X021123Y004956D01*
X021121Y004983D01*
X021371Y005858D02*
X021464Y005858D01*
X021558Y006420D01*
X021621Y006420D01*
X021621Y006264D01*
X022058Y006295D02*
X022152Y006295D01*
X022152Y006420D01*
X022058Y006483D02*
X022058Y006295D01*
X022308Y006420D02*
X022308Y006483D01*
X022058Y006483D01*
X022308Y006483D02*
X022371Y006483D01*
X022371Y005889D01*
X022433Y005858D02*
X022058Y005858D01*
X022058Y005983D01*
X022152Y005983D01*
X022152Y005920D01*
X022433Y005858D02*
X022433Y006514D01*
X022714Y006514D02*
X022714Y006233D01*
X022808Y006233D01*
X022808Y006452D01*
X022964Y006452D01*
X023027Y006514D02*
X022714Y006514D01*
X023027Y006514D02*
X023027Y005858D01*
X023089Y005858D01*
X023089Y006514D01*
X022964Y006202D02*
X022777Y006202D01*
X022808Y006170D02*
X022808Y005827D01*
X022714Y005827D02*
X022714Y006139D01*
X021746Y005827D02*
X021652Y006420D01*
X021621Y006420D01*
X021714Y006483D02*
X021496Y006483D01*
X021371Y005858D01*
X021808Y005827D02*
X021714Y006483D01*
X021683Y006045D02*
X021527Y006045D01*
M02*
