%
M48
M72
T01C0.0197
T02C0.0400
T03C0.0472
%
T01
X7954Y2521
X7049Y2876
X6340Y2757
X6340Y3191
X6340Y3624
X6340Y4057
X7049Y4214
X6340Y4490
X7049Y4726
X6340Y4923
X6340Y5356
X6340Y5789
X7049Y6065
X6340Y6222
X9214Y5474
X9214Y5080
X12521Y5041
X13899Y5317
X14450Y4883
X14765Y4529
X16065Y4135
X16813Y3820
X17049Y4175
X17817Y3978
X18269Y3899
X19214Y3860
X19569Y3860
X19569Y4883
X19569Y5435
X19529Y5946
X19096Y5946
X17954Y5946
X17561Y5946
X17167Y5946
X17167Y5474
X17561Y5474
X17954Y5474
X17954Y6419
X17561Y6419
X17167Y6419
X19096Y6419
X19529Y6419
X19529Y6852
X19096Y6852
X19096Y7285
X19529Y7285
X19962Y7285
X20395Y7285
X20828Y7285
X18663Y7285
X18230Y7285
X17797Y7285
X17049Y7285
X16616Y7285
X16183Y7285
X14411Y6891
X13978Y6970
X13348Y7009
X11970Y7246
X11419Y6970
X10356Y7246
X9805Y7246
X9254Y7246
X11694Y6104
X12521Y4647
X12521Y4254
X14450Y4057
X15868Y3742
X13860Y3387
X13230Y3348
X12679Y3584
X11498Y3072
X10277Y2600
X9293Y2600
X9293Y1852
X10277Y1852
X11734Y2061
X12403Y2088
X13584Y2128
X14490Y2088
X15356Y2797
X16588Y2880
X19529Y2797
X19569Y2364
X19450Y1852
X19883Y1852
X20317Y1852
X20750Y1852
X19017Y1852
X18545Y1852
X24372Y1931
X24805Y1931
X25238Y1931
X25671Y2246
X25946Y2757
X25671Y3348
X25671Y3769
X26498Y4096
X28742Y4006
X28742Y4439
X28742Y4872
X28742Y5305
X28742Y5738
X28742Y6171
X28742Y6604
X28702Y7037
X28387Y7313
X27954Y7313
X27521Y7313
X27088Y7313
X27088Y6880
X25710Y6419
X27049Y5710
X27167Y4990
X25631Y4844
X28742Y3572
X28742Y3139
X28742Y2706
X28742Y2273
X25631Y7088
X25198Y7313
X24765Y7313
X24332Y7317
X9254Y3663
X8584Y3584
T02
X27876Y3529
X27876Y2529
X27876Y4529
X27876Y5529
X27876Y6529
T03
X7088Y5356
X7088Y3584
M30
