G75*
%MOIN*%
%OFA0B0*%
%FSLAX24Y24*%
%IPPOS*%
%LPD*%
%AMOC8*
5,1,8,0,0,1.08239X$1,22.5*
%
%ADD10C,0.0000*%
%ADD11C,0.0004*%
D10*
X006655Y001419D02*
X028309Y001419D01*
X028363Y001421D01*
X028416Y001426D01*
X028469Y001435D01*
X028521Y001448D01*
X028573Y001464D01*
X028623Y001484D01*
X028671Y001507D01*
X028718Y001534D01*
X028763Y001563D01*
X028806Y001596D01*
X028846Y001631D01*
X028884Y001669D01*
X028919Y001709D01*
X028952Y001752D01*
X028981Y001797D01*
X029008Y001844D01*
X029031Y001892D01*
X029051Y001942D01*
X029067Y001994D01*
X029080Y002046D01*
X029089Y002099D01*
X029094Y002152D01*
X029096Y002206D01*
X029096Y006852D01*
X029094Y006906D01*
X029089Y006959D01*
X029080Y007012D01*
X029067Y007064D01*
X029051Y007116D01*
X029031Y007166D01*
X029008Y007214D01*
X028981Y007261D01*
X028952Y007306D01*
X028919Y007349D01*
X028884Y007389D01*
X028846Y007427D01*
X028806Y007462D01*
X028763Y007495D01*
X028718Y007524D01*
X028671Y007551D01*
X028623Y007574D01*
X028573Y007594D01*
X028521Y007610D01*
X028469Y007623D01*
X028416Y007632D01*
X028363Y007637D01*
X028309Y007639D01*
X006655Y007639D01*
X006601Y007637D01*
X006548Y007632D01*
X006495Y007623D01*
X006443Y007610D01*
X006391Y007594D01*
X006341Y007574D01*
X006293Y007551D01*
X006246Y007524D01*
X006201Y007495D01*
X006158Y007462D01*
X006118Y007427D01*
X006080Y007389D01*
X006045Y007349D01*
X006012Y007306D01*
X005983Y007261D01*
X005956Y007214D01*
X005933Y007166D01*
X005913Y007116D01*
X005897Y007064D01*
X005884Y007012D01*
X005875Y006959D01*
X005870Y006906D01*
X005868Y006852D01*
X005868Y002206D01*
X005870Y002152D01*
X005875Y002099D01*
X005884Y002046D01*
X005897Y001994D01*
X005913Y001942D01*
X005933Y001892D01*
X005956Y001844D01*
X005983Y001797D01*
X006012Y001752D01*
X006045Y001709D01*
X006080Y001669D01*
X006118Y001631D01*
X006158Y001596D01*
X006201Y001563D01*
X006246Y001534D01*
X006293Y001507D01*
X006341Y001484D01*
X006391Y001464D01*
X006443Y001448D01*
X006495Y001435D01*
X006548Y001426D01*
X006601Y001421D01*
X006655Y001419D01*
X006852Y003584D02*
X006854Y003614D01*
X006860Y003644D01*
X006869Y003673D01*
X006882Y003700D01*
X006899Y003725D01*
X006918Y003748D01*
X006941Y003769D01*
X006966Y003786D01*
X006992Y003800D01*
X007021Y003810D01*
X007050Y003817D01*
X007080Y003820D01*
X007111Y003819D01*
X007141Y003814D01*
X007170Y003805D01*
X007197Y003793D01*
X007223Y003778D01*
X007247Y003759D01*
X007268Y003737D01*
X007286Y003713D01*
X007301Y003686D01*
X007312Y003658D01*
X007320Y003629D01*
X007324Y003599D01*
X007324Y003569D01*
X007320Y003539D01*
X007312Y003510D01*
X007301Y003482D01*
X007286Y003455D01*
X007268Y003431D01*
X007247Y003409D01*
X007223Y003390D01*
X007197Y003375D01*
X007170Y003363D01*
X007141Y003354D01*
X007111Y003349D01*
X007080Y003348D01*
X007050Y003351D01*
X007021Y003358D01*
X006992Y003368D01*
X006966Y003382D01*
X006941Y003399D01*
X006918Y003420D01*
X006899Y003443D01*
X006882Y003468D01*
X006869Y003495D01*
X006860Y003524D01*
X006854Y003554D01*
X006852Y003584D01*
X006852Y005356D02*
X006854Y005386D01*
X006860Y005416D01*
X006869Y005445D01*
X006882Y005472D01*
X006899Y005497D01*
X006918Y005520D01*
X006941Y005541D01*
X006966Y005558D01*
X006992Y005572D01*
X007021Y005582D01*
X007050Y005589D01*
X007080Y005592D01*
X007111Y005591D01*
X007141Y005586D01*
X007170Y005577D01*
X007197Y005565D01*
X007223Y005550D01*
X007247Y005531D01*
X007268Y005509D01*
X007286Y005485D01*
X007301Y005458D01*
X007312Y005430D01*
X007320Y005401D01*
X007324Y005371D01*
X007324Y005341D01*
X007320Y005311D01*
X007312Y005282D01*
X007301Y005254D01*
X007286Y005227D01*
X007268Y005203D01*
X007247Y005181D01*
X007223Y005162D01*
X007197Y005147D01*
X007170Y005135D01*
X007141Y005126D01*
X007111Y005121D01*
X007080Y005120D01*
X007050Y005123D01*
X007021Y005130D01*
X006992Y005140D01*
X006966Y005154D01*
X006941Y005171D01*
X006918Y005192D01*
X006899Y005215D01*
X006882Y005240D01*
X006869Y005267D01*
X006860Y005296D01*
X006854Y005326D01*
X006852Y005356D01*
D11*
X006714Y006596D02*
X007383Y006596D01*
X007408Y006598D01*
X007433Y006603D01*
X007457Y006612D01*
X007479Y006624D01*
X007499Y006639D01*
X007517Y006657D01*
X007532Y006677D01*
X007544Y006699D01*
X007553Y006723D01*
X007558Y006748D01*
X007560Y006773D01*
X007558Y006798D01*
X007553Y006823D01*
X007544Y006847D01*
X007532Y006869D01*
X007517Y006889D01*
X007499Y006907D01*
X007479Y006922D01*
X007457Y006934D01*
X007433Y006943D01*
X007408Y006948D01*
X007383Y006950D01*
X006714Y006950D01*
X006689Y006948D01*
X006664Y006943D01*
X006640Y006934D01*
X006618Y006922D01*
X006598Y006907D01*
X006580Y006889D01*
X006565Y006869D01*
X006553Y006847D01*
X006544Y006823D01*
X006539Y006798D01*
X006537Y006773D01*
X006539Y006748D01*
X006544Y006723D01*
X006553Y006699D01*
X006565Y006677D01*
X006580Y006657D01*
X006598Y006639D01*
X006618Y006624D01*
X006640Y006612D01*
X006664Y006603D01*
X006689Y006598D01*
X006714Y006596D01*
X006714Y002344D02*
X007383Y002344D01*
X007408Y002342D01*
X007433Y002337D01*
X007457Y002328D01*
X007479Y002316D01*
X007499Y002301D01*
X007517Y002283D01*
X007532Y002263D01*
X007544Y002241D01*
X007553Y002217D01*
X007558Y002192D01*
X007560Y002167D01*
X007558Y002142D01*
X007553Y002117D01*
X007544Y002093D01*
X007532Y002071D01*
X007517Y002051D01*
X007499Y002033D01*
X007479Y002018D01*
X007457Y002006D01*
X007433Y001997D01*
X007408Y001992D01*
X007383Y001990D01*
X006714Y001990D01*
X006689Y001992D01*
X006664Y001997D01*
X006640Y002006D01*
X006618Y002018D01*
X006598Y002033D01*
X006580Y002051D01*
X006565Y002071D01*
X006553Y002093D01*
X006544Y002117D01*
X006539Y002142D01*
X006537Y002167D01*
X006539Y002192D01*
X006544Y002217D01*
X006553Y002241D01*
X006565Y002263D01*
X006580Y002283D01*
X006598Y002301D01*
X006618Y002316D01*
X006640Y002328D01*
X006664Y002337D01*
X006689Y002342D01*
X006714Y002344D01*
M02*
