G75*
%MOIN*%
%OFA0B0*%
%FSLAX24Y24*%
%IPPOS*%
%LPD*%
%AMOC8*
5,1,8,0,0,1.08239X$1,22.5*
%
%ADD10R,0.0847X0.0651*%
%ADD11R,0.0847X0.1556*%
%ADD12R,0.0485X0.0473*%
%ADD13R,0.0572X0.0690*%
%ADD14R,0.0651X0.0572*%
%ADD15R,0.0473X0.0485*%
%ADD16R,0.0493X0.0454*%
%ADD17C,0.1060*%
%ADD18C,0.0532*%
%ADD19R,0.0454X0.0493*%
%ADD20C,0.0660*%
D10*
X010376Y003663D03*
X010376Y004569D03*
X010376Y005474D03*
D11*
X007895Y004569D03*
D12*
X011183Y004874D03*
X011183Y004185D03*
D13*
X013151Y004450D03*
X013939Y004450D03*
X013939Y005159D03*
X013151Y005159D03*
X009569Y006301D03*
X008781Y006301D03*
D14*
X026498Y006320D03*
X026498Y005572D03*
X026498Y004982D03*
X026498Y004234D03*
D15*
X025897Y005553D03*
X025208Y005553D03*
D16*
X013880Y003853D03*
X013210Y003853D03*
X011931Y003880D03*
X011931Y004549D03*
X010868Y006242D03*
X010868Y006911D03*
D17*
X012482Y002128D03*
X013584Y002128D03*
X014687Y002128D03*
D18*
X007088Y003584D03*
X007088Y005356D03*
D19*
X011065Y001950D03*
X011065Y002620D03*
X017541Y004490D03*
X018210Y004490D03*
X015612Y005474D03*
X014943Y005474D03*
X014943Y006183D03*
X015612Y006183D03*
X015612Y006891D03*
X014943Y006891D03*
D20*
X027576Y006529D02*
X028176Y006529D01*
X028176Y005529D02*
X027576Y005529D01*
X027576Y004529D02*
X028176Y004529D01*
X028176Y003529D02*
X027576Y003529D01*
X027576Y002529D02*
X028176Y002529D01*
M02*
