G75*
%MOIN*%
%OFA0B0*%
%FSLAX24Y24*%
%IPPOS*%
%LPD*%
%AMOC8*
5,1,8,0,0,1.08239X$1,22.5*
%
%ADD10C,0.0060*%
D10*
X007787Y001724D02*
X007954Y001724D01*
X008010Y001780D01*
X008010Y002003D01*
X007954Y002058D01*
X007787Y002058D01*
X007787Y001724D01*
X008150Y001724D02*
X008150Y002058D01*
X008373Y002058D01*
X008513Y002058D02*
X008513Y001780D01*
X008568Y001724D01*
X008680Y001724D01*
X008735Y001780D01*
X008735Y002058D01*
X008261Y001891D02*
X008150Y001891D01*
X015626Y003165D02*
X015626Y003499D01*
X015737Y003388D01*
X015849Y003499D01*
X015849Y003165D01*
X015989Y003221D02*
X016044Y003165D01*
X016156Y003165D01*
X016211Y003221D01*
X016211Y003444D01*
X016156Y003499D01*
X016044Y003499D01*
X015989Y003444D01*
X015989Y003221D01*
X016351Y003165D02*
X016518Y003165D01*
X016574Y003221D01*
X016574Y003444D01*
X016518Y003499D01*
X016351Y003499D01*
X016351Y003165D01*
X016714Y003165D02*
X016936Y003165D01*
X016825Y003332D02*
X016714Y003332D01*
X016714Y003499D02*
X016714Y003165D01*
X016714Y003499D02*
X016936Y003499D01*
X017354Y002728D02*
X017521Y002728D01*
X017577Y002672D01*
X017577Y002561D01*
X017521Y002505D01*
X017354Y002505D01*
X017354Y002394D02*
X017354Y002728D01*
X017717Y002728D02*
X017940Y002394D01*
X017940Y002255D02*
X017717Y001921D01*
X017940Y001921D02*
X017717Y002255D01*
X017717Y002394D02*
X017940Y002728D01*
X017577Y002394D02*
X017466Y002505D01*
X017466Y002255D02*
X017466Y001921D01*
X017577Y002255D02*
X017354Y002255D01*
X025858Y003434D02*
X025914Y003378D01*
X026025Y003378D01*
X026081Y003434D01*
X026221Y003378D02*
X026221Y003601D01*
X026332Y003712D01*
X026444Y003601D01*
X026444Y003378D01*
X026583Y003378D02*
X026583Y003712D01*
X026806Y003378D01*
X026806Y003712D01*
X026946Y003712D02*
X026946Y003378D01*
X027169Y003378D02*
X027169Y003712D01*
X027169Y003545D02*
X026946Y003545D01*
X026444Y003545D02*
X026221Y003545D01*
X026081Y003656D02*
X026025Y003712D01*
X025914Y003712D01*
X025858Y003656D01*
X025858Y003434D01*
X026268Y004362D02*
X026380Y004362D01*
X026435Y004418D01*
X026435Y004529D01*
X026324Y004529D01*
X026213Y004418D02*
X026268Y004362D01*
X026213Y004418D02*
X026213Y004641D01*
X026268Y004696D01*
X026380Y004696D01*
X026435Y004641D01*
X026575Y004696D02*
X026798Y004362D01*
X026798Y004696D01*
X026938Y004696D02*
X027105Y004696D01*
X027160Y004641D01*
X027160Y004418D01*
X027105Y004362D01*
X026938Y004362D01*
X026938Y004696D01*
X026575Y004696D02*
X026575Y004362D01*
X018830Y005543D02*
X018496Y005543D01*
X018607Y005655D01*
X018496Y005766D01*
X018830Y005766D01*
X018774Y005906D02*
X018552Y005906D01*
X018496Y005962D01*
X018496Y006073D01*
X018552Y006129D01*
X018774Y006129D01*
X018830Y006073D01*
X018830Y005962D01*
X018774Y005906D01*
X018830Y006268D02*
X018496Y006268D01*
X018496Y006435D01*
X018552Y006491D01*
X018774Y006491D01*
X018830Y006435D01*
X018830Y006268D01*
X018830Y006631D02*
X018496Y006631D01*
X018496Y006854D01*
X018663Y006742D02*
X018663Y006631D01*
X018830Y006631D02*
X018830Y006854D01*
X008775Y007255D02*
X008552Y007255D01*
X008663Y007255D02*
X008663Y006921D01*
X008412Y006977D02*
X008356Y006921D01*
X008245Y006921D01*
X008189Y006977D01*
X008050Y006921D02*
X007938Y007033D01*
X007994Y007033D02*
X007827Y007033D01*
X007827Y006921D02*
X007827Y007255D01*
X007994Y007255D01*
X008050Y007200D01*
X008050Y007088D01*
X007994Y007033D01*
X008189Y007144D02*
X008245Y007088D01*
X008356Y007088D01*
X008412Y007033D01*
X008412Y006977D01*
X008189Y007144D02*
X008189Y007200D01*
X008245Y007255D01*
X008356Y007255D01*
X008412Y007200D01*
X027197Y002003D02*
X027197Y001780D01*
X027253Y001724D01*
X027364Y001724D01*
X027420Y001780D01*
X027559Y001724D02*
X027559Y001947D01*
X027671Y002058D01*
X027782Y001947D01*
X027782Y001724D01*
X027922Y001724D02*
X027922Y002058D01*
X028145Y001724D01*
X028145Y002058D01*
X028284Y002058D02*
X028284Y001724D01*
X028507Y001724D01*
X027782Y001891D02*
X027559Y001891D01*
X027420Y002003D02*
X027364Y002058D01*
X027253Y002058D01*
X027197Y002003D01*
M02*
