G75*
%MOIN*%
%OFA0B0*%
%FSLAX24Y24*%
%IPPOS*%
%LPD*%
%AMOC8*
5,1,8,0,0,1.08239X$1,22.5*
%
%ADD10C,0.0060*%
%ADD11C,0.0079*%
D10*
X007787Y001298D02*
X007954Y001298D01*
X008010Y001353D01*
X008010Y001576D01*
X007954Y001632D01*
X007787Y001632D01*
X007787Y001298D01*
X008150Y001298D02*
X008150Y001632D01*
X008373Y001632D01*
X008513Y001632D02*
X008513Y001353D01*
X008568Y001298D01*
X008680Y001298D01*
X008735Y001353D01*
X008735Y001632D01*
X008261Y001465D02*
X008150Y001465D01*
X015626Y002739D02*
X015626Y003073D01*
X015737Y002961D01*
X015849Y003073D01*
X015849Y002739D01*
X015989Y002794D02*
X016044Y002739D01*
X016156Y002739D01*
X016211Y002794D01*
X016211Y003017D01*
X016156Y003073D01*
X016044Y003073D01*
X015989Y003017D01*
X015989Y002794D01*
X016351Y002739D02*
X016518Y002739D01*
X016574Y002794D01*
X016574Y003017D01*
X016518Y003073D01*
X016351Y003073D01*
X016351Y002739D01*
X016714Y002739D02*
X016936Y002739D01*
X016714Y002739D02*
X016714Y003073D01*
X016936Y003073D01*
X016825Y002906D02*
X016714Y002906D01*
X017354Y002301D02*
X017521Y002301D01*
X017577Y002245D01*
X017577Y002134D01*
X017521Y002078D01*
X017354Y002078D01*
X017354Y001967D02*
X017354Y002301D01*
X017717Y002301D02*
X017940Y001967D01*
X017717Y001967D02*
X017940Y002301D01*
X017577Y001967D02*
X017466Y002078D01*
X017466Y001789D02*
X017466Y001455D01*
X017717Y001455D02*
X017940Y001789D01*
X017717Y001789D02*
X017940Y001455D01*
X017577Y001789D02*
X017354Y001789D01*
X025189Y003007D02*
X025245Y002951D01*
X025356Y002951D01*
X025412Y003007D01*
X025552Y002951D02*
X025552Y003174D01*
X025663Y003285D01*
X025774Y003174D01*
X025774Y002951D01*
X025914Y002951D02*
X025914Y003285D01*
X026137Y002951D01*
X026137Y003285D01*
X026277Y003285D02*
X026277Y002951D01*
X026499Y002951D02*
X026499Y003285D01*
X026499Y003118D02*
X026277Y003118D01*
X025774Y003118D02*
X025552Y003118D01*
X025412Y003230D02*
X025356Y003285D01*
X025245Y003285D01*
X025189Y003230D01*
X025189Y003007D01*
X025599Y003935D02*
X025710Y003935D01*
X025766Y003991D01*
X025766Y004102D01*
X025655Y004102D01*
X025543Y003991D02*
X025543Y004214D01*
X025599Y004269D01*
X025710Y004269D01*
X025766Y004214D01*
X025906Y004269D02*
X026129Y003935D01*
X026129Y004269D01*
X026268Y004269D02*
X026435Y004269D01*
X026491Y004214D01*
X026491Y003991D01*
X026435Y003935D01*
X026268Y003935D01*
X026268Y004269D01*
X025906Y004269D02*
X025906Y003935D01*
X025599Y003935D02*
X025543Y003991D01*
X018751Y005117D02*
X018417Y005117D01*
X018528Y005228D01*
X018417Y005339D01*
X018751Y005339D01*
X018695Y005479D02*
X018473Y005479D01*
X018417Y005535D01*
X018417Y005646D01*
X018473Y005702D01*
X018695Y005702D01*
X018751Y005646D01*
X018751Y005535D01*
X018695Y005479D01*
X018751Y005842D02*
X018417Y005842D01*
X018417Y006009D01*
X018473Y006064D01*
X018695Y006064D01*
X018751Y006009D01*
X018751Y005842D01*
X018751Y006204D02*
X018417Y006204D01*
X018417Y006427D01*
X018584Y006315D02*
X018584Y006204D01*
X018751Y006204D02*
X018751Y006427D01*
X008775Y006829D02*
X008552Y006829D01*
X008663Y006829D02*
X008663Y006495D01*
X008412Y006550D02*
X008412Y006606D01*
X008356Y006662D01*
X008245Y006662D01*
X008189Y006717D01*
X008189Y006773D01*
X008245Y006829D01*
X008356Y006829D01*
X008412Y006773D01*
X008050Y006773D02*
X008050Y006662D01*
X007994Y006606D01*
X007827Y006606D01*
X007938Y006606D02*
X008050Y006495D01*
X008189Y006550D02*
X008245Y006495D01*
X008356Y006495D01*
X008412Y006550D01*
X007827Y006495D02*
X007827Y006829D01*
X007994Y006829D01*
X008050Y006773D01*
X026528Y001576D02*
X026583Y001632D01*
X026695Y001632D01*
X026750Y001576D01*
X026890Y001520D02*
X027001Y001632D01*
X027113Y001520D01*
X027113Y001298D01*
X027253Y001298D02*
X027253Y001632D01*
X027475Y001298D01*
X027475Y001632D01*
X027615Y001632D02*
X027615Y001298D01*
X027838Y001298D01*
X027113Y001465D02*
X026890Y001465D01*
X026890Y001520D02*
X026890Y001298D01*
X026750Y001353D02*
X026695Y001298D01*
X026583Y001298D01*
X026528Y001353D01*
X026528Y001576D01*
D11*
X025395Y001898D02*
X025395Y002016D01*
X025002Y002016D01*
X025002Y001898D01*
X025395Y001898D01*
X025395Y001919D02*
X025002Y001919D01*
X025002Y001996D02*
X025395Y001996D01*
X019647Y002331D02*
X019254Y002331D01*
X019254Y002409D01*
X019647Y002409D01*
X019647Y002331D01*
X019647Y002382D02*
X019254Y002382D01*
X017718Y002528D02*
X017561Y002685D01*
X017718Y002842D01*
X017718Y002528D01*
X017718Y002537D02*
X017709Y002537D01*
X017718Y002614D02*
X017631Y002614D01*
X017567Y002691D02*
X017718Y002691D01*
X017718Y002769D02*
X017644Y002769D01*
X017718Y002961D02*
X017561Y003118D01*
X017718Y003276D01*
X017718Y002961D01*
X017718Y003000D02*
X017678Y003000D01*
X017718Y003078D02*
X017601Y003078D01*
X017597Y003155D02*
X017718Y003155D01*
X017718Y003232D02*
X017675Y003232D01*
X018584Y003787D02*
X018584Y003866D01*
X018978Y003866D01*
X018978Y003787D01*
X018584Y003787D01*
X018584Y003850D02*
X018978Y003850D01*
X016025Y004496D02*
X015631Y004496D01*
X015631Y004575D01*
X016025Y004575D01*
X016025Y004496D01*
X016025Y004545D02*
X015631Y004545D01*
X015232Y003984D02*
X015234Y004006D01*
X015239Y004026D01*
X015249Y004046D01*
X015261Y004064D01*
X015276Y004079D01*
X015294Y004091D01*
X015314Y004101D01*
X015334Y004106D01*
X015356Y004108D01*
X015378Y004106D01*
X015398Y004101D01*
X015418Y004091D01*
X015436Y004079D01*
X015451Y004064D01*
X015463Y004046D01*
X015473Y004026D01*
X015478Y004006D01*
X015480Y003984D01*
X015478Y003962D01*
X015473Y003942D01*
X015463Y003922D01*
X015451Y003904D01*
X015436Y003889D01*
X015418Y003877D01*
X015398Y003867D01*
X015378Y003862D01*
X015356Y003860D01*
X015334Y003862D01*
X015314Y003867D01*
X015294Y003877D01*
X015276Y003889D01*
X015261Y003904D01*
X015249Y003922D01*
X015239Y003942D01*
X015234Y003962D01*
X015232Y003984D01*
X011104Y004535D02*
X010710Y004535D01*
X010710Y004614D01*
X011104Y004614D01*
X011104Y004535D01*
X011104Y004545D02*
X010710Y004545D01*
X010474Y004496D02*
X010159Y004496D01*
X010317Y004654D01*
X010474Y004496D01*
X010425Y004545D02*
X010208Y004545D01*
X010285Y004622D02*
X010348Y004622D01*
X012438Y006650D02*
X012716Y006371D01*
X012772Y006427D01*
X012493Y006706D01*
X012438Y006650D01*
X012457Y006631D02*
X012568Y006631D01*
X012534Y006553D02*
X012646Y006553D01*
X012611Y006476D02*
X012723Y006476D01*
X012744Y006399D02*
X012689Y006399D01*
X020942Y006425D02*
X020944Y006453D01*
X020950Y006480D01*
X020959Y006507D01*
X020973Y006532D01*
X020989Y006554D01*
X021009Y006574D01*
X021031Y006592D01*
X021055Y006606D01*
X021081Y006616D01*
X021108Y006623D01*
X021136Y006626D01*
X021164Y006625D01*
X021192Y006620D01*
X021218Y006611D01*
X021243Y006599D01*
X021267Y006583D01*
X021288Y006565D01*
X021306Y006543D01*
X021320Y006519D01*
X021332Y006494D01*
X021340Y006467D01*
X021344Y006439D01*
X021344Y006411D01*
X021340Y006383D01*
X021332Y006356D01*
X021320Y006331D01*
X021306Y006307D01*
X021288Y006285D01*
X021267Y006267D01*
X021244Y006251D01*
X021218Y006239D01*
X021192Y006230D01*
X021164Y006225D01*
X021136Y006224D01*
X021108Y006227D01*
X021081Y006234D01*
X021055Y006244D01*
X021031Y006258D01*
X021009Y006276D01*
X020989Y006296D01*
X020973Y006318D01*
X020959Y006343D01*
X020950Y006370D01*
X020944Y006397D01*
X020942Y006425D01*
X024923Y006399D02*
X025474Y006399D01*
X025474Y006346D02*
X025474Y006465D01*
X024923Y006465D01*
X024923Y006346D01*
X025474Y006346D01*
X016694Y002252D02*
X016537Y002094D01*
X016694Y001937D01*
X016694Y002252D01*
X016694Y002228D02*
X016670Y002228D01*
X016694Y002151D02*
X016593Y002151D01*
X016558Y002073D02*
X016694Y002073D01*
X016694Y001996D02*
X016635Y001996D01*
X016694Y001819D02*
X016537Y001661D01*
X016694Y001504D01*
X016694Y001819D01*
X016694Y001765D02*
X016640Y001765D01*
X016694Y001687D02*
X016563Y001687D01*
X016588Y001610D02*
X016694Y001610D01*
X016694Y001533D02*
X016666Y001533D01*
M02*
