G75*
%MOIN*%
%OFA0B0*%
%FSLAX24Y24*%
%IPPOS*%
%LPD*%
%AMOC8*
5,1,8,0,0,1.08239X$1,22.5*
%
%ADD10R,0.1181X0.0669*%
%ADD11R,0.0847X0.0651*%
%ADD12R,0.0847X0.1556*%
%ADD13R,0.0485X0.0473*%
%ADD14R,0.0572X0.0690*%
%ADD15R,0.0651X0.0572*%
%ADD16R,0.0473X0.0485*%
%ADD17R,0.0493X0.0454*%
%ADD18C,0.1060*%
%ADD19C,0.0532*%
%ADD20R,0.0454X0.0493*%
%ADD21C,0.0660*%
D10*
X007049Y001720D03*
X007049Y006405D03*
D11*
X010376Y005047D03*
X010376Y004142D03*
X010376Y003236D03*
D12*
X007895Y004142D03*
D13*
X011183Y004447D03*
X011183Y003758D03*
D14*
X013151Y004063D03*
X013939Y004063D03*
X013939Y004850D03*
X013151Y004850D03*
X009569Y005874D03*
X008781Y005874D03*
D15*
X025828Y004437D03*
X025828Y003689D03*
X025868Y005264D03*
X025868Y006012D03*
D16*
X025189Y005244D03*
X024500Y005244D03*
D17*
X013880Y003426D03*
X013210Y003426D03*
X011931Y003453D03*
X011931Y004122D03*
X010868Y005815D03*
X010868Y006484D03*
D18*
X012482Y001701D03*
X013584Y001701D03*
X014687Y001701D03*
D19*
X007088Y003157D03*
X007088Y004929D03*
D20*
X014943Y005047D03*
X015612Y005047D03*
X015612Y005756D03*
X014943Y005756D03*
X014943Y006465D03*
X015612Y006465D03*
X017541Y004063D03*
X018210Y004063D03*
X011065Y002193D03*
X011065Y001524D03*
D21*
X026906Y002102D02*
X027506Y002102D01*
X027506Y003102D02*
X026906Y003102D01*
X026906Y004102D02*
X027506Y004102D01*
X027506Y005102D02*
X026906Y005102D01*
X026906Y006102D02*
X027506Y006102D01*
M02*
