G75*
%MOIN*%
%OFA0B0*%
%FSLAX24Y24*%
%IPPOS*%
%LPD*%
%AMOC8*
5,1,8,0,0,1.08239X$1,22.5*
%
%ADD10R,0.1181X0.0669*%
%ADD11R,0.0847X0.0651*%
%ADD12R,0.0847X0.1556*%
%ADD13R,0.0485X0.0473*%
%ADD14R,0.0572X0.0690*%
%ADD15R,0.0651X0.0572*%
%ADD16R,0.0473X0.0485*%
%ADD17R,0.0493X0.0454*%
%ADD18C,0.1060*%
%ADD19C,0.0532*%
%ADD20R,0.0454X0.0493*%
%ADD21C,0.0660*%
%ADD22C,0.0397*%
D10*
X007049Y002147D03*
X007049Y006832D03*
D11*
X010376Y005474D03*
X010376Y004569D03*
X010376Y003663D03*
D12*
X007895Y004569D03*
D13*
X011183Y004874D03*
X011183Y004185D03*
D14*
X013151Y004450D03*
X013939Y004450D03*
X013939Y005159D03*
X013151Y005159D03*
X009569Y006301D03*
X008781Y006301D03*
D15*
X026498Y006320D03*
X026498Y005572D03*
X026498Y004982D03*
X026498Y004234D03*
D16*
X025897Y005553D03*
X025208Y005553D03*
D17*
X013880Y003853D03*
X013210Y003853D03*
X011931Y003880D03*
X011931Y004549D03*
X010868Y006242D03*
X010868Y006911D03*
D18*
X012482Y002128D03*
X013584Y002128D03*
X014687Y002128D03*
D19*
X007088Y003584D03*
X007088Y005356D03*
D20*
X014943Y005474D03*
X015612Y005474D03*
X015612Y006183D03*
X014943Y006183D03*
X014943Y006891D03*
X015612Y006891D03*
X017541Y004490D03*
X018210Y004490D03*
X011065Y002620D03*
X011065Y001950D03*
D21*
X027576Y002529D02*
X028176Y002529D01*
X028176Y003529D02*
X027576Y003529D01*
X027576Y004529D02*
X028176Y004529D01*
X028176Y005529D02*
X027576Y005529D01*
X027576Y006529D02*
X028176Y006529D01*
D22*
X028742Y006604D03*
X028742Y006171D03*
X028742Y005738D03*
X028742Y005305D03*
X028742Y004872D03*
X028742Y004439D03*
X028742Y004006D03*
X028742Y003572D03*
X028742Y003139D03*
X028742Y002706D03*
X028742Y002273D03*
X025946Y002757D03*
X025671Y002246D03*
X025238Y001931D03*
X024805Y001931D03*
X024372Y001931D03*
X020750Y001852D03*
X020317Y001852D03*
X019883Y001852D03*
X019450Y001852D03*
X019017Y001852D03*
X018545Y001852D03*
X019569Y002364D03*
X019529Y002797D03*
X016588Y002880D03*
X015356Y002797D03*
X013860Y003387D03*
X013230Y003348D03*
X012679Y003584D03*
X011498Y003072D03*
X010277Y002600D03*
X009293Y002600D03*
X007954Y002521D03*
X007049Y002876D03*
X006340Y002757D03*
X006340Y003191D03*
X006340Y003624D03*
X006340Y004057D03*
X007049Y004214D03*
X006340Y004490D03*
X007049Y004726D03*
X006340Y004923D03*
X006340Y005356D03*
X006340Y005789D03*
X007049Y006065D03*
X006340Y006222D03*
X009214Y005474D03*
X009214Y005080D03*
X012521Y005041D03*
X013899Y005317D03*
X014450Y004883D03*
X014765Y004529D03*
X016065Y004135D03*
X016813Y003820D03*
X017049Y004175D03*
X017817Y003978D03*
X018269Y003899D03*
X019214Y003860D03*
X019569Y003860D03*
X019569Y004883D03*
X019569Y005435D03*
X019529Y005946D03*
X019096Y005946D03*
X017954Y005946D03*
X017561Y005946D03*
X017167Y005946D03*
X017167Y005474D03*
X017561Y005474D03*
X017954Y005474D03*
X017954Y006419D03*
X017561Y006419D03*
X017167Y006419D03*
X019096Y006419D03*
X019529Y006419D03*
X019529Y006852D03*
X019096Y006852D03*
X019096Y007285D03*
X019529Y007285D03*
X019962Y007285D03*
X020395Y007285D03*
X020828Y007285D03*
X018663Y007285D03*
X018230Y007285D03*
X017797Y007285D03*
X017049Y007285D03*
X016616Y007285D03*
X016183Y007285D03*
X014411Y006891D03*
X013978Y006970D03*
X013348Y007009D03*
X011970Y007246D03*
X011419Y006970D03*
X010356Y007246D03*
X009805Y007246D03*
X009254Y007246D03*
X011694Y006104D03*
X012521Y004647D03*
X012521Y004254D03*
X014450Y004057D03*
X015868Y003742D03*
X014490Y002088D03*
X013584Y002128D03*
X012403Y002088D03*
X011734Y002061D03*
X010277Y001852D03*
X009293Y001852D03*
X008584Y003584D03*
X009254Y003663D03*
X024332Y007317D03*
X024765Y007313D03*
X025198Y007313D03*
X025631Y007088D03*
X027088Y006880D03*
X028702Y007037D03*
X028387Y007313D03*
X027954Y007313D03*
X027521Y007313D03*
X027088Y007313D03*
X025710Y006419D03*
X027049Y005710D03*
X027167Y004990D03*
X025631Y004844D03*
X026498Y004096D03*
X025671Y003769D03*
X025671Y003348D03*
M02*
