%
M48
M72
T01C0.0197
T02C0.0400
T03C0.0472
%
T01
X7954Y2094
X7049Y2449
X6340Y2331
X6340Y2764
X6340Y3197
X6340Y3630
X7049Y3787
X6340Y4063
X7049Y4299
X6340Y4496
X6340Y4929
X6340Y5362
X7049Y5638
X6340Y5795
X9175Y5047
X9175Y4654
X12521Y4614
X12521Y4220
X12521Y3827
X14450Y3630
X15868Y3315
X16813Y3394
X16065Y3709
X17049Y3748
X17817Y3551
X18269Y3472
X19450Y3472
X16588Y2453
X15356Y2370
X13230Y2921
X13860Y2961
X12679Y3157
X11498Y2646
X10277Y2173
X9293Y2173
X11734Y1634
X12403Y1661
X13584Y1701
X14490Y1661
X18545Y1425
X19017Y1425
X19450Y1425
X19883Y1425
X20317Y1425
X23978Y1504
X24411Y1504
X26852Y1335
X27285Y1335
X27718Y1335
X28072Y1846
X28072Y2279
X28072Y2713
X28072Y3146
X28072Y3579
X28072Y4012
X28072Y4445
X28072Y4878
X28072Y5311
X28072Y5744
X28072Y6177
X28033Y6610
X27718Y6886
X27285Y6886
X26852Y6886
X24411Y6886
X23978Y6890
X25041Y5992
X20395Y6858
X19962Y6858
X19529Y6858
X19096Y6858
X18663Y6858
X18230Y6858
X17797Y6858
X17049Y6858
X16616Y6858
X16183Y6858
X14411Y6465
X13978Y6543
X13348Y6583
X11970Y6819
X11419Y6543
X10356Y6819
X9805Y6819
X9254Y6819
X11694Y5677
X13899Y4890
X14450Y4457
X14765Y4102
X17167Y5047
X17561Y5047
X17954Y5047
X19529Y5087
X19529Y5520
X19096Y5520
X17954Y5520
X17561Y5520
X17167Y5520
X17167Y5992
X17561Y5992
X17954Y5992
X19096Y5992
X19529Y5992
X19529Y6425
X19096Y6425
X19529Y4654
X24962Y4417
X26380Y4575
X25828Y3669
X25002Y3342
X25002Y2921
X25277Y2331
X10277Y1425
X9293Y1425
X8584Y3157
X9214Y3236
T02
X27206Y3102
X27206Y2102
X27206Y4102
X27206Y5102
X27206Y6102
T03
X7088Y4929
X7088Y3157
M30
