G75*
%MOIN*%
%OFA0B0*%
%FSLAX24Y24*%
%IPPOS*%
%LPD*%
%AMOC8*
5,1,8,0,0,1.08239X$1,22.5*
%
%ADD10C,0.0000*%
%ADD11C,0.0004*%
D10*
X005868Y001779D02*
X005868Y006425D01*
X005870Y006479D01*
X005875Y006532D01*
X005884Y006585D01*
X005897Y006637D01*
X005913Y006689D01*
X005933Y006739D01*
X005956Y006787D01*
X005983Y006834D01*
X006012Y006879D01*
X006045Y006922D01*
X006080Y006962D01*
X006118Y007000D01*
X006158Y007035D01*
X006201Y007068D01*
X006246Y007097D01*
X006293Y007124D01*
X006341Y007147D01*
X006391Y007167D01*
X006443Y007183D01*
X006495Y007196D01*
X006548Y007205D01*
X006601Y007210D01*
X006655Y007212D01*
X006655Y007213D02*
X027639Y007213D01*
X027639Y007212D02*
X027693Y007210D01*
X027746Y007205D01*
X027799Y007196D01*
X027851Y007183D01*
X027903Y007167D01*
X027953Y007147D01*
X028001Y007124D01*
X028048Y007097D01*
X028093Y007068D01*
X028136Y007035D01*
X028176Y007000D01*
X028214Y006962D01*
X028249Y006922D01*
X028282Y006879D01*
X028311Y006834D01*
X028338Y006787D01*
X028361Y006739D01*
X028381Y006689D01*
X028397Y006637D01*
X028410Y006585D01*
X028419Y006532D01*
X028424Y006479D01*
X028426Y006425D01*
X028427Y006425D02*
X028427Y001779D01*
X028426Y001779D02*
X028424Y001725D01*
X028419Y001672D01*
X028410Y001619D01*
X028397Y001567D01*
X028381Y001515D01*
X028361Y001465D01*
X028338Y001417D01*
X028311Y001370D01*
X028282Y001325D01*
X028249Y001282D01*
X028214Y001242D01*
X028176Y001204D01*
X028136Y001169D01*
X028093Y001136D01*
X028048Y001107D01*
X028001Y001080D01*
X027953Y001057D01*
X027903Y001037D01*
X027851Y001021D01*
X027799Y001008D01*
X027746Y000999D01*
X027693Y000994D01*
X027639Y000992D01*
X006655Y000992D01*
X006601Y000994D01*
X006548Y000999D01*
X006495Y001008D01*
X006443Y001021D01*
X006391Y001037D01*
X006341Y001057D01*
X006293Y001080D01*
X006246Y001107D01*
X006201Y001136D01*
X006158Y001169D01*
X006118Y001204D01*
X006080Y001242D01*
X006045Y001282D01*
X006012Y001325D01*
X005983Y001370D01*
X005956Y001417D01*
X005933Y001465D01*
X005913Y001515D01*
X005897Y001567D01*
X005884Y001619D01*
X005875Y001672D01*
X005870Y001725D01*
X005868Y001779D01*
X006852Y003157D02*
X006854Y003187D01*
X006860Y003217D01*
X006869Y003246D01*
X006882Y003273D01*
X006899Y003298D01*
X006918Y003321D01*
X006941Y003342D01*
X006966Y003359D01*
X006992Y003373D01*
X007021Y003383D01*
X007050Y003390D01*
X007080Y003393D01*
X007111Y003392D01*
X007141Y003387D01*
X007170Y003378D01*
X007197Y003366D01*
X007223Y003351D01*
X007247Y003332D01*
X007268Y003310D01*
X007286Y003286D01*
X007301Y003259D01*
X007312Y003231D01*
X007320Y003202D01*
X007324Y003172D01*
X007324Y003142D01*
X007320Y003112D01*
X007312Y003083D01*
X007301Y003055D01*
X007286Y003028D01*
X007268Y003004D01*
X007247Y002982D01*
X007223Y002963D01*
X007197Y002948D01*
X007170Y002936D01*
X007141Y002927D01*
X007111Y002922D01*
X007080Y002921D01*
X007050Y002924D01*
X007021Y002931D01*
X006992Y002941D01*
X006966Y002955D01*
X006941Y002972D01*
X006918Y002993D01*
X006899Y003016D01*
X006882Y003041D01*
X006869Y003068D01*
X006860Y003097D01*
X006854Y003127D01*
X006852Y003157D01*
X006852Y004929D02*
X006854Y004959D01*
X006860Y004989D01*
X006869Y005018D01*
X006882Y005045D01*
X006899Y005070D01*
X006918Y005093D01*
X006941Y005114D01*
X006966Y005131D01*
X006992Y005145D01*
X007021Y005155D01*
X007050Y005162D01*
X007080Y005165D01*
X007111Y005164D01*
X007141Y005159D01*
X007170Y005150D01*
X007197Y005138D01*
X007223Y005123D01*
X007247Y005104D01*
X007268Y005082D01*
X007286Y005058D01*
X007301Y005031D01*
X007312Y005003D01*
X007320Y004974D01*
X007324Y004944D01*
X007324Y004914D01*
X007320Y004884D01*
X007312Y004855D01*
X007301Y004827D01*
X007286Y004800D01*
X007268Y004776D01*
X007247Y004754D01*
X007223Y004735D01*
X007197Y004720D01*
X007170Y004708D01*
X007141Y004699D01*
X007111Y004694D01*
X007080Y004693D01*
X007050Y004696D01*
X007021Y004703D01*
X006992Y004713D01*
X006966Y004727D01*
X006941Y004744D01*
X006918Y004765D01*
X006899Y004788D01*
X006882Y004813D01*
X006869Y004840D01*
X006860Y004869D01*
X006854Y004899D01*
X006852Y004929D01*
D11*
X006714Y006169D02*
X007383Y006169D01*
X007408Y006171D01*
X007433Y006176D01*
X007457Y006185D01*
X007479Y006197D01*
X007499Y006212D01*
X007517Y006230D01*
X007532Y006250D01*
X007544Y006272D01*
X007553Y006296D01*
X007558Y006321D01*
X007560Y006346D01*
X007558Y006371D01*
X007553Y006396D01*
X007544Y006420D01*
X007532Y006442D01*
X007517Y006462D01*
X007499Y006480D01*
X007479Y006495D01*
X007457Y006507D01*
X007433Y006516D01*
X007408Y006521D01*
X007383Y006523D01*
X007383Y006524D02*
X006714Y006524D01*
X006714Y006523D02*
X006689Y006521D01*
X006664Y006516D01*
X006640Y006507D01*
X006618Y006495D01*
X006598Y006480D01*
X006580Y006462D01*
X006565Y006442D01*
X006553Y006420D01*
X006544Y006396D01*
X006539Y006371D01*
X006537Y006346D01*
X006539Y006321D01*
X006544Y006296D01*
X006553Y006272D01*
X006565Y006250D01*
X006580Y006230D01*
X006598Y006212D01*
X006618Y006197D01*
X006640Y006185D01*
X006664Y006176D01*
X006689Y006171D01*
X006714Y006169D01*
X006714Y001917D02*
X007383Y001917D01*
X007408Y001915D01*
X007433Y001910D01*
X007457Y001901D01*
X007479Y001889D01*
X007499Y001874D01*
X007517Y001856D01*
X007532Y001836D01*
X007544Y001814D01*
X007553Y001790D01*
X007558Y001765D01*
X007560Y001740D01*
X007558Y001715D01*
X007553Y001690D01*
X007544Y001666D01*
X007532Y001644D01*
X007517Y001624D01*
X007499Y001606D01*
X007479Y001591D01*
X007457Y001579D01*
X007433Y001570D01*
X007408Y001565D01*
X007383Y001563D01*
X006714Y001563D01*
X006689Y001565D01*
X006664Y001570D01*
X006640Y001579D01*
X006618Y001591D01*
X006598Y001606D01*
X006580Y001624D01*
X006565Y001644D01*
X006553Y001666D01*
X006544Y001690D01*
X006539Y001715D01*
X006537Y001740D01*
X006539Y001765D01*
X006544Y001790D01*
X006553Y001814D01*
X006565Y001836D01*
X006580Y001856D01*
X006598Y001874D01*
X006618Y001889D01*
X006640Y001901D01*
X006664Y001910D01*
X006689Y001915D01*
X006714Y001917D01*
M02*
