G75*
%MOIN*%
%OFA0B0*%
%FSLAX24Y24*%
%IPPOS*%
%LPD*%
%AMOC8*
5,1,8,0,0,1.08239X$1,22.5*
%
%ADD10R,0.1194X0.0260*%
%ADD11R,0.0425X0.0413*%
%ADD12R,0.0630X0.0512*%
%ADD13R,0.0394X0.0433*%
%ADD14R,0.0118X0.0591*%
%ADD15R,0.0591X0.0118*%
%ADD16R,0.0433X0.0394*%
%ADD17R,0.0512X0.0630*%
%ADD18R,0.0630X0.0250*%
%ADD19R,0.0315X0.0315*%
%ADD20R,0.1260X0.0394*%
%ADD21C,0.0004*%
%ADD22R,0.0500X0.0250*%
%ADD23R,0.0250X0.0630*%
%ADD24C,0.0276*%
%ADD25C,0.0600*%
%ADD26C,0.0197*%
%ADD27C,0.0337*%
%ADD28C,0.0118*%
%ADD29C,0.0000*%
D10*
X020423Y002358D03*
X020423Y002858D03*
X020423Y003358D03*
X020423Y003858D03*
X020423Y004358D03*
X020423Y004858D03*
X020423Y005358D03*
X020423Y005858D03*
X020423Y006358D03*
X020423Y006858D03*
X024777Y006858D03*
X024777Y006358D03*
X024777Y005858D03*
X024777Y005358D03*
X024777Y004858D03*
X024777Y004358D03*
X024777Y003858D03*
X024777Y003358D03*
X024777Y002858D03*
X024777Y002358D03*
D11*
X019450Y002610D03*
X019450Y003299D03*
X019068Y004370D03*
X018545Y004381D03*
X018545Y005070D03*
X019068Y005059D03*
D12*
X018820Y003269D03*
X018820Y002482D03*
X025868Y002797D03*
X026576Y002797D03*
X026576Y002009D03*
X025868Y002009D03*
X025789Y006443D03*
X026498Y006443D03*
X026498Y007230D03*
X025789Y007230D03*
D13*
X025691Y005868D03*
X026360Y005868D03*
X015828Y005297D03*
X015828Y004628D03*
X010907Y004785D03*
X010907Y005454D03*
X015218Y002108D03*
X015887Y002108D03*
D14*
G36*
X013136Y002712D02*
X013220Y002628D01*
X012804Y002212D01*
X012720Y002296D01*
X013136Y002712D01*
G37*
G36*
X012857Y002991D02*
X012941Y002907D01*
X012525Y002491D01*
X012441Y002575D01*
X012857Y002991D01*
G37*
G36*
X012579Y003269D02*
X012663Y003185D01*
X012247Y002769D01*
X012163Y002853D01*
X012579Y003269D01*
G37*
G36*
X012301Y003547D02*
X012385Y003463D01*
X011969Y003047D01*
X011885Y003131D01*
X012301Y003547D01*
G37*
G36*
X012022Y003826D02*
X012106Y003742D01*
X011690Y003326D01*
X011606Y003410D01*
X012022Y003826D01*
G37*
G36*
X011883Y003965D02*
X011967Y003881D01*
X011551Y003465D01*
X011467Y003549D01*
X011883Y003965D01*
G37*
G36*
X011744Y004104D02*
X011828Y004020D01*
X011412Y003604D01*
X011328Y003688D01*
X011744Y004104D01*
G37*
G36*
X011605Y004243D02*
X011689Y004159D01*
X011273Y003743D01*
X011189Y003827D01*
X011605Y004243D01*
G37*
G36*
X012161Y003687D02*
X012245Y003603D01*
X011829Y003187D01*
X011745Y003271D01*
X012161Y003687D01*
G37*
G36*
X012440Y003408D02*
X012524Y003324D01*
X012108Y002908D01*
X012024Y002992D01*
X012440Y003408D01*
G37*
G36*
X012718Y003130D02*
X012802Y003046D01*
X012386Y002630D01*
X012302Y002714D01*
X012718Y003130D01*
G37*
G36*
X012997Y002851D02*
X013081Y002767D01*
X012665Y002351D01*
X012581Y002435D01*
X012997Y002851D01*
G37*
G36*
X015502Y005079D02*
X015586Y004995D01*
X015170Y004579D01*
X015086Y004663D01*
X015502Y005079D01*
G37*
G36*
X015363Y005218D02*
X015447Y005134D01*
X015031Y004718D01*
X014947Y004802D01*
X015363Y005218D01*
G37*
G36*
X015224Y005357D02*
X015308Y005273D01*
X014892Y004857D01*
X014808Y004941D01*
X015224Y005357D01*
G37*
G36*
X015085Y005496D02*
X015169Y005412D01*
X014753Y004996D01*
X014669Y005080D01*
X015085Y005496D01*
G37*
G36*
X014945Y005635D02*
X015029Y005551D01*
X014613Y005135D01*
X014529Y005219D01*
X014945Y005635D01*
G37*
G36*
X014806Y005775D02*
X014890Y005691D01*
X014474Y005275D01*
X014390Y005359D01*
X014806Y005775D01*
G37*
G36*
X014528Y006053D02*
X014612Y005969D01*
X014196Y005553D01*
X014112Y005637D01*
X014528Y006053D01*
G37*
G36*
X014249Y006331D02*
X014333Y006247D01*
X013917Y005831D01*
X013833Y005915D01*
X014249Y006331D01*
G37*
G36*
X013971Y006610D02*
X014055Y006526D01*
X013639Y006110D01*
X013555Y006194D01*
X013971Y006610D01*
G37*
G36*
X014110Y006471D02*
X014194Y006387D01*
X013778Y005971D01*
X013694Y006055D01*
X014110Y006471D01*
G37*
G36*
X014389Y006192D02*
X014473Y006108D01*
X014057Y005692D01*
X013973Y005776D01*
X014389Y006192D01*
G37*
G36*
X014667Y005914D02*
X014751Y005830D01*
X014335Y005414D01*
X014251Y005498D01*
X014667Y005914D01*
G37*
D15*
G36*
X012804Y006610D02*
X013220Y006194D01*
X013136Y006110D01*
X012720Y006526D01*
X012804Y006610D01*
G37*
G36*
X012665Y006471D02*
X013081Y006055D01*
X012997Y005971D01*
X012581Y006387D01*
X012665Y006471D01*
G37*
G36*
X012525Y006331D02*
X012941Y005915D01*
X012857Y005831D01*
X012441Y006247D01*
X012525Y006331D01*
G37*
G36*
X012386Y006192D02*
X012802Y005776D01*
X012718Y005692D01*
X012302Y006108D01*
X012386Y006192D01*
G37*
G36*
X012247Y006053D02*
X012663Y005637D01*
X012579Y005553D01*
X012163Y005969D01*
X012247Y006053D01*
G37*
G36*
X012108Y005914D02*
X012524Y005498D01*
X012440Y005414D01*
X012024Y005830D01*
X012108Y005914D01*
G37*
G36*
X011969Y005775D02*
X012385Y005359D01*
X012301Y005275D01*
X011885Y005691D01*
X011969Y005775D01*
G37*
G36*
X011829Y005635D02*
X012245Y005219D01*
X012161Y005135D01*
X011745Y005551D01*
X011829Y005635D01*
G37*
G36*
X011690Y005496D02*
X012106Y005080D01*
X012022Y004996D01*
X011606Y005412D01*
X011690Y005496D01*
G37*
G36*
X011551Y005357D02*
X011967Y004941D01*
X011883Y004857D01*
X011467Y005273D01*
X011551Y005357D01*
G37*
G36*
X011412Y005218D02*
X011828Y004802D01*
X011744Y004718D01*
X011328Y005134D01*
X011412Y005218D01*
G37*
G36*
X011273Y005079D02*
X011689Y004663D01*
X011605Y004579D01*
X011189Y004995D01*
X011273Y005079D01*
G37*
G36*
X015170Y004243D02*
X015586Y003827D01*
X015502Y003743D01*
X015086Y004159D01*
X015170Y004243D01*
G37*
G36*
X015031Y004104D02*
X015447Y003688D01*
X015363Y003604D01*
X014947Y004020D01*
X015031Y004104D01*
G37*
G36*
X014892Y003965D02*
X015308Y003549D01*
X015224Y003465D01*
X014808Y003881D01*
X014892Y003965D01*
G37*
G36*
X014753Y003826D02*
X015169Y003410D01*
X015085Y003326D01*
X014669Y003742D01*
X014753Y003826D01*
G37*
G36*
X014613Y003687D02*
X015029Y003271D01*
X014945Y003187D01*
X014529Y003603D01*
X014613Y003687D01*
G37*
G36*
X014474Y003547D02*
X014890Y003131D01*
X014806Y003047D01*
X014390Y003463D01*
X014474Y003547D01*
G37*
G36*
X014335Y003408D02*
X014751Y002992D01*
X014667Y002908D01*
X014251Y003324D01*
X014335Y003408D01*
G37*
G36*
X014196Y003269D02*
X014612Y002853D01*
X014528Y002769D01*
X014112Y003185D01*
X014196Y003269D01*
G37*
G36*
X014057Y003130D02*
X014473Y002714D01*
X014389Y002630D01*
X013973Y003046D01*
X014057Y003130D01*
G37*
G36*
X013917Y002991D02*
X014333Y002575D01*
X014249Y002491D01*
X013833Y002907D01*
X013917Y002991D01*
G37*
G36*
X013778Y002851D02*
X014194Y002435D01*
X014110Y002351D01*
X013694Y002767D01*
X013778Y002851D01*
G37*
G36*
X013639Y002712D02*
X014055Y002296D01*
X013971Y002212D01*
X013555Y002628D01*
X013639Y002712D01*
G37*
D16*
X009765Y004667D03*
X009765Y005336D03*
G36*
X012648Y006730D02*
X012343Y006425D01*
X012064Y006704D01*
X012369Y007009D01*
X012648Y006730D01*
G37*
G36*
X013121Y007204D02*
X012816Y006899D01*
X012537Y007178D01*
X012842Y007483D01*
X013121Y007204D01*
G37*
G36*
X014880Y006190D02*
X014575Y006495D01*
X014854Y006774D01*
X015159Y006469D01*
X014880Y006190D01*
G37*
G36*
X015353Y005716D02*
X015048Y006021D01*
X015327Y006300D01*
X015632Y005995D01*
X015353Y005716D01*
G37*
D17*
G36*
X016184Y005580D02*
X015822Y005942D01*
X016266Y006386D01*
X016628Y006024D01*
X016184Y005580D01*
G37*
G36*
X015627Y006137D02*
X015265Y006499D01*
X015709Y006943D01*
X016071Y006581D01*
X015627Y006137D01*
G37*
D18*
X011537Y006537D03*
X008624Y006537D03*
X008624Y002443D03*
X011537Y002443D03*
D19*
X016320Y002521D03*
X016911Y002521D03*
X016911Y002088D03*
X016320Y002088D03*
X017344Y003112D03*
X017935Y003112D03*
X017935Y003545D03*
X017344Y003545D03*
X010356Y004588D03*
X010356Y005179D03*
D20*
X007994Y004864D03*
X007994Y004076D03*
X007994Y003092D03*
X007994Y005848D03*
D21*
X007528Y006528D02*
X007477Y006500D01*
X007421Y006484D01*
X007364Y006478D01*
X006734Y006478D01*
X006676Y006484D01*
X006621Y006500D01*
X006570Y006528D01*
X006525Y006564D01*
X006488Y006609D01*
X006461Y006660D01*
X006444Y006716D01*
X006439Y006773D01*
X006444Y006831D01*
X006461Y006886D01*
X006488Y006937D01*
X007610Y006937D01*
X007609Y006937D02*
X007637Y006886D01*
X006461Y006886D01*
X006462Y006888D02*
X007636Y006888D01*
X007637Y006886D02*
X007653Y006831D01*
X007659Y006773D01*
X007653Y006716D01*
X007637Y006660D01*
X007609Y006609D01*
X007573Y006564D01*
X007528Y006528D01*
X007527Y006527D02*
X006570Y006527D01*
X006567Y006530D02*
X007530Y006530D01*
X007533Y006532D02*
X006564Y006532D01*
X006561Y006535D02*
X007536Y006535D01*
X007539Y006537D02*
X006558Y006537D01*
X006555Y006540D02*
X007542Y006540D01*
X007545Y006542D02*
X006552Y006542D01*
X006549Y006544D02*
X007548Y006544D01*
X007551Y006547D02*
X006546Y006547D01*
X006543Y006549D02*
X007554Y006549D01*
X007557Y006552D02*
X006541Y006552D01*
X006538Y006554D02*
X007560Y006554D01*
X007563Y006557D02*
X006535Y006557D01*
X006532Y006559D02*
X007566Y006559D01*
X007569Y006562D02*
X006529Y006562D01*
X006526Y006564D02*
X007572Y006564D01*
X007574Y006566D02*
X006523Y006566D01*
X006521Y006569D02*
X007576Y006569D01*
X007578Y006571D02*
X006519Y006571D01*
X006517Y006574D02*
X007580Y006574D01*
X007582Y006576D02*
X006515Y006576D01*
X006513Y006579D02*
X007584Y006579D01*
X007586Y006581D02*
X006511Y006581D01*
X006509Y006583D02*
X007588Y006583D01*
X007590Y006586D02*
X006507Y006586D01*
X006505Y006588D02*
X007592Y006588D01*
X007594Y006591D02*
X006503Y006591D01*
X006501Y006593D02*
X007596Y006593D01*
X007598Y006596D02*
X006499Y006596D01*
X006497Y006598D02*
X007600Y006598D01*
X007602Y006600D02*
X006495Y006600D01*
X006493Y006603D02*
X007604Y006603D01*
X007606Y006605D02*
X006491Y006605D01*
X006489Y006608D02*
X007608Y006608D01*
X007610Y006610D02*
X006488Y006610D01*
X006486Y006613D02*
X007611Y006613D01*
X007612Y006615D02*
X006485Y006615D01*
X006484Y006618D02*
X007614Y006618D01*
X007615Y006620D02*
X006483Y006620D01*
X006481Y006622D02*
X007616Y006622D01*
X007618Y006625D02*
X006480Y006625D01*
X006479Y006627D02*
X007619Y006627D01*
X007620Y006630D02*
X006477Y006630D01*
X006476Y006632D02*
X007622Y006632D01*
X007623Y006635D02*
X006475Y006635D01*
X006473Y006637D02*
X007624Y006637D01*
X007625Y006639D02*
X006472Y006639D01*
X006471Y006642D02*
X007627Y006642D01*
X007628Y006644D02*
X006470Y006644D01*
X006468Y006647D02*
X007629Y006647D01*
X007631Y006649D02*
X006467Y006649D01*
X006466Y006652D02*
X007632Y006652D01*
X007633Y006654D02*
X006464Y006654D01*
X006463Y006657D02*
X007635Y006657D01*
X007636Y006659D02*
X006462Y006659D01*
X006461Y006661D02*
X007637Y006661D01*
X007638Y006664D02*
X006460Y006664D01*
X006459Y006666D02*
X007638Y006666D01*
X007639Y006669D02*
X006458Y006669D01*
X006458Y006671D02*
X007640Y006671D01*
X007641Y006674D02*
X006457Y006674D01*
X006456Y006676D02*
X007641Y006676D01*
X007642Y006678D02*
X006456Y006678D01*
X006455Y006681D02*
X007643Y006681D01*
X007644Y006683D02*
X006454Y006683D01*
X006453Y006686D02*
X007644Y006686D01*
X007645Y006688D02*
X006453Y006688D01*
X006452Y006691D02*
X007646Y006691D01*
X007647Y006693D02*
X006451Y006693D01*
X006450Y006696D02*
X007647Y006696D01*
X007648Y006698D02*
X006450Y006698D01*
X006449Y006700D02*
X007649Y006700D01*
X007650Y006703D02*
X006448Y006703D01*
X006447Y006705D02*
X007650Y006705D01*
X007651Y006708D02*
X006447Y006708D01*
X006446Y006710D02*
X007652Y006710D01*
X007652Y006713D02*
X006445Y006713D01*
X006444Y006715D02*
X007653Y006715D01*
X007654Y006717D02*
X006444Y006717D01*
X006444Y006720D02*
X007654Y006720D01*
X007654Y006722D02*
X006444Y006722D01*
X006443Y006725D02*
X007654Y006725D01*
X007655Y006727D02*
X006443Y006727D01*
X006443Y006730D02*
X007655Y006730D01*
X007655Y006732D02*
X006443Y006732D01*
X006442Y006735D02*
X007655Y006735D01*
X007655Y006737D02*
X006442Y006737D01*
X006442Y006739D02*
X007656Y006739D01*
X007656Y006742D02*
X006442Y006742D01*
X006441Y006744D02*
X007656Y006744D01*
X007656Y006747D02*
X006441Y006747D01*
X006441Y006749D02*
X007657Y006749D01*
X007657Y006752D02*
X006441Y006752D01*
X006440Y006754D02*
X007657Y006754D01*
X007657Y006756D02*
X006440Y006756D01*
X006440Y006759D02*
X007658Y006759D01*
X007658Y006761D02*
X006440Y006761D01*
X006440Y006764D02*
X007658Y006764D01*
X007658Y006766D02*
X006439Y006766D01*
X006439Y006769D02*
X007659Y006769D01*
X007659Y006771D02*
X006439Y006771D01*
X006439Y006774D02*
X007659Y006774D01*
X007659Y006776D02*
X006439Y006776D01*
X006439Y006778D02*
X007659Y006778D01*
X007658Y006781D02*
X006439Y006781D01*
X006440Y006783D02*
X007658Y006783D01*
X007658Y006786D02*
X006440Y006786D01*
X006440Y006788D02*
X007658Y006788D01*
X007657Y006791D02*
X006440Y006791D01*
X006441Y006793D02*
X007657Y006793D01*
X007657Y006795D02*
X006441Y006795D01*
X006441Y006798D02*
X007657Y006798D01*
X007656Y006800D02*
X006441Y006800D01*
X006441Y006803D02*
X007656Y006803D01*
X007656Y006805D02*
X006442Y006805D01*
X006442Y006808D02*
X007656Y006808D01*
X007655Y006810D02*
X006442Y006810D01*
X006442Y006813D02*
X007655Y006813D01*
X007655Y006815D02*
X006443Y006815D01*
X006443Y006817D02*
X007655Y006817D01*
X007654Y006820D02*
X006443Y006820D01*
X006443Y006822D02*
X007654Y006822D01*
X007654Y006825D02*
X006444Y006825D01*
X006444Y006827D02*
X007654Y006827D01*
X007654Y006830D02*
X006444Y006830D01*
X006445Y006832D02*
X007653Y006832D01*
X007652Y006834D02*
X006445Y006834D01*
X006446Y006837D02*
X007652Y006837D01*
X007651Y006839D02*
X006447Y006839D01*
X006448Y006842D02*
X007650Y006842D01*
X007649Y006844D02*
X006448Y006844D01*
X006449Y006847D02*
X007649Y006847D01*
X007648Y006849D02*
X006450Y006849D01*
X006451Y006852D02*
X007647Y006852D01*
X007646Y006854D02*
X006451Y006854D01*
X006452Y006856D02*
X007646Y006856D01*
X007645Y006859D02*
X006453Y006859D01*
X006453Y006861D02*
X007644Y006861D01*
X007643Y006864D02*
X006454Y006864D01*
X006455Y006866D02*
X007643Y006866D01*
X007642Y006869D02*
X006456Y006869D01*
X006456Y006871D02*
X007641Y006871D01*
X007640Y006873D02*
X006457Y006873D01*
X006458Y006876D02*
X007640Y006876D01*
X007639Y006878D02*
X006459Y006878D01*
X006459Y006881D02*
X007638Y006881D01*
X007637Y006883D02*
X006460Y006883D01*
X006463Y006891D02*
X007634Y006891D01*
X007633Y006893D02*
X006465Y006893D01*
X006466Y006895D02*
X007632Y006895D01*
X007630Y006898D02*
X006467Y006898D01*
X006469Y006900D02*
X007629Y006900D01*
X007628Y006903D02*
X006470Y006903D01*
X006471Y006905D02*
X007626Y006905D01*
X007625Y006908D02*
X006472Y006908D01*
X006474Y006910D02*
X007624Y006910D01*
X007623Y006912D02*
X006475Y006912D01*
X006476Y006915D02*
X007621Y006915D01*
X007620Y006917D02*
X006478Y006917D01*
X006479Y006920D02*
X007619Y006920D01*
X007617Y006922D02*
X006480Y006922D01*
X006482Y006925D02*
X007616Y006925D01*
X007615Y006927D02*
X006483Y006927D01*
X006484Y006930D02*
X007613Y006930D01*
X007612Y006932D02*
X006486Y006932D01*
X006487Y006934D02*
X007611Y006934D01*
X007609Y006937D02*
X007573Y006982D01*
X007528Y007019D01*
X007477Y007046D01*
X007421Y007063D01*
X007364Y007069D01*
X006734Y007069D01*
X006676Y007063D01*
X006621Y007046D01*
X006570Y007019D01*
X006525Y006982D01*
X006488Y006937D01*
X006490Y006939D02*
X007608Y006939D01*
X007606Y006942D02*
X006492Y006942D01*
X006494Y006944D02*
X007604Y006944D01*
X007602Y006947D02*
X006496Y006947D01*
X006498Y006949D02*
X007600Y006949D01*
X007598Y006951D02*
X006500Y006951D01*
X006502Y006954D02*
X007596Y006954D01*
X007594Y006956D02*
X006504Y006956D01*
X006506Y006959D02*
X007592Y006959D01*
X007590Y006961D02*
X006508Y006961D01*
X006510Y006964D02*
X007588Y006964D01*
X007586Y006966D02*
X006512Y006966D01*
X006514Y006969D02*
X007584Y006969D01*
X007582Y006971D02*
X006516Y006971D01*
X006518Y006973D02*
X007580Y006973D01*
X007578Y006976D02*
X006520Y006976D01*
X006522Y006978D02*
X007576Y006978D01*
X007574Y006981D02*
X006524Y006981D01*
X006526Y006983D02*
X007571Y006983D01*
X007568Y006986D02*
X006529Y006986D01*
X006532Y006988D02*
X007565Y006988D01*
X007562Y006990D02*
X006535Y006990D01*
X006538Y006993D02*
X007559Y006993D01*
X007556Y006995D02*
X006541Y006995D01*
X006544Y006998D02*
X007553Y006998D01*
X007550Y007000D02*
X006547Y007000D01*
X006550Y007003D02*
X007547Y007003D01*
X007544Y007005D02*
X006553Y007005D01*
X006556Y007008D02*
X007541Y007008D01*
X007539Y007010D02*
X006559Y007010D01*
X006562Y007012D02*
X007536Y007012D01*
X007533Y007015D02*
X006565Y007015D01*
X006568Y007017D02*
X007530Y007017D01*
X007526Y007020D02*
X006572Y007020D01*
X006576Y007022D02*
X007521Y007022D01*
X007517Y007025D02*
X006581Y007025D01*
X006585Y007027D02*
X007512Y007027D01*
X007508Y007029D02*
X006590Y007029D01*
X006594Y007032D02*
X007503Y007032D01*
X007499Y007034D02*
X006599Y007034D01*
X006604Y007037D02*
X007494Y007037D01*
X007490Y007039D02*
X006608Y007039D01*
X006613Y007042D02*
X007485Y007042D01*
X007480Y007044D02*
X006617Y007044D01*
X006622Y007047D02*
X007475Y007047D01*
X007467Y007049D02*
X006631Y007049D01*
X006639Y007051D02*
X007459Y007051D01*
X007451Y007054D02*
X006647Y007054D01*
X006655Y007056D02*
X007443Y007056D01*
X007435Y007059D02*
X006663Y007059D01*
X006671Y007061D02*
X007427Y007061D01*
X007414Y007064D02*
X006684Y007064D01*
X006709Y007066D02*
X007389Y007066D01*
X007364Y007068D02*
X006733Y007068D01*
X006575Y006525D02*
X007523Y006525D01*
X007518Y006523D02*
X006580Y006523D01*
X006584Y006520D02*
X007514Y006520D01*
X007509Y006518D02*
X006589Y006518D01*
X006593Y006515D02*
X007504Y006515D01*
X007500Y006513D02*
X006598Y006513D01*
X006602Y006510D02*
X007495Y006510D01*
X007491Y006508D02*
X006607Y006508D01*
X006611Y006505D02*
X007486Y006505D01*
X007482Y006503D02*
X006616Y006503D01*
X006621Y006501D02*
X007477Y006501D01*
X007469Y006498D02*
X006628Y006498D01*
X006636Y006496D02*
X007461Y006496D01*
X007453Y006493D02*
X006644Y006493D01*
X006653Y006491D02*
X007445Y006491D01*
X007437Y006488D02*
X006661Y006488D01*
X006669Y006486D02*
X007429Y006486D01*
X007420Y006484D02*
X006677Y006484D01*
X006702Y006481D02*
X007395Y006481D01*
X007371Y006479D02*
X006727Y006479D01*
X006734Y002462D02*
X007364Y002462D01*
X007421Y002457D01*
X007477Y002440D01*
X007528Y002412D01*
X007573Y002376D01*
X007609Y002331D01*
X007637Y002280D01*
X007653Y002225D01*
X007659Y002167D01*
X007653Y002109D01*
X006444Y002109D01*
X006439Y002167D01*
X007659Y002167D01*
X007659Y002165D02*
X006439Y002165D01*
X006439Y002167D02*
X006444Y002225D01*
X006461Y002280D01*
X006488Y002331D01*
X006525Y002376D01*
X006570Y002412D01*
X006621Y002440D01*
X006676Y002457D01*
X006734Y002462D01*
X006732Y002462D02*
X007365Y002462D01*
X007390Y002460D02*
X006707Y002460D01*
X006683Y002457D02*
X007415Y002457D01*
X007427Y002455D02*
X006670Y002455D01*
X006662Y002452D02*
X007435Y002452D01*
X007443Y002450D02*
X006654Y002450D01*
X006646Y002447D02*
X007451Y002447D01*
X007459Y002445D02*
X006638Y002445D01*
X006630Y002443D02*
X007467Y002443D01*
X007476Y002440D02*
X006622Y002440D01*
X006617Y002438D02*
X007481Y002438D01*
X007485Y002435D02*
X006612Y002435D01*
X006608Y002433D02*
X007490Y002433D01*
X007494Y002430D02*
X006603Y002430D01*
X006599Y002428D02*
X007499Y002428D01*
X007503Y002425D02*
X006594Y002425D01*
X006590Y002423D02*
X007508Y002423D01*
X007513Y002421D02*
X006585Y002421D01*
X006581Y002418D02*
X007517Y002418D01*
X007522Y002416D02*
X006576Y002416D01*
X006571Y002413D02*
X007526Y002413D01*
X007530Y002411D02*
X006568Y002411D01*
X006565Y002408D02*
X007533Y002408D01*
X007536Y002406D02*
X006562Y002406D01*
X006559Y002404D02*
X007539Y002404D01*
X007542Y002401D02*
X006556Y002401D01*
X006553Y002399D02*
X007545Y002399D01*
X007548Y002396D02*
X006550Y002396D01*
X006547Y002394D02*
X007551Y002394D01*
X007554Y002391D02*
X006544Y002391D01*
X006541Y002389D02*
X007556Y002389D01*
X007559Y002386D02*
X006538Y002386D01*
X006535Y002384D02*
X007562Y002384D01*
X007565Y002382D02*
X006532Y002382D01*
X006529Y002379D02*
X007568Y002379D01*
X007571Y002377D02*
X006526Y002377D01*
X006524Y002374D02*
X007574Y002374D01*
X007576Y002372D02*
X006522Y002372D01*
X006520Y002369D02*
X007578Y002369D01*
X007580Y002367D02*
X006518Y002367D01*
X006516Y002365D02*
X007582Y002365D01*
X007584Y002362D02*
X006514Y002362D01*
X006512Y002360D02*
X007586Y002360D01*
X007588Y002357D02*
X006510Y002357D01*
X006508Y002355D02*
X007590Y002355D01*
X007592Y002352D02*
X006506Y002352D01*
X006504Y002350D02*
X007594Y002350D01*
X007596Y002347D02*
X006502Y002347D01*
X006500Y002345D02*
X007598Y002345D01*
X007600Y002343D02*
X006498Y002343D01*
X006496Y002340D02*
X007602Y002340D01*
X007604Y002338D02*
X006494Y002338D01*
X006492Y002335D02*
X007606Y002335D01*
X007608Y002333D02*
X006490Y002333D01*
X006488Y002330D02*
X007610Y002330D01*
X007611Y002328D02*
X006487Y002328D01*
X006485Y002326D02*
X007612Y002326D01*
X007613Y002323D02*
X006484Y002323D01*
X006483Y002321D02*
X007615Y002321D01*
X007616Y002318D02*
X006482Y002318D01*
X006480Y002316D02*
X007617Y002316D01*
X007619Y002313D02*
X006479Y002313D01*
X006478Y002311D02*
X007620Y002311D01*
X007621Y002308D02*
X006476Y002308D01*
X006475Y002306D02*
X007623Y002306D01*
X007624Y002304D02*
X006474Y002304D01*
X006472Y002301D02*
X007625Y002301D01*
X007627Y002299D02*
X006471Y002299D01*
X006470Y002296D02*
X007628Y002296D01*
X007629Y002294D02*
X006469Y002294D01*
X006467Y002291D02*
X007630Y002291D01*
X007632Y002289D02*
X006466Y002289D01*
X006465Y002287D02*
X007633Y002287D01*
X007634Y002284D02*
X006463Y002284D01*
X006462Y002282D02*
X007636Y002282D01*
X007637Y002279D02*
X006461Y002279D01*
X006460Y002277D02*
X007638Y002277D01*
X007638Y002274D02*
X006459Y002274D01*
X006459Y002272D02*
X007639Y002272D01*
X007640Y002269D02*
X006458Y002269D01*
X006457Y002267D02*
X007640Y002267D01*
X007641Y002265D02*
X006456Y002265D01*
X006456Y002262D02*
X007642Y002262D01*
X007643Y002260D02*
X006455Y002260D01*
X006454Y002257D02*
X007643Y002257D01*
X007644Y002255D02*
X006453Y002255D01*
X006453Y002252D02*
X007645Y002252D01*
X007646Y002250D02*
X006452Y002250D01*
X006451Y002248D02*
X007646Y002248D01*
X007647Y002245D02*
X006451Y002245D01*
X006450Y002243D02*
X007648Y002243D01*
X007649Y002240D02*
X006449Y002240D01*
X006448Y002238D02*
X007649Y002238D01*
X007650Y002235D02*
X006448Y002235D01*
X006447Y002233D02*
X007651Y002233D01*
X007652Y002231D02*
X006446Y002231D01*
X006445Y002228D02*
X007652Y002228D01*
X007653Y002226D02*
X006445Y002226D01*
X006444Y002223D02*
X007654Y002223D01*
X007654Y002221D02*
X006444Y002221D01*
X006444Y002218D02*
X007654Y002218D01*
X007654Y002216D02*
X006443Y002216D01*
X006443Y002213D02*
X007654Y002213D01*
X007655Y002211D02*
X006443Y002211D01*
X006443Y002209D02*
X007655Y002209D01*
X007655Y002206D02*
X006442Y002206D01*
X006442Y002204D02*
X007655Y002204D01*
X007656Y002201D02*
X006442Y002201D01*
X006442Y002199D02*
X007656Y002199D01*
X007656Y002196D02*
X006441Y002196D01*
X006441Y002194D02*
X007656Y002194D01*
X007657Y002192D02*
X006441Y002192D01*
X006441Y002189D02*
X007657Y002189D01*
X007657Y002187D02*
X006441Y002187D01*
X006440Y002184D02*
X007657Y002184D01*
X007658Y002182D02*
X006440Y002182D01*
X006440Y002179D02*
X007658Y002179D01*
X007658Y002177D02*
X006440Y002177D01*
X006439Y002174D02*
X007658Y002174D01*
X007659Y002172D02*
X006439Y002172D01*
X006439Y002170D02*
X007659Y002170D01*
X007659Y002162D02*
X006439Y002162D01*
X006439Y002160D02*
X007658Y002160D01*
X007658Y002157D02*
X006440Y002157D01*
X006440Y002155D02*
X007658Y002155D01*
X007658Y002153D02*
X006440Y002153D01*
X006440Y002150D02*
X007657Y002150D01*
X007657Y002148D02*
X006440Y002148D01*
X006441Y002145D02*
X007657Y002145D01*
X007657Y002143D02*
X006441Y002143D01*
X006441Y002140D02*
X007656Y002140D01*
X007656Y002138D02*
X006441Y002138D01*
X006442Y002135D02*
X007656Y002135D01*
X007656Y002133D02*
X006442Y002133D01*
X006442Y002131D02*
X007655Y002131D01*
X007655Y002128D02*
X006442Y002128D01*
X006443Y002126D02*
X007655Y002126D01*
X007655Y002123D02*
X006443Y002123D01*
X006443Y002121D02*
X007655Y002121D01*
X007654Y002118D02*
X006443Y002118D01*
X006444Y002116D02*
X007654Y002116D01*
X007654Y002114D02*
X006444Y002114D01*
X006444Y002111D02*
X007654Y002111D01*
X007653Y002109D02*
X007637Y002054D01*
X007609Y002003D01*
X007573Y001958D01*
X007528Y001921D01*
X007477Y001894D01*
X006621Y001894D01*
X006570Y001921D01*
X006525Y001958D01*
X006488Y002003D01*
X006461Y002054D01*
X006444Y002109D01*
X006445Y002106D02*
X007652Y002106D01*
X007652Y002104D02*
X006446Y002104D01*
X006447Y002101D02*
X007651Y002101D01*
X007650Y002099D02*
X006447Y002099D01*
X006448Y002096D02*
X007649Y002096D01*
X007649Y002094D02*
X006449Y002094D01*
X006450Y002092D02*
X007648Y002092D01*
X007647Y002089D02*
X006450Y002089D01*
X006451Y002087D02*
X007647Y002087D01*
X007646Y002084D02*
X006452Y002084D01*
X006453Y002082D02*
X007645Y002082D01*
X007644Y002079D02*
X006453Y002079D01*
X006454Y002077D02*
X007644Y002077D01*
X007643Y002075D02*
X006455Y002075D01*
X006456Y002072D02*
X007642Y002072D01*
X007641Y002070D02*
X006456Y002070D01*
X006457Y002067D02*
X007641Y002067D01*
X007640Y002065D02*
X006458Y002065D01*
X006459Y002062D02*
X007639Y002062D01*
X007638Y002060D02*
X006459Y002060D01*
X006460Y002057D02*
X007638Y002057D01*
X007637Y002055D02*
X006461Y002055D01*
X006462Y002053D02*
X007636Y002053D01*
X007635Y002050D02*
X006463Y002050D01*
X006464Y002048D02*
X007633Y002048D01*
X007632Y002045D02*
X006466Y002045D01*
X006467Y002043D02*
X007631Y002043D01*
X007629Y002040D02*
X006468Y002040D01*
X006470Y002038D02*
X007628Y002038D01*
X007627Y002036D02*
X006471Y002036D01*
X006472Y002033D02*
X007625Y002033D01*
X007624Y002031D02*
X006474Y002031D01*
X006475Y002028D02*
X007623Y002028D01*
X007622Y002026D02*
X006476Y002026D01*
X006477Y002023D02*
X007620Y002023D01*
X007619Y002021D02*
X006479Y002021D01*
X006480Y002018D02*
X007618Y002018D01*
X007616Y002016D02*
X006481Y002016D01*
X006483Y002014D02*
X007615Y002014D01*
X007614Y002011D02*
X006484Y002011D01*
X006485Y002009D02*
X007612Y002009D01*
X007611Y002006D02*
X006487Y002006D01*
X006488Y002004D02*
X007610Y002004D01*
X007608Y002001D02*
X006490Y002001D01*
X006492Y001999D02*
X007606Y001999D01*
X007604Y001997D02*
X006494Y001997D01*
X006496Y001994D02*
X007602Y001994D01*
X007600Y001992D02*
X006498Y001992D01*
X006500Y001989D02*
X007598Y001989D01*
X007596Y001987D02*
X006502Y001987D01*
X006504Y001984D02*
X007594Y001984D01*
X007592Y001982D02*
X006506Y001982D01*
X006508Y001979D02*
X007590Y001979D01*
X007588Y001977D02*
X006510Y001977D01*
X006512Y001975D02*
X007586Y001975D01*
X007584Y001972D02*
X006514Y001972D01*
X006516Y001970D02*
X007582Y001970D01*
X007580Y001967D02*
X006518Y001967D01*
X006520Y001965D02*
X007578Y001965D01*
X007576Y001962D02*
X006522Y001962D01*
X006524Y001960D02*
X007574Y001960D01*
X007572Y001958D02*
X006526Y001958D01*
X006529Y001955D02*
X007569Y001955D01*
X007566Y001953D02*
X006532Y001953D01*
X006535Y001950D02*
X007563Y001950D01*
X007560Y001948D02*
X006538Y001948D01*
X006541Y001945D02*
X007557Y001945D01*
X007554Y001943D02*
X006544Y001943D01*
X006547Y001940D02*
X007551Y001940D01*
X007548Y001938D02*
X006550Y001938D01*
X006553Y001936D02*
X007545Y001936D01*
X007542Y001933D02*
X006556Y001933D01*
X006558Y001931D02*
X007539Y001931D01*
X007536Y001928D02*
X006561Y001928D01*
X006564Y001926D02*
X007533Y001926D01*
X007530Y001923D02*
X006567Y001923D01*
X006571Y001921D02*
X007527Y001921D01*
X007522Y001919D02*
X006575Y001919D01*
X006580Y001916D02*
X007518Y001916D01*
X007513Y001914D02*
X006584Y001914D01*
X006589Y001911D02*
X007509Y001911D01*
X007504Y001909D02*
X006593Y001909D01*
X006598Y001906D02*
X007500Y001906D01*
X007495Y001904D02*
X006603Y001904D01*
X006607Y001901D02*
X007491Y001901D01*
X007486Y001899D02*
X006612Y001899D01*
X006616Y001897D02*
X007481Y001897D01*
X007477Y001894D02*
X007421Y001877D01*
X007364Y001872D01*
X006734Y001872D01*
X006676Y001877D01*
X006621Y001894D01*
X006629Y001892D02*
X007469Y001892D01*
X007461Y001889D02*
X006637Y001889D01*
X006645Y001887D02*
X007453Y001887D01*
X007445Y001884D02*
X006653Y001884D01*
X006661Y001882D02*
X007437Y001882D01*
X007429Y001880D02*
X006669Y001880D01*
X006679Y001877D02*
X007419Y001877D01*
X007394Y001875D02*
X006703Y001875D01*
X006728Y001872D02*
X007370Y001872D01*
D22*
X007049Y002167D03*
X007069Y006773D03*
D23*
X017443Y007151D03*
X017443Y004237D03*
D24*
X014954Y002844D03*
D25*
X027576Y002529D02*
X028176Y002529D01*
X028176Y003529D02*
X027576Y003529D01*
X027576Y004529D02*
X028176Y004529D01*
X028176Y005529D02*
X027576Y005529D01*
X027576Y006529D02*
X028176Y006529D01*
D26*
X026498Y006443D02*
X025789Y006443D01*
X025689Y006358D01*
X025710Y006358D01*
X025710Y006419D01*
X025689Y006358D02*
X024777Y006358D01*
X024787Y005868D02*
X025691Y005868D01*
X027049Y005710D02*
X027049Y005395D01*
X026399Y004746D01*
X027616Y003529D01*
X027876Y003529D01*
X027710Y002529D02*
X026773Y003466D01*
X026773Y003702D01*
X026439Y004037D01*
X026498Y004096D01*
X026439Y004037D02*
X026118Y004358D01*
X024777Y004358D01*
X025787Y005358D02*
X026399Y004746D01*
X025787Y005358D02*
X024777Y005358D01*
X024779Y005356D01*
X020423Y005358D02*
X019645Y005358D01*
X019569Y005435D01*
X019175Y005631D02*
X019175Y005095D01*
X019068Y005059D01*
X018596Y005059D01*
X018545Y005070D01*
X018269Y004372D02*
X017836Y004805D01*
X016852Y004805D01*
X016675Y004628D01*
X015887Y004628D01*
X015828Y004628D01*
X015887Y004628D02*
X015710Y004450D01*
X014844Y004450D01*
X014765Y004529D01*
X014726Y004490D02*
X014135Y004490D01*
X013860Y004214D01*
X013860Y003387D01*
X010946Y002600D02*
X010946Y002128D01*
X011376Y001675D01*
X017714Y001675D01*
X018309Y002285D01*
X018309Y003072D01*
X018506Y003269D01*
X018820Y003269D01*
X018781Y003230D01*
X018820Y003269D02*
X018850Y003299D01*
X019450Y003299D01*
X019509Y003358D01*
X020423Y003358D01*
X020423Y003858D02*
X019567Y003858D01*
X019425Y004358D02*
X019413Y004370D01*
X019068Y004370D01*
X019057Y004381D01*
X018545Y004381D01*
X018535Y004372D01*
X018269Y004372D01*
X019425Y004358D02*
X020423Y004358D01*
X020423Y004858D02*
X019594Y004858D01*
X019569Y004883D01*
X019175Y005631D02*
X019401Y005858D01*
X019578Y005858D01*
X019529Y005946D01*
X019578Y005858D02*
X019608Y005858D01*
X019608Y006734D01*
X019608Y006813D01*
X019529Y006852D01*
X019017Y007364D01*
X017403Y007364D01*
X017443Y007324D01*
X017443Y007151D01*
X017403Y007364D02*
X016301Y007364D01*
X012836Y007364D01*
X009332Y007364D01*
X008624Y006537D01*
X008624Y006301D01*
X008171Y005848D01*
X008801Y005848D01*
X009214Y005474D01*
X008171Y005848D02*
X007994Y005848D01*
X009254Y003663D02*
X008683Y003092D01*
X010454Y003092D01*
X010946Y002600D01*
X008683Y003092D02*
X007994Y003092D01*
X018820Y002482D02*
X018948Y002610D01*
X019450Y002610D01*
X019702Y002358D01*
X020423Y002358D01*
X020946Y002206D02*
X019647Y002206D01*
X020750Y001852D02*
X020946Y002049D01*
X020946Y002206D01*
X019698Y002858D02*
X019450Y002610D01*
X019698Y002858D02*
X020423Y002858D01*
X024254Y002206D02*
X024254Y002049D01*
X024372Y001931D01*
X025238Y001931D02*
X025277Y001970D01*
X025277Y002206D01*
X025513Y002167D02*
X024293Y002167D01*
X024254Y002206D01*
X024777Y002358D02*
X025519Y002358D01*
X025868Y002009D01*
X026576Y002009D01*
X027710Y002529D02*
X027876Y002529D01*
X026576Y002797D02*
X025868Y002797D01*
X025907Y002797D01*
X025946Y002757D01*
X025868Y002797D02*
X025767Y002897D01*
X025728Y002858D01*
X024777Y002858D01*
X020423Y005858D02*
X019608Y005858D01*
X019608Y006734D02*
X019732Y006858D01*
X020423Y006858D01*
X020907Y007009D02*
X020946Y006970D01*
X020946Y007167D01*
X020828Y007285D01*
X020907Y007009D02*
X019726Y007009D01*
X024254Y007009D02*
X024332Y007088D01*
X025395Y007088D01*
X025362Y006858D02*
X025631Y007128D01*
X025750Y007206D01*
X025789Y007230D01*
X026498Y007230D01*
X025362Y006858D02*
X024777Y006858D01*
X024254Y007009D02*
X024254Y007238D01*
X024332Y007317D01*
D27*
X024332Y007317D03*
X024765Y007313D03*
X025198Y007313D03*
X025631Y007088D03*
X027088Y006880D03*
X028702Y007037D03*
X028387Y007313D03*
X027954Y007313D03*
X027521Y007313D03*
X027088Y007313D03*
X028742Y006604D03*
X028742Y006171D03*
X028742Y005738D03*
X028742Y005305D03*
X028742Y004872D03*
X028742Y004439D03*
X028742Y004006D03*
X028742Y003572D03*
X028742Y003139D03*
X028742Y002706D03*
X028742Y002273D03*
X025946Y002757D03*
X025671Y002246D03*
X025238Y001931D03*
X024805Y001931D03*
X024372Y001931D03*
X020750Y001852D03*
X020317Y001852D03*
X019883Y001852D03*
X019450Y001852D03*
X019017Y001852D03*
X018545Y001852D03*
X019569Y002364D03*
X019529Y002797D03*
X016588Y002880D03*
X015356Y002797D03*
X013860Y003387D03*
X013230Y003348D03*
X012679Y003584D03*
X011498Y003072D03*
X010277Y002600D03*
X009293Y002600D03*
X007954Y002521D03*
X007049Y002876D03*
X006340Y002757D03*
X006340Y003191D03*
X006340Y003624D03*
X006340Y004057D03*
X007049Y004214D03*
X006340Y004490D03*
X007049Y004726D03*
X006340Y004923D03*
X006340Y005356D03*
X006340Y005789D03*
X007049Y006065D03*
X006340Y006222D03*
X009214Y005474D03*
X009214Y005080D03*
X012521Y005041D03*
X013899Y005317D03*
X014450Y004883D03*
X014765Y004529D03*
X016065Y004135D03*
X016813Y003820D03*
X017049Y004175D03*
X017817Y003978D03*
X018269Y003899D03*
X019214Y003860D03*
X019569Y003860D03*
X019569Y004883D03*
X019569Y005435D03*
X019529Y005946D03*
X019096Y005946D03*
X017954Y005946D03*
X017561Y005946D03*
X017167Y005946D03*
X017167Y005474D03*
X017561Y005474D03*
X017954Y005474D03*
X017954Y006419D03*
X017561Y006419D03*
X017167Y006419D03*
X019096Y006419D03*
X019529Y006419D03*
X019529Y006852D03*
X019096Y006852D03*
X019096Y007285D03*
X019529Y007285D03*
X019962Y007285D03*
X020395Y007285D03*
X020828Y007285D03*
X018663Y007285D03*
X018230Y007285D03*
X017797Y007285D03*
X017049Y007285D03*
X016616Y007285D03*
X016183Y007285D03*
X014411Y006891D03*
X013978Y006970D03*
X013348Y007009D03*
X011970Y007246D03*
X011419Y006970D03*
X010356Y007246D03*
X009805Y007246D03*
X009254Y007246D03*
X011694Y006104D03*
X012521Y004647D03*
X012521Y004254D03*
X014450Y004057D03*
X015868Y003742D03*
X014490Y002088D03*
X013584Y002128D03*
X012403Y002088D03*
X011734Y002061D03*
X010277Y001852D03*
X009293Y001852D03*
X008584Y003584D03*
X009254Y003663D03*
X025671Y003769D03*
X025986Y004006D03*
X026498Y004096D03*
X025631Y004844D03*
X027167Y004990D03*
X027049Y005710D03*
X025710Y006419D03*
X025671Y003348D03*
D28*
X006246Y001797D02*
X006140Y001944D01*
X006084Y002116D01*
X006077Y002206D01*
X006077Y006852D01*
X006084Y006942D01*
X006140Y007115D01*
X006246Y007261D01*
X006393Y007367D01*
X006565Y007423D01*
X006655Y007430D01*
X012645Y007430D01*
X012829Y007246D01*
X012773Y007191D01*
X012550Y007415D01*
X012409Y007274D01*
X012389Y007238D01*
X012378Y007198D01*
X012378Y007156D01*
X012379Y007149D01*
X012312Y007149D01*
X011937Y006775D01*
X011910Y006802D01*
X011736Y006802D01*
X011736Y006934D01*
X011727Y006943D01*
X011727Y007031D01*
X011680Y007145D01*
X011593Y007231D01*
X011480Y007278D01*
X011358Y007278D01*
X011244Y007231D01*
X011158Y007145D01*
X011111Y007031D01*
X011111Y006909D01*
X011158Y006796D01*
X011158Y006795D01*
X011082Y006720D01*
X011082Y006354D01*
X011164Y006272D01*
X011910Y006272D01*
X011976Y006338D01*
X012136Y006338D01*
X012210Y006332D01*
X012217Y006338D01*
X012226Y006338D01*
X012229Y006341D01*
X012282Y006287D01*
X012162Y006167D01*
X012023Y006028D01*
X011884Y005889D01*
X011744Y005750D01*
X011605Y005610D01*
X011492Y005497D01*
X011366Y005371D01*
X011349Y005367D01*
X011313Y005346D01*
X011263Y005295D01*
X011263Y005415D01*
X010946Y005415D01*
X010946Y005494D01*
X010868Y005494D01*
X010868Y005830D01*
X010689Y005830D01*
X010649Y005819D01*
X010613Y005798D01*
X010583Y005769D01*
X010562Y005732D01*
X010551Y005692D01*
X010551Y005494D01*
X010868Y005494D01*
X010868Y005415D01*
X010632Y005415D01*
X010571Y005476D01*
X010340Y005476D01*
X010281Y005535D01*
X010122Y005535D01*
X010122Y005591D01*
X010040Y005673D01*
X009491Y005673D01*
X009409Y005591D01*
X009409Y005081D01*
X009482Y005009D01*
X009451Y004991D01*
X009422Y004961D01*
X009401Y004925D01*
X009390Y004885D01*
X009390Y004706D01*
X009726Y004706D01*
X009726Y004628D01*
X009397Y004628D01*
X008962Y005063D01*
X008763Y005063D01*
X008763Y005119D01*
X008682Y005200D01*
X007506Y005200D01*
X007533Y005267D01*
X009409Y005267D01*
X009409Y005150D02*
X008731Y005150D01*
X008991Y005034D02*
X009457Y005034D01*
X009470Y004785D02*
X009135Y005120D01*
X009135Y005435D01*
X009214Y005474D01*
X009409Y005500D02*
X008675Y005500D01*
X008685Y005503D02*
X008645Y005492D01*
X008033Y005492D01*
X008033Y005809D01*
X008033Y005887D01*
X008783Y005887D01*
X008783Y006066D01*
X008772Y006106D01*
X008751Y006143D01*
X008721Y006172D01*
X008685Y006193D01*
X008645Y006204D01*
X008033Y006204D01*
X008033Y005887D01*
X007954Y005887D01*
X007954Y005809D01*
X007205Y005809D01*
X007205Y005790D01*
X007177Y005801D01*
X007000Y005801D01*
X006836Y005733D01*
X006711Y005608D01*
X006643Y005444D01*
X006643Y005267D01*
X006077Y005267D01*
X006077Y005150D02*
X006691Y005150D01*
X006711Y005104D02*
X006643Y005267D01*
X006643Y005384D02*
X006077Y005384D01*
X006077Y005500D02*
X006666Y005500D01*
X006719Y005617D02*
X006077Y005617D01*
X006077Y005733D02*
X006836Y005733D01*
X007205Y005887D02*
X007954Y005887D01*
X007954Y006204D01*
X007343Y006204D01*
X007302Y006193D01*
X007266Y006172D01*
X007237Y006143D01*
X007216Y006106D01*
X007205Y006066D01*
X007205Y005887D01*
X007205Y005967D02*
X006077Y005967D01*
X006077Y006083D02*
X007209Y006083D01*
X007328Y006200D02*
X006077Y006200D01*
X006077Y006317D02*
X008180Y006317D01*
X008181Y006314D02*
X008211Y006285D01*
X008247Y006264D01*
X008288Y006253D01*
X008620Y006253D01*
X008620Y006534D01*
X008150Y006534D01*
X008150Y006391D01*
X008160Y006351D01*
X008181Y006314D01*
X008033Y006200D02*
X007954Y006200D01*
X007954Y006083D02*
X008033Y006083D01*
X008033Y005967D02*
X007954Y005967D01*
X007954Y005850D02*
X006077Y005850D01*
X007514Y005492D02*
X007533Y005444D01*
X007533Y005267D01*
X007533Y005384D02*
X009409Y005384D01*
X009765Y005336D02*
X010198Y005336D01*
X010356Y005179D01*
X011263Y005384D02*
X011378Y005384D01*
X011072Y005474D02*
X011578Y004968D01*
X011898Y004647D01*
X012521Y004647D01*
X012098Y004451D02*
X013760Y004451D01*
X013761Y004452D02*
X013622Y004313D01*
X013622Y003907D01*
X013507Y004021D01*
X013391Y004137D01*
X012411Y004137D01*
X011901Y004648D01*
X011956Y004703D01*
X011977Y004739D01*
X011981Y004756D01*
X012081Y004856D01*
X012081Y004856D01*
X012220Y004995D01*
X012360Y005134D01*
X012499Y005273D01*
X012638Y005413D01*
X012777Y005552D01*
X012943Y005717D01*
X013056Y005830D01*
X013189Y005963D01*
X013189Y005903D01*
X013346Y005746D01*
X013346Y005116D01*
X013463Y005000D01*
X013659Y004803D01*
X014139Y004803D01*
X014256Y004919D01*
X014429Y005093D01*
X014458Y005064D01*
X014515Y005008D01*
X014551Y004987D01*
X014567Y004982D01*
X014694Y004856D01*
X014712Y004837D01*
X014704Y004837D01*
X014591Y004790D01*
X014528Y004728D01*
X014037Y004728D01*
X013761Y004452D01*
X013643Y004334D02*
X012214Y004334D01*
X012331Y004218D02*
X013622Y004218D01*
X013622Y004101D02*
X013427Y004101D01*
X013544Y003984D02*
X013622Y003984D01*
X013309Y003939D02*
X012329Y003939D01*
X011439Y004829D01*
X011439Y004824D01*
X011773Y004490D01*
X011598Y004384D02*
X011548Y004384D01*
X011048Y003884D01*
X011048Y003769D01*
X011214Y003603D01*
X011353Y003464D01*
X011436Y003381D01*
X011323Y003334D01*
X011263Y003273D01*
X010753Y003783D01*
X010241Y003783D01*
X009713Y004311D01*
X009726Y004311D01*
X009726Y004628D01*
X009805Y004628D01*
X009805Y004311D01*
X010003Y004311D01*
X010043Y004322D01*
X010080Y004343D01*
X010084Y004347D01*
X010141Y004291D01*
X010571Y004291D01*
X010653Y004373D01*
X010653Y004389D01*
X010793Y004389D01*
X010832Y004429D01*
X011162Y004429D01*
X011244Y004511D01*
X011244Y004586D01*
X011396Y004586D01*
X011598Y004384D01*
X011531Y004451D02*
X011184Y004451D01*
X011498Y004334D02*
X010614Y004334D01*
X010097Y004334D02*
X010065Y004334D01*
X009805Y004334D02*
X009726Y004334D01*
X009726Y004451D02*
X009805Y004451D01*
X009805Y004567D02*
X009726Y004567D01*
X009765Y004667D02*
X009470Y004785D01*
X009390Y004801D02*
X009224Y004801D01*
X009107Y004917D02*
X009398Y004917D01*
X009340Y004684D02*
X009726Y004684D01*
X010356Y004588D02*
X010710Y004588D01*
X010907Y004785D01*
X010828Y004864D01*
X010907Y004785D02*
X011395Y004785D01*
X011439Y004829D01*
X011937Y004684D02*
X013993Y004684D01*
X013876Y004567D02*
X011981Y004567D01*
X011414Y004567D02*
X011244Y004567D01*
X012026Y004801D02*
X014615Y004801D01*
X014694Y004856D02*
X014694Y004856D01*
X014632Y004917D02*
X014254Y004917D01*
X014450Y004883D02*
X014490Y004923D01*
X014490Y005096D01*
X014779Y005385D01*
X015340Y005946D01*
X015340Y006008D01*
X014861Y006008D01*
X014765Y006104D01*
X014663Y006104D01*
X014362Y005803D01*
X014223Y005942D02*
X014762Y006482D01*
X014867Y006482D01*
X015158Y006773D01*
X015435Y006773D01*
X015589Y006619D01*
X015668Y006540D01*
X016068Y006783D02*
X017167Y006783D01*
X017169Y006774D02*
X017190Y006738D01*
X017220Y006708D01*
X017256Y006687D01*
X017297Y006677D01*
X017439Y006677D01*
X017439Y007147D01*
X017446Y007147D01*
X017446Y006677D01*
X017588Y006677D01*
X017629Y006687D01*
X017665Y006708D01*
X017695Y006738D01*
X017716Y006774D01*
X017727Y006815D01*
X017727Y007147D01*
X017446Y007147D01*
X017446Y007154D01*
X017727Y007154D01*
X017727Y007430D01*
X020986Y007430D01*
X020986Y007147D01*
X020429Y007147D01*
X020429Y006864D01*
X020417Y006864D01*
X020417Y006852D01*
X019667Y006852D01*
X019667Y006707D01*
X019678Y006666D01*
X016185Y006666D01*
X016211Y006639D02*
X015768Y007083D01*
X015652Y007083D01*
X015529Y006960D01*
X015517Y006972D01*
X015076Y006972D01*
X014964Y006860D01*
X014911Y006914D01*
X014795Y006914D01*
X014719Y006838D01*
X014719Y006953D01*
X014672Y007066D01*
X014586Y007153D01*
X014472Y007200D01*
X014350Y007200D01*
X014236Y007153D01*
X014234Y007150D01*
X014153Y007231D01*
X014039Y007278D01*
X013917Y007278D01*
X013803Y007231D01*
X013717Y007145D01*
X013670Y007031D01*
X013670Y006969D01*
X013656Y006982D01*
X013656Y007071D01*
X013609Y007184D01*
X013523Y007271D01*
X013409Y007318D01*
X013287Y007318D01*
X013249Y007302D01*
X013249Y007302D01*
X013122Y007428D01*
X012885Y007191D01*
X012829Y007246D01*
X013013Y007430D01*
X017158Y007430D01*
X017158Y007154D01*
X017439Y007154D01*
X017439Y007147D01*
X017158Y007147D01*
X017158Y006815D01*
X017169Y006774D01*
X017439Y006783D02*
X017446Y006783D01*
X017718Y006783D02*
X019667Y006783D01*
X019667Y006864D02*
X020417Y006864D01*
X020417Y007147D01*
X019805Y007147D01*
X019765Y007136D01*
X019729Y007115D01*
X019699Y007086D01*
X019678Y007049D01*
X019667Y007009D01*
X019667Y006864D01*
X019667Y006900D02*
X017727Y006900D01*
X017727Y007016D02*
X019669Y007016D01*
X019759Y007133D02*
X017727Y007133D01*
X017727Y007249D02*
X020986Y007249D01*
X020429Y007133D02*
X020417Y007133D01*
X020417Y007016D02*
X020429Y007016D01*
X020417Y006900D02*
X020429Y006900D01*
X019729Y006601D02*
X019699Y006630D01*
X019678Y006666D01*
X019729Y006601D02*
X019737Y006596D01*
X019687Y006546D01*
X019687Y006170D01*
X019737Y006120D01*
X019729Y006115D01*
X019699Y006086D01*
X019678Y006049D01*
X019667Y006009D01*
X019667Y005864D01*
X020417Y005864D01*
X020417Y005852D01*
X019667Y005852D01*
X019667Y005727D01*
X019630Y005743D01*
X019507Y005743D01*
X019394Y005696D01*
X019307Y005609D01*
X019260Y005496D01*
X019260Y005425D01*
X019113Y005425D01*
X019113Y005103D01*
X019352Y005103D01*
X019307Y005058D01*
X019289Y005015D01*
X019113Y005015D01*
X019113Y005103D01*
X019024Y005103D01*
X019024Y005015D01*
X018917Y005015D01*
X018917Y005026D01*
X018589Y005026D01*
X018589Y005115D01*
X018501Y005115D01*
X018501Y005436D01*
X018311Y005436D01*
X018271Y005425D01*
X018235Y005404D01*
X018205Y005375D01*
X018184Y005339D01*
X018173Y005298D01*
X018173Y005115D01*
X018501Y005115D01*
X018501Y005026D01*
X018173Y005026D01*
X018173Y004843D01*
X018184Y004802D01*
X018196Y004782D01*
X017935Y005043D01*
X016753Y005043D01*
X016614Y004903D01*
X016576Y004866D01*
X016165Y004866D01*
X016165Y004902D01*
X016117Y004950D01*
X016123Y004953D01*
X016152Y004983D01*
X016173Y005019D01*
X016184Y005059D01*
X016184Y005257D01*
X015868Y005257D01*
X015868Y005336D01*
X016184Y005336D01*
X016184Y005420D01*
X016204Y005420D01*
X016244Y005431D01*
X016281Y005452D01*
X016477Y005648D01*
X016225Y005900D01*
X016308Y005983D01*
X016560Y005731D01*
X016756Y005927D01*
X016777Y005963D01*
X016788Y006004D01*
X016788Y006046D01*
X016777Y006086D01*
X016756Y006122D01*
X016602Y006276D01*
X016308Y005983D01*
X016225Y006067D01*
X016518Y006360D01*
X016364Y006514D01*
X016328Y006535D01*
X016288Y006546D01*
X016246Y006546D01*
X016211Y006537D01*
X016211Y006639D01*
X016211Y006550D02*
X019691Y006550D01*
X019687Y006433D02*
X016445Y006433D01*
X016475Y006317D02*
X019687Y006317D01*
X019687Y006200D02*
X016678Y006200D01*
X016525Y006200D02*
X016358Y006200D01*
X016409Y006083D02*
X016242Y006083D01*
X016225Y005983D02*
X015828Y005587D01*
X015828Y005297D01*
X015340Y005785D01*
X015340Y006008D01*
X015326Y005967D02*
X015243Y005967D01*
X015284Y006008D02*
X015340Y005953D01*
X015116Y005729D01*
X015256Y005589D01*
X015293Y005568D01*
X015333Y005557D01*
X015375Y005557D01*
X015415Y005568D01*
X015452Y005589D01*
X015578Y005715D01*
X015340Y005953D01*
X015396Y006008D01*
X015633Y005771D01*
X015700Y005837D01*
X015848Y005690D01*
X016141Y005983D01*
X016225Y005900D01*
X015998Y005672D01*
X015868Y005672D01*
X015868Y005336D01*
X015789Y005336D01*
X015789Y005257D01*
X015522Y005257D01*
X015448Y005332D01*
X015283Y005497D01*
X015283Y005497D01*
X015182Y005597D01*
X015178Y005614D01*
X015157Y005650D01*
X015101Y005707D01*
X015044Y005763D01*
X015008Y005784D01*
X014991Y005789D01*
X014891Y005889D01*
X014765Y006015D01*
X014761Y006031D01*
X014740Y006068D01*
X014684Y006123D01*
X014717Y006155D01*
X014823Y006050D01*
X014890Y006050D01*
X014889Y006043D01*
X014889Y006001D01*
X014899Y005961D01*
X014920Y005925D01*
X015061Y005785D01*
X015284Y006008D01*
X015354Y005967D02*
X015437Y005967D01*
X015443Y005850D02*
X015554Y005850D01*
X015559Y005733D02*
X015804Y005733D01*
X015789Y005672D02*
X015611Y005672D01*
X015570Y005662D01*
X015534Y005641D01*
X015504Y005611D01*
X015483Y005575D01*
X015472Y005534D01*
X015472Y005336D01*
X015789Y005336D01*
X015789Y005672D01*
X015789Y005617D02*
X015868Y005617D01*
X015868Y005500D02*
X015789Y005500D01*
X015510Y005617D02*
X015480Y005617D01*
X015472Y005500D02*
X015280Y005500D01*
X015228Y005617D02*
X015176Y005617D01*
X015101Y005707D02*
X015030Y005636D01*
X015030Y005637D01*
X015101Y005707D01*
X015121Y005733D02*
X015074Y005733D01*
X015030Y005636D02*
X015030Y005636D01*
X014995Y005850D02*
X014930Y005850D01*
X015126Y005850D02*
X015237Y005850D01*
X014898Y005967D02*
X014813Y005967D01*
X014789Y006083D02*
X014724Y006083D01*
X014411Y006409D02*
X014083Y006081D01*
X013944Y006221D02*
X014214Y006491D01*
X014214Y006616D01*
X013978Y006852D01*
X013978Y006970D01*
X013670Y007016D02*
X013656Y007016D01*
X013631Y007133D02*
X013712Y007133D01*
X013847Y007249D02*
X013544Y007249D01*
X013348Y007009D02*
X013805Y006552D01*
X013805Y006360D01*
X013387Y006419D02*
X013037Y006757D01*
X012384Y006757D01*
X012356Y006717D01*
X012144Y006537D01*
X011537Y006537D01*
X011537Y006852D01*
X011419Y006970D01*
X011727Y007016D02*
X012179Y007016D01*
X012295Y007133D02*
X011685Y007133D01*
X011550Y007249D02*
X012395Y007249D01*
X012715Y007249D02*
X012826Y007249D01*
X012832Y007249D02*
X012943Y007249D01*
X012949Y007366D02*
X013060Y007366D01*
X013185Y007366D02*
X017158Y007366D01*
X017439Y007366D02*
X017446Y007366D01*
X017446Y007430D02*
X017446Y007154D01*
X017439Y007154D01*
X017439Y007430D01*
X017446Y007430D01*
X017727Y007366D02*
X020986Y007366D01*
X024214Y007366D02*
X025315Y007366D01*
X025315Y007430D02*
X025315Y007289D01*
X025730Y007289D01*
X025730Y007171D01*
X025315Y007171D01*
X025315Y007147D01*
X024783Y007147D01*
X024783Y006864D01*
X025359Y006864D01*
X025371Y006852D01*
X024783Y006852D01*
X024783Y006864D01*
X024771Y006864D01*
X024771Y007147D01*
X024214Y007147D01*
X024214Y007430D01*
X025315Y007430D01*
X025730Y007249D02*
X024214Y007249D01*
X024771Y007133D02*
X024783Y007133D01*
X024771Y007016D02*
X024783Y007016D01*
X024771Y006900D02*
X024783Y006900D01*
X025730Y006900D02*
X025848Y006900D01*
X025848Y006838D02*
X025848Y007171D01*
X025848Y007289D01*
X026263Y007289D01*
X026439Y007289D01*
X026439Y007171D01*
X025848Y007171D01*
X025730Y007171D01*
X025730Y006838D01*
X025848Y006838D01*
X025848Y007016D02*
X025730Y007016D01*
X025730Y007133D02*
X025848Y007133D01*
X025848Y007249D02*
X026439Y007249D01*
X026557Y007249D02*
X028726Y007249D01*
X028718Y007261D02*
X028824Y007115D01*
X028880Y006942D01*
X028887Y006852D01*
X028887Y002206D01*
X028880Y002116D01*
X028824Y001944D01*
X028718Y001797D01*
X028571Y001691D01*
X028399Y001635D01*
X028309Y001628D01*
X026991Y001628D01*
X027019Y001656D01*
X027040Y001692D01*
X027050Y001733D01*
X027050Y001950D01*
X026635Y001950D01*
X026635Y002069D01*
X027050Y002069D01*
X027050Y002286D01*
X027040Y002327D01*
X027019Y002363D01*
X026989Y002393D01*
X026958Y002410D01*
X027031Y002483D01*
X027031Y002871D01*
X027180Y002723D01*
X027136Y002617D01*
X027136Y002442D01*
X027203Y002280D01*
X027326Y002156D01*
X027488Y002089D01*
X028263Y002089D01*
X028425Y002156D01*
X028548Y002280D01*
X028615Y002442D01*
X028615Y002617D01*
X028548Y002778D01*
X028425Y002902D01*
X028263Y002969D01*
X027607Y002969D01*
X027486Y003090D01*
X027488Y003089D01*
X028263Y003089D01*
X028425Y003156D01*
X028548Y003280D01*
X028615Y003442D01*
X028615Y003617D01*
X028548Y003778D01*
X028425Y003902D01*
X028263Y003969D01*
X027513Y003969D01*
X027356Y004126D01*
X027399Y004104D01*
X027468Y004081D01*
X027539Y004070D01*
X027835Y004070D01*
X027835Y004488D01*
X027917Y004488D01*
X027917Y004570D01*
X028634Y004570D01*
X028623Y004637D01*
X028601Y004705D01*
X028568Y004770D01*
X028526Y004828D01*
X028475Y004879D01*
X028416Y004922D01*
X028352Y004955D01*
X028283Y004977D01*
X028212Y004988D01*
X027917Y004988D01*
X027917Y004570D01*
X027835Y004570D01*
X027835Y004988D01*
X027539Y004988D01*
X027468Y004977D01*
X027399Y004955D01*
X027335Y004922D01*
X027277Y004879D01*
X027225Y004828D01*
X027183Y004770D01*
X027150Y004705D01*
X027128Y004637D01*
X027117Y004570D01*
X027835Y004570D01*
X027835Y004488D01*
X027117Y004488D01*
X027128Y004422D01*
X027150Y004353D01*
X027172Y004309D01*
X026736Y004746D01*
X027237Y005246D01*
X027326Y005156D01*
X027488Y005089D01*
X028263Y005089D01*
X028425Y005156D01*
X028548Y005280D01*
X028615Y005442D01*
X028615Y005617D01*
X028887Y005617D01*
X028887Y005733D02*
X028567Y005733D01*
X028548Y005778D02*
X028615Y005617D01*
X028615Y005500D02*
X028887Y005500D01*
X028887Y005384D02*
X028591Y005384D01*
X028535Y005267D02*
X028887Y005267D01*
X028887Y005150D02*
X028410Y005150D01*
X028887Y005034D02*
X027024Y005034D01*
X027141Y005150D02*
X027341Y005150D01*
X026811Y005494D02*
X026399Y005083D01*
X026025Y005457D01*
X025958Y005524D01*
X026018Y005584D01*
X026036Y005554D01*
X026065Y005524D01*
X026102Y005503D01*
X026142Y005492D01*
X026320Y005492D01*
X026320Y005828D01*
X026399Y005828D01*
X026399Y005492D01*
X026578Y005492D01*
X026618Y005503D01*
X026654Y005524D01*
X026684Y005554D01*
X026705Y005590D01*
X026716Y005630D01*
X026716Y005828D01*
X026399Y005828D01*
X026399Y005907D01*
X026716Y005907D01*
X026716Y006047D01*
X026870Y006047D01*
X026952Y006129D01*
X026952Y006756D01*
X026880Y006829D01*
X026910Y006847D01*
X026940Y006876D01*
X026961Y006913D01*
X026972Y006953D01*
X026972Y007171D01*
X026557Y007171D01*
X026557Y007289D01*
X026972Y007289D01*
X026972Y007430D01*
X028309Y007430D01*
X028399Y007423D01*
X028571Y007367D01*
X028718Y007261D01*
X028573Y007366D02*
X026972Y007366D01*
X026972Y007133D02*
X028811Y007133D01*
X028856Y007016D02*
X026972Y007016D01*
X026953Y006900D02*
X027324Y006900D01*
X027326Y006902D02*
X027203Y006778D01*
X027136Y006617D01*
X027136Y006442D01*
X027203Y006280D01*
X027326Y006156D01*
X027488Y006089D01*
X028263Y006089D01*
X028425Y006156D01*
X028548Y006280D01*
X028615Y006442D01*
X028615Y006617D01*
X028548Y006778D01*
X028425Y006902D01*
X028263Y006969D01*
X027488Y006969D01*
X027326Y006902D01*
X027208Y006783D02*
X026926Y006783D01*
X026952Y006666D02*
X027156Y006666D01*
X027136Y006550D02*
X026952Y006550D01*
X026952Y006433D02*
X027139Y006433D01*
X027188Y006317D02*
X026952Y006317D01*
X026952Y006200D02*
X027283Y006200D01*
X026907Y006083D02*
X028887Y006083D01*
X028887Y005967D02*
X028268Y005967D01*
X028263Y005969D02*
X027488Y005969D01*
X027326Y005902D01*
X027310Y005885D01*
X027223Y005972D01*
X027110Y006018D01*
X026988Y006018D01*
X026874Y005972D01*
X026788Y005885D01*
X026741Y005772D01*
X026741Y005649D01*
X026788Y005536D01*
X026811Y005513D01*
X026811Y005494D01*
X026811Y005500D02*
X026608Y005500D01*
X026712Y005617D02*
X026754Y005617D01*
X026741Y005733D02*
X026716Y005733D01*
X026773Y005850D02*
X026399Y005850D01*
X026399Y005733D02*
X026320Y005733D01*
X026320Y005617D02*
X026399Y005617D01*
X026399Y005500D02*
X026320Y005500D01*
X026112Y005500D02*
X025981Y005500D01*
X026098Y005384D02*
X026700Y005384D01*
X026584Y005267D02*
X026215Y005267D01*
X026331Y005150D02*
X026467Y005150D01*
X025774Y005034D02*
X025526Y005034D01*
X025522Y005049D02*
X025501Y005086D01*
X025471Y005115D01*
X025464Y005120D01*
X025688Y005120D01*
X026161Y004647D01*
X026212Y004596D01*
X026019Y004596D01*
X025464Y004596D01*
X025471Y004601D01*
X025501Y004630D01*
X025522Y004666D01*
X025533Y004707D01*
X025533Y004852D01*
X024783Y004852D01*
X024783Y004864D01*
X025533Y004864D01*
X025533Y005009D01*
X025522Y005049D01*
X025533Y004917D02*
X025891Y004917D01*
X026007Y004801D02*
X025533Y004801D01*
X025527Y004684D02*
X026124Y004684D01*
X026798Y004684D02*
X027143Y004684D01*
X027205Y004801D02*
X026791Y004801D01*
X026908Y004917D02*
X027329Y004917D01*
X027835Y004917D02*
X027917Y004917D01*
X027917Y004801D02*
X027835Y004801D01*
X027835Y004684D02*
X027917Y004684D01*
X027917Y004567D02*
X028887Y004567D01*
X028887Y004684D02*
X028608Y004684D01*
X028546Y004801D02*
X028887Y004801D01*
X028887Y004917D02*
X028422Y004917D01*
X027835Y004567D02*
X026914Y004567D01*
X027031Y004451D02*
X027123Y004451D01*
X027148Y004334D02*
X027160Y004334D01*
X027381Y004101D02*
X027408Y004101D01*
X027835Y004101D02*
X027917Y004101D01*
X027917Y004070D02*
X028212Y004070D01*
X028283Y004081D01*
X028352Y004104D01*
X028416Y004137D01*
X028475Y004179D01*
X028526Y004230D01*
X028568Y004289D01*
X028601Y004353D01*
X028623Y004422D01*
X028634Y004488D01*
X027917Y004488D01*
X027917Y004070D01*
X028343Y004101D02*
X028887Y004101D01*
X028887Y004218D02*
X028513Y004218D01*
X028591Y004334D02*
X028887Y004334D01*
X028887Y004451D02*
X028628Y004451D01*
X027917Y004451D02*
X027835Y004451D01*
X027835Y004334D02*
X027917Y004334D01*
X027917Y004218D02*
X027835Y004218D01*
X027497Y003984D02*
X028887Y003984D01*
X028887Y003868D02*
X028459Y003868D01*
X028560Y003751D02*
X028887Y003751D01*
X028887Y003634D02*
X028608Y003634D01*
X028615Y003518D02*
X028887Y003518D01*
X028887Y003401D02*
X028599Y003401D01*
X028550Y003285D02*
X028887Y003285D01*
X028887Y003168D02*
X028436Y003168D01*
X028887Y003051D02*
X027525Y003051D01*
X027084Y002818D02*
X027031Y002818D01*
X027031Y002702D02*
X027171Y002702D01*
X027136Y002585D02*
X027031Y002585D01*
X027016Y002468D02*
X027136Y002468D01*
X027173Y002352D02*
X027025Y002352D01*
X027050Y002235D02*
X027248Y002235D01*
X027418Y002119D02*
X027050Y002119D01*
X027050Y001885D02*
X028782Y001885D01*
X028843Y002002D02*
X026635Y002002D01*
X026517Y002002D02*
X025927Y002002D01*
X025927Y001950D02*
X025927Y002069D01*
X025809Y002069D01*
X025809Y002401D01*
X025927Y002401D01*
X025927Y002069D01*
X026517Y002069D01*
X026517Y001950D01*
X026342Y001950D01*
X025927Y001950D01*
X025809Y001950D02*
X025394Y001950D01*
X025394Y001733D01*
X025405Y001692D01*
X025425Y001656D01*
X025453Y001628D01*
X024214Y001628D01*
X024214Y002069D01*
X024771Y002069D01*
X024771Y002352D01*
X024783Y002352D01*
X024783Y002069D01*
X025394Y002069D01*
X025394Y002069D01*
X025809Y002069D01*
X025809Y001950D01*
X025809Y002002D02*
X024214Y002002D01*
X024214Y001885D02*
X025394Y001885D01*
X025394Y001769D02*
X024214Y001769D01*
X024214Y001652D02*
X025429Y001652D01*
X027015Y001652D02*
X028452Y001652D01*
X028678Y001769D02*
X027050Y001769D01*
X028334Y002119D02*
X028880Y002119D01*
X028887Y002235D02*
X028504Y002235D01*
X028578Y002352D02*
X028887Y002352D01*
X028887Y002468D02*
X028615Y002468D01*
X028615Y002585D02*
X028887Y002585D01*
X028887Y002702D02*
X028580Y002702D01*
X028508Y002818D02*
X028887Y002818D01*
X028887Y002935D02*
X028345Y002935D01*
X026710Y003193D02*
X026204Y003193D01*
X025529Y003193D01*
X025533Y003207D01*
X025533Y003352D01*
X024783Y003352D01*
X024783Y003364D01*
X025533Y003364D01*
X025533Y003509D01*
X025522Y003549D01*
X025501Y003586D01*
X025471Y003615D01*
X025463Y003620D01*
X025513Y003670D01*
X025513Y004046D01*
X025451Y004108D01*
X025463Y004120D01*
X026019Y004120D01*
X026200Y003938D01*
X026340Y003799D01*
X026535Y003604D01*
X026535Y003367D01*
X026710Y003193D01*
X026618Y003285D02*
X025533Y003285D01*
X025533Y003401D02*
X026535Y003401D01*
X026535Y003518D02*
X025530Y003518D01*
X025478Y003634D02*
X026504Y003634D01*
X026388Y003751D02*
X025513Y003751D01*
X025513Y003868D02*
X026271Y003868D01*
X026154Y003984D02*
X025513Y003984D01*
X025458Y004101D02*
X026038Y004101D01*
X020417Y003864D02*
X020417Y003852D01*
X019667Y003852D01*
X019667Y003707D01*
X019678Y003666D01*
X019690Y003645D01*
X019213Y003645D01*
X019193Y003665D01*
X018474Y003665D01*
X018507Y003699D01*
X018507Y003702D01*
X018531Y003725D01*
X018577Y003838D01*
X018577Y003961D01*
X018547Y004035D01*
X018786Y004035D01*
X018798Y004024D01*
X019339Y004024D01*
X019421Y004105D01*
X019421Y004120D01*
X019736Y004120D01*
X019729Y004115D01*
X019699Y004086D01*
X019678Y004049D01*
X019667Y004009D01*
X019667Y003864D01*
X020417Y003864D01*
X019714Y004101D02*
X019416Y004101D01*
X019667Y003984D02*
X018568Y003984D01*
X018577Y003868D02*
X019667Y003868D01*
X019667Y003751D02*
X018542Y003751D01*
X018309Y003781D02*
X018269Y003899D01*
X018289Y003919D01*
X018289Y004324D01*
X018289Y004325D02*
X018280Y004335D01*
X018274Y004346D01*
X018270Y004359D01*
X018269Y004372D01*
X017702Y003978D02*
X017443Y004237D01*
X017443Y004450D01*
X017364Y004529D01*
X016931Y004529D01*
X016773Y004372D01*
X016576Y004372D01*
X016458Y004254D01*
X016458Y003269D01*
X016104Y002915D01*
X015946Y002915D01*
X015828Y002797D01*
X015828Y002718D01*
X015592Y002482D01*
X014899Y002482D01*
X014362Y003019D01*
X014501Y003158D02*
X014823Y002836D01*
X014954Y002844D01*
X015356Y002797D02*
X015419Y002797D01*
X014779Y003437D01*
X014779Y003436D01*
X014919Y003576D02*
X014919Y003576D01*
X015360Y003135D01*
X015970Y003135D01*
X016222Y003387D01*
X016222Y003978D01*
X016065Y004135D01*
X015336Y003998D02*
X014805Y004529D01*
X014765Y004529D01*
X014726Y004490D01*
X014805Y004529D02*
X015041Y004529D01*
X015336Y004824D01*
X015336Y004829D01*
X016150Y004917D02*
X016628Y004917D01*
X016744Y005034D02*
X016177Y005034D01*
X016184Y005150D02*
X018173Y005150D01*
X018173Y005267D02*
X015868Y005267D01*
X015789Y005267D02*
X015513Y005267D01*
X015472Y005384D02*
X015396Y005384D01*
X015789Y005384D02*
X015868Y005384D01*
X016184Y005384D02*
X018214Y005384D01*
X018501Y005384D02*
X018589Y005384D01*
X018589Y005436D02*
X018589Y005115D01*
X018697Y005115D01*
X018697Y005103D01*
X019024Y005103D01*
X019024Y005425D01*
X018835Y005425D01*
X018825Y005422D01*
X018819Y005425D01*
X018778Y005436D01*
X018589Y005436D01*
X019024Y005384D02*
X019113Y005384D01*
X019113Y005267D02*
X019024Y005267D01*
X019024Y005150D02*
X019113Y005150D01*
X019113Y005034D02*
X019297Y005034D01*
X019024Y005034D02*
X018589Y005034D01*
X018501Y005034D02*
X017944Y005034D01*
X018061Y004917D02*
X018173Y004917D01*
X018177Y004801D02*
X018185Y004801D01*
X018501Y005150D02*
X018589Y005150D01*
X018589Y005267D02*
X018501Y005267D01*
X019262Y005500D02*
X016329Y005500D01*
X016446Y005617D02*
X019315Y005617D01*
X019485Y005733D02*
X016562Y005733D01*
X016558Y005733D02*
X016391Y005733D01*
X016441Y005850D02*
X016274Y005850D01*
X016175Y005850D02*
X016008Y005850D01*
X016059Y005733D02*
X015892Y005733D01*
X016679Y005850D02*
X019667Y005850D01*
X019652Y005733D02*
X019667Y005733D01*
X019667Y005967D02*
X016778Y005967D01*
X016777Y006083D02*
X019698Y006083D01*
X017446Y006900D02*
X017439Y006900D01*
X017439Y007016D02*
X017446Y007016D01*
X017439Y007133D02*
X017446Y007133D01*
X017439Y007249D02*
X017446Y007249D01*
X017158Y007249D02*
X014109Y007249D01*
X014605Y007133D02*
X017158Y007133D01*
X017158Y007016D02*
X015835Y007016D01*
X015951Y006900D02*
X017158Y006900D01*
X016322Y007342D02*
X016301Y007364D01*
X015585Y007016D02*
X014693Y007016D01*
X014719Y006900D02*
X014781Y006900D01*
X014925Y006900D02*
X015003Y006900D01*
X014411Y006891D02*
X014411Y006409D01*
X013944Y006228D02*
X013944Y006221D01*
X013545Y005828D02*
X013387Y005986D01*
X013387Y006419D01*
X012253Y006317D02*
X011954Y006317D01*
X012195Y006200D02*
X008660Y006200D01*
X008627Y006253D02*
X008960Y006253D01*
X009000Y006264D01*
X009036Y006285D01*
X009066Y006314D01*
X009087Y006351D01*
X009098Y006391D01*
X009098Y006534D01*
X008627Y006534D01*
X008627Y006540D01*
X009098Y006540D01*
X009098Y006683D01*
X009087Y006723D01*
X009066Y006760D01*
X009036Y006789D01*
X009000Y006810D01*
X008960Y006821D01*
X008627Y006821D01*
X008627Y006540D01*
X008620Y006540D01*
X008620Y006534D01*
X008627Y006534D01*
X008627Y006253D01*
X008620Y006317D02*
X008627Y006317D01*
X008620Y006433D02*
X008627Y006433D01*
X008620Y006540D02*
X008150Y006540D01*
X008150Y006683D01*
X008160Y006723D01*
X008181Y006760D01*
X008211Y006789D01*
X008247Y006810D01*
X008288Y006821D01*
X008620Y006821D01*
X008620Y006540D01*
X008620Y006550D02*
X008627Y006550D01*
X008620Y006666D02*
X008627Y006666D01*
X008620Y006783D02*
X008627Y006783D01*
X008205Y006783D02*
X007802Y006783D01*
X007801Y006773D02*
X007806Y006815D01*
X007806Y006816D01*
X007806Y006817D01*
X007806Y006818D01*
X007805Y006819D01*
X007793Y006859D01*
X007789Y006900D01*
X007789Y006901D01*
X007789Y006902D01*
X007789Y006903D01*
X007788Y006904D01*
X007768Y006941D01*
X007756Y006981D01*
X007756Y006982D01*
X007755Y006983D01*
X007755Y006984D02*
X007754Y006984D01*
X007728Y007016D01*
X011111Y007016D01*
X011115Y006900D02*
X007789Y006900D01*
X007755Y006983D02*
X007755Y006984D01*
X007728Y007016D02*
X007708Y007053D01*
X007708Y007054D01*
X007707Y007055D01*
X007707Y007056D01*
X007706Y007056D01*
X007673Y007083D01*
X007647Y007115D01*
X007646Y007116D01*
X007646Y007117D01*
X007645Y007117D01*
X007644Y007117D01*
X007607Y007137D01*
X007575Y007164D01*
X007574Y007165D01*
X007573Y007165D01*
X007572Y007166D01*
X007571Y007165D01*
X007531Y007178D01*
X007494Y007197D01*
X007494Y007198D01*
X007493Y007198D01*
X007492Y007199D01*
X007491Y007198D01*
X007449Y007203D01*
X007406Y007215D01*
X007396Y007210D01*
X007371Y007210D01*
X007319Y007215D01*
X007313Y007210D01*
X006785Y007210D01*
X006778Y007215D01*
X006727Y007210D01*
X006701Y007210D01*
X006691Y007215D01*
X006648Y007203D01*
X006607Y007198D01*
X006606Y007199D01*
X006605Y007198D01*
X006604Y007198D01*
X006603Y007197D01*
X006566Y007178D01*
X006526Y007165D01*
X006525Y007166D01*
X006525Y007165D01*
X006524Y007165D01*
X006523Y007164D01*
X006491Y007137D01*
X006454Y007117D01*
X006453Y007117D01*
X006452Y007117D01*
X006451Y007116D01*
X006451Y007115D01*
X006424Y007083D01*
X006392Y007056D01*
X006391Y007056D01*
X006391Y007055D01*
X006390Y007054D01*
X006390Y007053D01*
X006370Y007016D01*
X006108Y007016D01*
X006081Y006900D02*
X006309Y006900D01*
X006305Y006859D01*
X006292Y006819D01*
X006292Y006818D01*
X006292Y006817D01*
X006292Y006816D01*
X006292Y006815D01*
X006296Y006773D01*
X006292Y006732D01*
X006292Y006731D01*
X006292Y006730D01*
X006292Y006729D01*
X006292Y006728D01*
X006305Y006688D01*
X006309Y006646D01*
X006308Y006645D01*
X006309Y006644D01*
X006309Y006643D01*
X006310Y006643D01*
X006329Y006606D01*
X006342Y006566D01*
X006342Y006565D01*
X006342Y006564D01*
X006342Y006563D01*
X006343Y006562D01*
X006370Y006530D01*
X006390Y006493D01*
X006390Y006492D01*
X006391Y006491D01*
X006392Y006490D01*
X006424Y006464D01*
X006451Y006431D01*
X006451Y006430D01*
X006452Y006430D01*
X006453Y006429D01*
X006454Y006429D01*
X006491Y006409D01*
X006523Y006383D01*
X006524Y006382D01*
X006525Y006382D01*
X006525Y006381D01*
X006526Y006381D01*
X006566Y006369D01*
X006603Y006349D01*
X006604Y006348D01*
X006605Y006348D01*
X006606Y006348D01*
X006607Y006348D01*
X006648Y006344D01*
X006691Y006331D01*
X006701Y006336D01*
X006727Y006336D01*
X006778Y006331D01*
X006785Y006336D01*
X007313Y006336D01*
X007319Y006331D01*
X007371Y006336D01*
X007396Y006336D01*
X007406Y006331D01*
X007449Y006344D01*
X007491Y006348D01*
X007492Y006348D01*
X007493Y006348D01*
X007494Y006348D01*
X007494Y006349D01*
X007531Y006369D01*
X007571Y006381D01*
X007572Y006381D01*
X007573Y006382D01*
X007574Y006382D01*
X007575Y006383D01*
X007607Y006409D01*
X007644Y006429D01*
X007645Y006429D01*
X007646Y006430D01*
X007646Y006430D01*
X007647Y006431D01*
X007673Y006464D01*
X007706Y006490D01*
X007707Y006491D01*
X007708Y006492D01*
X007708Y006493D01*
X007728Y006530D01*
X007754Y006562D01*
X007755Y006563D01*
X007755Y006564D01*
X007756Y006565D01*
X007756Y006566D01*
X007768Y006606D01*
X007788Y006643D01*
X007789Y006643D01*
X007789Y006644D01*
X007789Y006645D01*
X007789Y006646D01*
X007793Y006688D01*
X007805Y006728D01*
X007806Y006729D01*
X007806Y006730D01*
X007806Y006731D01*
X007806Y006732D01*
X007801Y006773D01*
X007791Y006666D02*
X008150Y006666D01*
X008150Y006550D02*
X007744Y006550D01*
X007707Y006491D02*
X007707Y006491D01*
X007648Y006433D02*
X008150Y006433D01*
X009067Y006317D02*
X011120Y006317D01*
X011082Y006433D02*
X009098Y006433D01*
X009098Y006550D02*
X011082Y006550D01*
X011082Y006666D02*
X009098Y006666D01*
X009043Y006783D02*
X011145Y006783D01*
X011736Y006900D02*
X012062Y006900D01*
X011945Y006783D02*
X011929Y006783D01*
X011153Y007133D02*
X007615Y007133D01*
X006483Y007133D02*
X006153Y007133D01*
X006238Y007249D02*
X011288Y007249D01*
X012501Y007366D02*
X006391Y007366D01*
X006370Y007016D02*
X006343Y006984D01*
X006342Y006984D01*
X006342Y006983D01*
X006342Y006982D01*
X006342Y006981D01*
X006329Y006941D01*
X006310Y006904D01*
X006309Y006903D01*
X006309Y006902D01*
X006308Y006901D01*
X006309Y006900D01*
X006295Y006783D02*
X006077Y006783D01*
X006077Y006666D02*
X006307Y006666D01*
X006354Y006550D02*
X006077Y006550D01*
X006077Y006433D02*
X006449Y006433D01*
X006391Y006491D02*
X006391Y006491D01*
X007954Y005809D02*
X008033Y005809D01*
X008783Y005809D01*
X008783Y005630D01*
X008772Y005590D01*
X008751Y005554D01*
X008721Y005524D01*
X008685Y005503D01*
X008779Y005617D02*
X009435Y005617D01*
X010096Y005617D02*
X010551Y005617D01*
X010551Y005500D02*
X010316Y005500D01*
X010563Y005733D02*
X008783Y005733D01*
X008033Y005733D02*
X007954Y005733D01*
X007954Y005809D02*
X007954Y005492D01*
X007514Y005492D01*
X007954Y005500D02*
X008033Y005500D01*
X008033Y005617D02*
X007954Y005617D01*
X008033Y005850D02*
X011845Y005850D01*
X011728Y005733D02*
X011251Y005733D01*
X011252Y005732D02*
X011231Y005769D01*
X011202Y005798D01*
X011165Y005819D01*
X011125Y005830D01*
X010946Y005830D01*
X010946Y005494D01*
X011263Y005494D01*
X011263Y005692D01*
X011252Y005732D01*
X011263Y005617D02*
X011612Y005617D01*
X011495Y005500D02*
X011263Y005500D01*
X011492Y005497D02*
X011492Y005497D01*
X010946Y005500D02*
X010868Y005500D01*
X010868Y005617D02*
X010946Y005617D01*
X010946Y005733D02*
X010868Y005733D01*
X011962Y005967D02*
X008783Y005967D01*
X008778Y006083D02*
X012078Y006083D01*
X013075Y005850D02*
X013242Y005850D01*
X013346Y005733D02*
X012959Y005733D01*
X012943Y005717D02*
X012943Y005717D01*
X012842Y005617D02*
X013346Y005617D01*
X013346Y005500D02*
X012726Y005500D01*
X012609Y005384D02*
X013346Y005384D01*
X013346Y005267D02*
X012492Y005267D01*
X012376Y005150D02*
X013346Y005150D01*
X013428Y005034D02*
X012259Y005034D01*
X012143Y004917D02*
X013545Y004917D01*
X013742Y005002D02*
X013545Y005198D01*
X013545Y005828D01*
X013923Y005643D02*
X013923Y005340D01*
X013899Y005317D01*
X014232Y005395D02*
X014232Y005177D01*
X014057Y005002D01*
X013742Y005002D01*
X014370Y005034D02*
X014488Y005034D01*
X014458Y005064D02*
X014528Y005134D01*
X014528Y005134D01*
X014528Y005134D01*
X014458Y005064D01*
X014232Y005395D02*
X014501Y005664D01*
X014222Y005942D02*
X013923Y005643D01*
X014222Y005942D02*
X014223Y005942D01*
X016125Y005967D02*
X016158Y005967D01*
X016292Y005967D02*
X016325Y005967D01*
X012709Y007366D02*
X012598Y007366D01*
X006836Y004978D02*
X006711Y005104D01*
X006781Y005034D02*
X006077Y005034D01*
X006077Y004917D02*
X006984Y004917D01*
X007000Y004911D02*
X007177Y004911D01*
X007224Y004930D01*
X007224Y004609D01*
X007306Y004527D01*
X008682Y004527D01*
X008763Y004609D01*
X008763Y004665D01*
X008797Y004665D01*
X009187Y004275D01*
X008763Y004275D01*
X008763Y004331D01*
X008682Y004413D01*
X007306Y004413D01*
X007224Y004331D01*
X007224Y004010D01*
X007177Y004030D01*
X007000Y004030D01*
X006836Y003962D01*
X006711Y003836D01*
X006643Y003673D01*
X006643Y003496D01*
X006711Y003332D01*
X006836Y003207D01*
X007000Y003139D01*
X007177Y003139D01*
X007224Y003159D01*
X007224Y002837D01*
X007306Y002756D01*
X007753Y002756D01*
X007693Y002696D01*
X007646Y002583D01*
X007646Y002510D01*
X007646Y002510D01*
X007645Y002511D01*
X007644Y002511D01*
X007607Y002531D01*
X007575Y002557D01*
X007574Y002558D01*
X007573Y002559D01*
X007572Y002559D01*
X007571Y002559D01*
X007531Y002571D01*
X007494Y002591D01*
X007494Y002592D01*
X007493Y002592D01*
X007492Y002592D01*
X007491Y002592D01*
X007449Y002596D01*
X007406Y002609D01*
X007396Y002604D01*
X007371Y002604D01*
X007319Y002609D01*
X007313Y002604D01*
X006785Y002604D01*
X006778Y002609D01*
X006727Y002604D01*
X006701Y002604D01*
X006691Y002609D01*
X006648Y002596D01*
X006607Y002592D01*
X006606Y002592D01*
X006605Y002592D01*
X006604Y002592D01*
X006603Y002591D01*
X006566Y002571D01*
X006526Y002559D01*
X006525Y002559D01*
X006525Y002559D01*
X006524Y002558D01*
X006523Y002557D01*
X006491Y002531D01*
X006454Y002511D01*
X006453Y002511D01*
X006452Y002510D01*
X006451Y002510D01*
X006451Y002509D01*
X006424Y002476D01*
X006392Y002450D01*
X006391Y002450D01*
X006391Y002449D01*
X006390Y002448D01*
X006390Y002447D01*
X006370Y002410D01*
X006343Y002378D01*
X006342Y002377D01*
X006342Y002376D01*
X006342Y002376D01*
X006342Y002375D01*
X006329Y002334D01*
X006310Y002297D01*
X006309Y002297D01*
X006309Y002296D01*
X006308Y002295D01*
X006309Y002294D01*
X006305Y002252D01*
X006292Y002212D01*
X006292Y002211D01*
X006292Y002210D01*
X006292Y002209D01*
X006296Y002167D01*
X006292Y002125D01*
X006292Y002124D01*
X006292Y002123D01*
X006292Y002122D01*
X006292Y002122D01*
X006305Y002082D01*
X006309Y002040D01*
X006308Y002039D01*
X006309Y002038D01*
X006309Y002037D01*
X006310Y002036D01*
X006329Y001999D01*
X006342Y001959D01*
X006342Y001958D01*
X006342Y001957D01*
X006342Y001958D02*
X006342Y001958D01*
X006342Y001957D02*
X006343Y001956D01*
X006370Y001924D01*
X006390Y001887D01*
X006390Y001886D01*
X006391Y001885D01*
X006391Y001884D01*
X006392Y001884D01*
X006424Y001857D01*
X006451Y001825D01*
X006451Y001824D01*
X006452Y001824D01*
X006453Y001823D01*
X006454Y001823D01*
X006491Y001803D01*
X006523Y001776D01*
X006524Y001776D01*
X006525Y001775D01*
X006526Y001775D01*
X006566Y001763D01*
X006603Y001743D01*
X006604Y001742D01*
X006605Y001742D01*
X006606Y001741D01*
X006607Y001742D01*
X006648Y001738D01*
X006691Y001725D01*
X006701Y001730D01*
X006727Y001730D01*
X006778Y001725D01*
X006785Y001730D01*
X007313Y001730D01*
X007319Y001725D01*
X007371Y001730D01*
X007396Y001730D01*
X007406Y001725D01*
X007449Y001738D01*
X007491Y001742D01*
X007492Y001741D01*
X007493Y001742D01*
X007494Y001742D01*
X007494Y001743D01*
X007531Y001763D01*
X007571Y001775D01*
X007572Y001775D01*
X007573Y001775D01*
X007574Y001776D01*
X007575Y001776D01*
X007607Y001803D01*
X007644Y001823D01*
X007645Y001823D01*
X007646Y001824D01*
X007647Y001825D01*
X007673Y001857D01*
X007706Y001884D01*
X007707Y001884D01*
X007707Y001885D01*
X007708Y001886D01*
X007708Y001887D01*
X007728Y001924D01*
X007754Y001956D01*
X007755Y001957D01*
X007755Y001958D01*
X007756Y001958D01*
X007756Y001959D01*
X007768Y001999D01*
X007788Y002036D01*
X007789Y002037D01*
X007789Y002038D01*
X007789Y002039D01*
X007789Y002040D01*
X007793Y002082D01*
X007805Y002122D01*
X007806Y002122D01*
X007806Y002123D01*
X007806Y002124D01*
X007806Y002125D01*
X007801Y002167D01*
X007806Y002209D01*
X007806Y002210D01*
X007806Y002209D02*
X007806Y002209D01*
X007806Y002210D02*
X007806Y002211D01*
X007805Y002212D01*
X007793Y002252D01*
X007793Y002255D01*
X007893Y002213D01*
X008016Y002213D01*
X008129Y002260D01*
X008169Y002300D01*
X008169Y002260D01*
X008251Y002178D01*
X008996Y002178D01*
X009078Y002260D01*
X009078Y002625D01*
X008996Y002707D01*
X008640Y002707D01*
X008627Y002720D01*
X008191Y002720D01*
X008156Y002756D01*
X008682Y002756D01*
X008763Y002837D01*
X008763Y002854D01*
X010356Y002854D01*
X010708Y002501D01*
X010708Y002131D01*
X010706Y002035D01*
X010708Y002033D01*
X010708Y002029D01*
X010776Y001961D01*
X011092Y001628D01*
X006655Y001628D01*
X006565Y001635D01*
X006393Y001691D01*
X006246Y001797D01*
X006286Y001769D02*
X006546Y001769D01*
X006525Y001775D02*
X006525Y001775D01*
X006390Y001885D02*
X006182Y001885D01*
X006121Y002002D02*
X006328Y002002D01*
X006293Y002119D02*
X006084Y002119D01*
X006292Y002209D02*
X006292Y002209D01*
X006299Y002235D02*
X006077Y002235D01*
X006077Y002352D02*
X006335Y002352D01*
X006415Y002468D02*
X006077Y002468D01*
X006077Y002585D02*
X006592Y002585D01*
X006077Y002702D02*
X007699Y002702D01*
X007647Y002585D02*
X007506Y002585D01*
X007954Y002521D02*
X008545Y002521D01*
X008624Y002443D01*
X009078Y002468D02*
X010708Y002468D01*
X010708Y002352D02*
X009078Y002352D01*
X009054Y002235D02*
X010708Y002235D01*
X010708Y002119D02*
X007804Y002119D01*
X007770Y002002D02*
X010735Y002002D01*
X010848Y001885D02*
X007707Y001885D01*
X007646Y001824D02*
X007646Y001824D01*
X007552Y001769D02*
X010958Y001769D01*
X011069Y001652D02*
X006512Y001652D01*
X007798Y002235D02*
X007840Y002235D01*
X008069Y002235D02*
X008193Y002235D01*
X009078Y002585D02*
X010625Y002585D01*
X010508Y002702D02*
X009002Y002702D01*
X008744Y002818D02*
X010391Y002818D01*
X010553Y003348D02*
X011143Y002757D01*
X012151Y002757D01*
X012413Y003019D01*
X013000Y003047D02*
X013074Y003121D01*
X013074Y003467D01*
X013091Y003508D01*
X013074Y003546D01*
X013074Y003588D01*
X013043Y003619D01*
X013026Y003660D01*
X012987Y003675D01*
X012966Y003696D01*
X012948Y003740D01*
X013226Y003740D01*
X013552Y003414D01*
X013552Y003326D01*
X013552Y003326D01*
X013150Y002924D01*
X013095Y002979D01*
X013059Y003000D01*
X013043Y003005D01*
X013000Y003047D01*
X013005Y003051D02*
X013278Y003051D01*
X013161Y002935D02*
X013140Y002935D01*
X013112Y002883D02*
X013112Y003230D01*
X013230Y003348D01*
X013074Y003401D02*
X013552Y003401D01*
X013511Y003285D02*
X013074Y003285D01*
X013074Y003168D02*
X013394Y003168D01*
X013860Y003352D02*
X013860Y003387D01*
X013309Y003939D01*
X013332Y003634D02*
X013037Y003634D01*
X013087Y003518D02*
X013448Y003518D01*
X013860Y003352D02*
X012970Y002462D01*
X012831Y002601D02*
X013112Y002883D01*
X012701Y002741D02*
X012691Y002741D01*
X012443Y002492D01*
X012443Y002246D01*
X012403Y002088D01*
X011734Y002061D02*
X011537Y002246D01*
X011537Y002443D01*
X012552Y002880D02*
X012876Y003203D01*
X012876Y003506D01*
X012679Y003584D01*
X011416Y003401D02*
X011135Y003401D01*
X011252Y003285D02*
X011274Y003285D01*
X011183Y003072D02*
X011498Y003072D01*
X011183Y003072D02*
X010671Y003584D01*
X010159Y003584D01*
X008880Y004864D01*
X007994Y004864D01*
X007224Y004917D02*
X007193Y004917D01*
X007224Y004801D02*
X006077Y004801D01*
X006077Y004684D02*
X007224Y004684D01*
X007266Y004567D02*
X006077Y004567D01*
X006077Y004451D02*
X009011Y004451D01*
X009128Y004334D02*
X008760Y004334D01*
X008722Y004567D02*
X008895Y004567D01*
X009807Y004218D02*
X011382Y004218D01*
X011265Y004101D02*
X009924Y004101D01*
X010040Y003984D02*
X011148Y003984D01*
X011048Y003868D02*
X010157Y003868D01*
X010785Y003751D02*
X011066Y003751D01*
X011182Y003634D02*
X010902Y003634D01*
X011018Y003518D02*
X011299Y003518D01*
X010553Y003348D02*
X010041Y003348D01*
X009313Y004076D01*
X007994Y004076D01*
X007224Y004101D02*
X006077Y004101D01*
X006077Y004218D02*
X007224Y004218D01*
X007227Y004334D02*
X006077Y004334D01*
X006077Y003984D02*
X006890Y003984D01*
X006742Y003868D02*
X006077Y003868D01*
X006077Y003751D02*
X006675Y003751D01*
X006643Y003634D02*
X006077Y003634D01*
X006077Y003518D02*
X006643Y003518D01*
X006682Y003401D02*
X006077Y003401D01*
X006077Y003285D02*
X006758Y003285D01*
X006929Y003168D02*
X006077Y003168D01*
X006077Y003051D02*
X007224Y003051D01*
X007224Y002935D02*
X006077Y002935D01*
X006077Y002818D02*
X007243Y002818D01*
X007506Y003429D02*
X007533Y003496D01*
X007533Y003673D01*
X007506Y003740D01*
X008682Y003740D01*
X008763Y003822D01*
X008763Y003878D01*
X009032Y003878D01*
X008992Y003838D01*
X008945Y003724D01*
X008945Y003692D01*
X008682Y003428D01*
X008682Y003429D01*
X007506Y003429D01*
X007533Y003518D02*
X008772Y003518D01*
X008888Y003634D02*
X007533Y003634D01*
X008693Y003751D02*
X008956Y003751D01*
X009022Y003868D02*
X008763Y003868D01*
X007000Y004911D02*
X006836Y004978D01*
X014098Y004116D02*
X014098Y003585D01*
X014121Y003562D01*
X014168Y003449D01*
X014168Y003441D01*
X014276Y003549D01*
X014276Y003549D01*
X014389Y003662D01*
X014389Y003662D01*
X014554Y003827D01*
X014694Y003966D01*
X014694Y003966D01*
X014794Y004066D01*
X014798Y004083D01*
X014819Y004119D01*
X014876Y004175D01*
X014946Y004105D01*
X014946Y004105D01*
X014946Y004105D01*
X014876Y004176D01*
X014876Y004176D01*
X014840Y004212D01*
X014745Y004212D01*
X014737Y004221D01*
X014704Y004221D01*
X014630Y004252D01*
X014234Y004252D01*
X014098Y004116D01*
X014098Y004101D02*
X014809Y004101D01*
X014837Y004175D02*
X014569Y004175D01*
X014450Y004057D01*
X014712Y003984D02*
X014098Y003984D01*
X014098Y003868D02*
X014595Y003868D01*
X014479Y003751D02*
X014098Y003751D01*
X014098Y003634D02*
X014362Y003634D01*
X014245Y003518D02*
X014139Y003518D01*
X015058Y003713D02*
X015419Y003356D01*
X015679Y003356D01*
X015907Y003584D01*
X015907Y003702D01*
X015868Y003742D01*
X015336Y003993D02*
X015336Y003998D01*
X015197Y003854D02*
X014837Y004175D01*
X014740Y004218D02*
X014200Y004218D01*
X015058Y003715D02*
X015058Y003713D01*
X016773Y003781D02*
X016773Y003506D01*
X017167Y003112D01*
X017344Y003112D01*
X017935Y003112D02*
X017935Y003545D01*
X018072Y003545D01*
X018309Y003781D01*
X017817Y003978D02*
X017702Y003978D01*
X017246Y003742D02*
X017128Y003860D01*
X017128Y004175D01*
X017049Y004175D01*
X016813Y003820D02*
X016773Y003781D01*
X017246Y003742D02*
X017246Y003663D01*
X017344Y003545D01*
X017364Y003663D01*
X017994Y003210D02*
X017935Y003112D01*
X017994Y003210D02*
X017994Y002994D01*
X017521Y002521D01*
X016911Y002521D01*
X016911Y002088D01*
X016320Y002088D02*
X016301Y002108D01*
X015887Y002108D01*
X015218Y002108D02*
X014923Y002128D01*
X014608Y002443D01*
X014382Y002443D01*
X014083Y002741D01*
X013805Y002462D02*
X013648Y002309D01*
X013584Y002128D01*
X013866Y002002D02*
X014767Y002002D01*
X014778Y001992D02*
X014827Y001935D01*
X014835Y001934D01*
X014840Y001929D01*
X014881Y001929D01*
X014881Y001913D01*
X013806Y001913D01*
X013846Y001953D01*
X013892Y002066D01*
X013892Y002094D01*
X013914Y002072D01*
X014030Y002072D01*
X014195Y002237D01*
X014250Y002292D01*
X014299Y002244D01*
X014526Y002244D01*
X014778Y001992D01*
X014651Y002119D02*
X014076Y002119D01*
X014193Y002235D02*
X014534Y002235D01*
X016320Y002521D02*
X016320Y002738D01*
X016458Y002876D01*
X016584Y002876D01*
X016588Y002880D01*
X018761Y002423D02*
X018880Y002423D01*
X018880Y002067D01*
X019156Y002067D01*
X019197Y002078D01*
X019233Y002099D01*
X019263Y002128D01*
X019284Y002165D01*
X019294Y002205D01*
X019294Y002244D01*
X019406Y002244D01*
X019406Y002566D01*
X019495Y002566D01*
X019495Y002654D01*
X019685Y002654D01*
X019699Y002630D01*
X019721Y002608D01*
X019699Y002586D01*
X019687Y002566D01*
X019495Y002566D01*
X019495Y002244D01*
X019667Y002244D01*
X019667Y002207D01*
X019678Y002166D01*
X019699Y002130D01*
X019729Y002101D01*
X019765Y002080D01*
X019805Y002069D01*
X020417Y002069D01*
X020417Y002352D01*
X020429Y002352D01*
X020429Y002069D01*
X020986Y002069D01*
X020986Y001628D01*
X018001Y001628D01*
X018441Y002080D01*
X018444Y002078D01*
X018485Y002067D01*
X018761Y002067D01*
X018761Y002423D01*
X018761Y002352D02*
X018880Y002352D01*
X018880Y002235D02*
X018761Y002235D01*
X019294Y002235D02*
X019667Y002235D01*
X019495Y002352D02*
X019406Y002352D01*
X019406Y002468D02*
X019495Y002468D01*
X019495Y002585D02*
X019699Y002585D01*
X020417Y002585D02*
X020429Y002585D01*
X020417Y002647D02*
X020417Y002364D01*
X020429Y002364D01*
X020429Y002852D01*
X020417Y002852D01*
X020417Y002647D01*
X020417Y002702D02*
X020429Y002702D01*
X020417Y002818D02*
X020429Y002818D01*
X020417Y002468D02*
X020429Y002468D01*
X020417Y002352D02*
X020429Y002352D01*
X020417Y002235D02*
X020429Y002235D01*
X020417Y002119D02*
X020429Y002119D01*
X020986Y002002D02*
X018365Y002002D01*
X018252Y001885D02*
X020986Y001885D01*
X020986Y001769D02*
X018138Y001769D01*
X018025Y001652D02*
X020986Y001652D01*
X019711Y002119D02*
X019253Y002119D01*
X018880Y002119D02*
X018761Y002119D01*
X024771Y002119D02*
X024783Y002119D01*
X024771Y002235D02*
X024783Y002235D01*
X024771Y002352D02*
X024783Y002352D01*
X025809Y002352D02*
X025927Y002352D01*
X025927Y002235D02*
X025809Y002235D01*
X025809Y002119D02*
X025927Y002119D01*
X024777Y005858D02*
X024787Y005868D01*
X026716Y005967D02*
X026869Y005967D01*
X027228Y005967D02*
X027483Y005967D01*
X028263Y005969D02*
X028425Y005902D01*
X028548Y005778D01*
X028477Y005850D02*
X028887Y005850D01*
X028887Y006200D02*
X028468Y006200D01*
X028564Y006317D02*
X028887Y006317D01*
X028887Y006433D02*
X028612Y006433D01*
X028615Y006550D02*
X028887Y006550D01*
X028887Y006666D02*
X028595Y006666D01*
X028544Y006783D02*
X028887Y006783D01*
X028883Y006900D02*
X028427Y006900D01*
D29*
X012836Y007364D02*
X012829Y007357D01*
X012829Y007191D01*
M02*
